<?xml version="1.0" encoding="UTF-8" standalone="no"?>
<!DOCTYPE svg PUBLIC "-//W3C//DTD SVG 1.1//EN"
 "http://www.w3.org/Graphics/SVG/1.1/DTD/svg11.dtd">
<!-- Generated by graphviz version 2.26.3 (20100126.1600)
 -->
<!-- Title: G Pages: 1 -->
<svg width="236pt" height="102pt"
 viewBox="0.00 0.00 236.00 102.00" xmlns="http://www.w3.org/2000/svg" xmlns:xlink="http://www.w3.org/1999/xlink">
<g id="graph1" class="graph" transform="scale(1 1) rotate(0) translate(4 98)">
<title>G</title>
<polygon fill="white" stroke="white" points="-4,5 -4,-98 233,-98 233,5 -4,5"/>
<!-- Node1 -->
<g id="node1" class="node"><title>Node1</title>
<polygon fill="#bfbfbf" stroke="black" points="40.5,-0.5 40.5,-21.5 111.5,-21.5 111.5,-0.5 40.5,-0.5"/>
<text text-anchor="middle" x="76" y="-8.5" font-family="Helvetica,sans-Serif" font-size="10.00">Mem0Global</text>
</g>
<!-- Node2 -->
<g id="node2" class="node"><title>Node2</title>
<a xlink:href="../../d5/d3c/structsqlite3__mutex.html" target="_top" xlink:title="sqlite3_mutex">
<polygon fill="white" stroke="black" points="-0.5,-72.5 -0.5,-93.5 76.5,-93.5 76.5,-72.5 -0.5,-72.5"/>
<text text-anchor="middle" x="38" y="-80.5" font-family="Helvetica,sans-Serif" font-size="10.00">sqlite3_mutex</text>
</a>
</g>
<!-- Node2&#45;&gt;Node1 -->
<g id="edge2" class="edge"><title>Node2&#45;&gt;Node1</title>
<path fill="none" stroke="#9a32cd" stroke-dasharray="5,2" d="M48.3342,-63.4193C55.4307,-49.9734 64.5798,-32.6384 70.37,-21.6674"/>
<polygon fill="#9a32cd" stroke="#9a32cd" points="45.1793,-61.8986 43.607,-72.3762 51.37,-65.166 45.1793,-61.8986"/>
<text text-anchor="middle" x="75.5" y="-44.5" font-family="Helvetica,sans-Serif" font-size="10.00"> mutex</text>
</g>
<!-- Node3 -->
<g id="node4" class="node"><title>Node3</title>
<a xlink:href="../../da/d02/struct_scratch_freeslot.html" target="_top" xlink:title="ScratchFreeslot">
<polygon fill="white" stroke="black" points="94,-72.5 94,-93.5 180,-93.5 180,-72.5 94,-72.5"/>
<text text-anchor="middle" x="137" y="-80.5" font-family="Helvetica,sans-Serif" font-size="10.00">ScratchFreeslot</text>
</a>
</g>
<!-- Node3&#45;&gt;Node1 -->
<g id="edge4" class="edge"><title>Node3&#45;&gt;Node1</title>
<path fill="none" stroke="#9a32cd" stroke-dasharray="5,2" d="M121.398,-64.5841C109.879,-50.9886 94.6032,-32.9579 85.0377,-21.6674"/>
<polygon fill="#9a32cd" stroke="#9a32cd" points="118.865,-67.0088 127.999,-72.3762 124.205,-62.4838 118.865,-67.0088"/>
<text text-anchor="middle" x="142" y="-44.5" font-family="Helvetica,sans-Serif" font-size="10.00"> pScratchFree</text>
</g>
<!-- Node3&#45;&gt;Node3 -->
<g id="edge6" class="edge"><title>Node3&#45;&gt;Node3</title>
<path fill="none" stroke="#9a32cd" stroke-dasharray="5,2" d="M190.254,-88.334C195.013,-87.217 198,-85.439 198,-83 198,-79.0977 190.355,-76.8873 180.036,-76.3691"/>
<polygon fill="#9a32cd" stroke="#9a32cd" points="189.516,-84.8996 180.036,-89.6309 190.397,-91.8439 189.516,-84.8996"/>
<text text-anchor="middle" x="213" y="-80.5" font-family="Helvetica,sans-Serif" font-size="10.00"> pNext</text>
</g>
</g>
</svg>
