<?xml version="1.0" encoding="UTF-8" standalone="no"?>
<!DOCTYPE svg PUBLIC "-//W3C//DTD SVG 1.1//EN"
 "http://www.w3.org/Graphics/SVG/1.1/DTD/svg11.dtd">
<!-- Generated by graphviz version 2.26.3 (20100126.1600)
 -->
<!-- Title: G Pages: 1 -->
<svg width="202pt" height="88pt"
 viewBox="0.00 0.00 202.00 88.00" xmlns="http://www.w3.org/2000/svg" xmlns:xlink="http://www.w3.org/1999/xlink">
<g id="graph1" class="graph" transform="scale(1 1) rotate(0) translate(4 84)">
<title>G</title>
<polygon fill="white" stroke="white" points="-4,5 -4,-84 199,-84 199,5 -4,5"/>
<!-- Node1 -->
<g id="node1" class="node"><title>Node1</title>
<polygon fill="#bfbfbf" stroke="black" points="58,-58.5 58,-79.5 150,-79.5 150,-58.5 58,-58.5"/>
<text text-anchor="middle" x="104" y="-66.5" font-family="Helvetica,sans-Serif" font-size="10.00">src/api/ioformat.h</text>
</g>
<!-- Node2 -->
<g id="node3" class="node"><title>Node2</title>
<a xlink:href="../../d2/d50/ioformat_8cpp.html" target="_top" xlink:title="src/api/ioformat.cpp">
<polygon fill="white" stroke="black" points="-0.5,-0.5 -0.5,-21.5 102.5,-21.5 102.5,-0.5 -0.5,-0.5"/>
<text text-anchor="middle" x="51" y="-8.5" font-family="Helvetica,sans-Serif" font-size="10.00">src/api/ioformat.cpp</text>
</a>
</g>
<!-- Node1&#45;&gt;Node2 -->
<g id="edge2" class="edge"><title>Node1&#45;&gt;Node2</title>
<path fill="none" stroke="midnightblue" d="M87.3963,-50.8299C78.6037,-41.2078 68.1137,-29.7282 60.6594,-21.5707"/>
<polygon fill="midnightblue" stroke="midnightblue" points="84.9495,-53.3408 94.279,-58.3619 90.117,-48.6188 84.9495,-53.3408"/>
</g>
<!-- Node3 -->
<g id="node5" class="node"><title>Node3</title>
<a xlink:href="../../db/d14/index_8cpp.html" target="_top" xlink:title="src/index.cpp">
<polygon fill="white" stroke="black" points="119.5,-0.5 119.5,-21.5 194.5,-21.5 194.5,-0.5 119.5,-0.5"/>
<text text-anchor="middle" x="157" y="-8.5" font-family="Helvetica,sans-Serif" font-size="10.00">src/index.cpp</text>
</a>
</g>
<!-- Node1&#45;&gt;Node3 -->
<g id="edge4" class="edge"><title>Node1&#45;&gt;Node3</title>
<path fill="none" stroke="midnightblue" d="M120.604,-50.8299C129.396,-41.2078 139.886,-29.7282 147.341,-21.5707"/>
<polygon fill="midnightblue" stroke="midnightblue" points="117.883,-48.6188 113.721,-58.3619 123.051,-53.3408 117.883,-48.6188"/>
</g>
</g>
</svg>
