<?xml version="1.0" encoding="UTF-8" standalone="no"?>
<!DOCTYPE svg PUBLIC "-//W3C//DTD SVG 1.1//EN"
 "http://www.w3.org/Graphics/SVG/1.1/DTD/svg11.dtd">
<!-- Generated by graphviz version 2.26.3 (20100126.1600)
 -->
<!-- Title: G Pages: 1 -->
<svg width="116pt" height="102pt"
 viewBox="0.00 0.00 116.00 102.00" xmlns="http://www.w3.org/2000/svg" xmlns:xlink="http://www.w3.org/1999/xlink">
<g id="graph1" class="graph" transform="scale(1 1) rotate(0) translate(4 98)">
<title>G</title>
<polygon fill="white" stroke="white" points="-4,5 -4,-98 113,-98 113,5 -4,5"/>
<!-- Node1 -->
<g id="node1" class="node"><title>Node1</title>
<polygon fill="#bfbfbf" stroke="black" points="2.5,-0.5 2.5,-21.5 57.5,-21.5 57.5,-0.5 2.5,-0.5"/>
<text text-anchor="middle" x="30" y="-8.5" font-family="Helvetica,sans-Serif" font-size="10.00">FilePoint</text>
</g>
<!-- Node2 -->
<g id="node2" class="node"><title>Node2</title>
<a xlink:href="../../de/d53/struct_file_chunk.html" target="_top" xlink:title="FileChunk">
<polygon fill="white" stroke="black" points="-0.5,-72.5 -0.5,-93.5 60.5,-93.5 60.5,-72.5 -0.5,-72.5"/>
<text text-anchor="middle" x="30" y="-80.5" font-family="Helvetica,sans-Serif" font-size="10.00">FileChunk</text>
</a>
</g>
<!-- Node2&#45;&gt;Node1 -->
<g id="edge2" class="edge"><title>Node2&#45;&gt;Node1</title>
<path fill="none" stroke="#9a32cd" stroke-dasharray="5,2" d="M30,-62.2348C30,-48.969 30,-32.3188 30,-21.6674"/>
<polygon fill="#9a32cd" stroke="#9a32cd" points="26.5001,-62.3761 30,-72.3762 33.5001,-62.3762 26.5001,-62.3761"/>
<text text-anchor="middle" x="48.5" y="-44.5" font-family="Helvetica,sans-Serif" font-size="10.00"> pChunk</text>
</g>
<!-- Node2&#45;&gt;Node2 -->
<g id="edge4" class="edge"><title>Node2&#45;&gt;Node2</title>
<path fill="none" stroke="#9a32cd" stroke-dasharray="5,2" d="M70.8705,-88.6172C75.2121,-87.5289 78,-85.6565 78,-83 78,-78.6406 70.4922,-76.3928 60.9315,-76.2566"/>
<polygon fill="#9a32cd" stroke="#9a32cd" points="70.4738,-85.1396 60.9315,-89.7434 71.262,-92.0951 70.4738,-85.1396"/>
<text text-anchor="middle" x="93" y="-80.5" font-family="Helvetica,sans-Serif" font-size="10.00"> pNext</text>
</g>
</g>
</svg>
