<?xml version="1.0" encoding="UTF-8" standalone="no"?>
<!DOCTYPE svg PUBLIC "-//W3C//DTD SVG 1.1//EN"
 "http://www.w3.org/Graphics/SVG/1.1/DTD/svg11.dtd">
<!-- Generated by graphviz version 2.26.3 (20100126.1600)
 -->
<!-- Title: G Pages: 1 -->
<svg width="192pt" height="146pt"
 viewBox="0.00 0.00 192.00 146.00" xmlns="http://www.w3.org/2000/svg" xmlns:xlink="http://www.w3.org/1999/xlink">
<g id="graph1" class="graph" transform="scale(1 1) rotate(0) translate(4 142)">
<title>G</title>
<polygon fill="white" stroke="white" points="-4,5 -4,-142 189,-142 189,5 -4,5"/>
<!-- Node1 -->
<g id="node1" class="node"><title>Node1</title>
<polygon fill="#bfbfbf" stroke="black" points="-0.5,-116.5 -0.5,-137.5 184.5,-137.5 184.5,-116.5 -0.5,-116.5"/>
<text text-anchor="middle" x="92" y="-124.5" font-family="Helvetica,sans-Serif" font-size="10.00">src/parsers/json/cpp&#45;json/json/object.h</text>
</g>
<!-- Node2 -->
<g id="node3" class="node"><title>Node2</title>
<a xlink:href="../../d4/d05/json_8h.html" target="_top" xlink:title="src/parsers/json/cpp&#45;json/json.h">
<polygon fill="white" stroke="black" points="14.5,-58.5 14.5,-79.5 169.5,-79.5 169.5,-58.5 14.5,-58.5"/>
<text text-anchor="middle" x="92" y="-66.5" font-family="Helvetica,sans-Serif" font-size="10.00">src/parsers/json/cpp&#45;json/json.h</text>
</a>
</g>
<!-- Node1&#45;&gt;Node2 -->
<g id="edge2" class="edge"><title>Node1&#45;&gt;Node2</title>
<path fill="none" stroke="midnightblue" d="M92,-106.191C92,-97.1684 92,-86.9941 92,-79.5707"/>
<polygon fill="midnightblue" stroke="midnightblue" points="88.5001,-106.362 92,-116.362 95.5001,-106.362 88.5001,-106.362"/>
</g>
<!-- Node3 -->
<g id="node5" class="node"><title>Node3</title>
<a xlink:href="../../d2/d50/ioformat_8cpp.html" target="_top" xlink:title="src/api/ioformat.cpp">
<polygon fill="white" stroke="black" points="40.5,-0.5 40.5,-21.5 143.5,-21.5 143.5,-0.5 40.5,-0.5"/>
<text text-anchor="middle" x="92" y="-8.5" font-family="Helvetica,sans-Serif" font-size="10.00">src/api/ioformat.cpp</text>
</a>
</g>
<!-- Node2&#45;&gt;Node3 -->
<g id="edge4" class="edge"><title>Node2&#45;&gt;Node3</title>
<path fill="none" stroke="midnightblue" d="M92,-48.1906C92,-39.1684 92,-28.9941 92,-21.5707"/>
<polygon fill="midnightblue" stroke="midnightblue" points="88.5001,-48.3619 92,-58.3619 95.5001,-48.3619 88.5001,-48.3619"/>
</g>
</g>
</svg>
