<?xml version="1.0" encoding="UTF-8" standalone="no"?>
<!DOCTYPE svg PUBLIC "-//W3C//DTD SVG 1.1//EN"
 "http://www.w3.org/Graphics/SVG/1.1/DTD/svg11.dtd">
<!-- Generated by graphviz version 2.26.3 (20100126.1600)
 -->
<!-- Title: G Pages: 1 -->
<!--zoomable 590 -->
<svg id="main" version="1.1" xmlns="http://www.w3.org/2000/svg" xmlns:xlink="http://www.w3.org/1999/xlink" xml:space="preserve" onload="init(evt)">
        <defs>
                <circle id="rim" cx="0" cy="0" r="7"/>
                <circle id="rim2" cx="0" cy="0" r="3.5"/>
                <g id="zoomPlus">
                        <use xlink:href="#rim" fill="#404040">
                                <set attributeName="fill" to="#808080" begin="zoomplus.mouseover" end="zoomplus.mouseout"/>
                        </use>
                        <path d="M-4,0h8M0,-4v8" fill="none" stroke="white" stroke-width="1.5" pointer-events="none"/>
                </g>
                <g id="zoomMin">
                        <use xlink:href="#rim" fill="#404040">
                                <set attributeName="fill" to="#808080" begin="zoomminus.mouseover" end="zoomminus.mouseout"/>
                        </use>
                        <path d="M-4,0h8" fill="none" stroke="white" stroke-width="1.5" pointer-events="none"/>
                </g>
                <g id="dirArrow">
                        <path fill="none" stroke="white" stroke-width="1.5" d="M0,-3.0v7 M-2.5,-0.5L0,-3.0L2.5,-0.5"/>
                </g>
               <g id="resetDef">
                       <use xlink:href="#rim2" fill="#404040">
                               <set attributeName="fill" to="#808080" begin="reset.mouseover" end="reset.mouseout"/>
                       </use>
               </g>
        </defs>

<script type="text/javascript">
var viewWidth = 282;
var viewHeight = 590;
var sectionId = 'dynsection-0';
</script>
<script xlink:href="../../svgpan.js"/>
<svg id="graph" class="graph">
<g id="viewport">
<title>G</title>
<polygon fill="white" stroke="white" points="-4,5 -4,-586 279,-586 279,5 -4,5"/>
<!-- Node1 -->
<g id="node1" class="node"><title>Node1</title>
<polygon fill="#bfbfbf" stroke="black" points="0.5,-280.5 0.5,-301.5 83.5,-301.5 83.5,-280.5 0.5,-280.5"/>
<text text-anchor="middle" x="42" y="-288.5" font-family="Helvetica,sans-Serif" font-size="10.00">json::exception</text>
</g>
<!-- Node2 -->
<g id="node3" class="node"><title>Node2</title>
<a xlink:href="../../d2/d66/classjson_1_1boolean__expected.html" target="_top" xlink:title="json::boolean_expected">
<polygon fill="white" stroke="black" points="137.5,-560.5 137.5,-581.5 256.5,-581.5 256.5,-560.5 137.5,-560.5"/>
<text text-anchor="middle" x="197" y="-568.5" font-family="Helvetica,sans-Serif" font-size="10.00">json::boolean_expected</text>
</a>
</g>
<!-- Node1&#45;&gt;Node2 -->
<g id="edge2" class="edge"><title>Node1&#45;&gt;Node2</title>
<path fill="none" stroke="midnightblue" d="M45.5192,-311.654C55.3587,-367.054 84.7552,-517.047 120,-551 124.973,-555.791 130.941,-559.474 137.326,-562.298"/>
<polygon fill="midnightblue" stroke="midnightblue" points="48.9353,-310.869 43.7685,-301.62 42.0394,-312.073 48.9353,-310.869"/>
</g>
<!-- Node3 -->
<g id="node5" class="node"><title>Node3</title>
<a xlink:href="../../d1/d41/classjson_1_1brace__expected.html" target="_top" xlink:title="json::brace_expected">
<polygon fill="white" stroke="black" points="142,-520.5 142,-541.5 252,-541.5 252,-520.5 142,-520.5"/>
<text text-anchor="middle" x="197" y="-528.5" font-family="Helvetica,sans-Serif" font-size="10.00">json::brace_expected</text>
</a>
</g>
<!-- Node1&#45;&gt;Node3 -->
<g id="edge4" class="edge"><title>Node1&#45;&gt;Node3</title>
<path fill="none" stroke="midnightblue" d="M43.1239,-311.831C46.6351,-355.478 61.0511,-456.947 120,-511 126.21,-516.694 133.832,-520.81 141.841,-523.777"/>
<polygon fill="midnightblue" stroke="midnightblue" points="46.5975,-311.327 42.4198,-301.59 39.614,-311.807 46.5975,-311.327"/>
</g>
<!-- Node4 -->
<g id="node7" class="node"><title>Node4</title>
<a xlink:href="../../d9/d22/classjson_1_1bracket__expected.html" target="_top" xlink:title="json::bracket_expected">
<polygon fill="white" stroke="black" points="138,-480.5 138,-501.5 256,-501.5 256,-480.5 138,-480.5"/>
<text text-anchor="middle" x="197" y="-488.5" font-family="Helvetica,sans-Serif" font-size="10.00">json::bracket_expected</text>
</a>
</g>
<!-- Node1&#45;&gt;Node4 -->
<g id="edge6" class="edge"><title>Node1&#45;&gt;Node4</title>
<path fill="none" stroke="midnightblue" d="M45.0455,-312.146C51.6245,-349.891 70.7616,-428.849 120,-471 125.246,-475.491 131.38,-478.991 137.855,-481.715"/>
<polygon fill="midnightblue" stroke="midnightblue" points="48.4317,-311.158 43.3875,-301.841 41.5206,-312.27 48.4317,-311.158"/>
</g>
<!-- Node5 -->
<g id="node9" class="node"><title>Node5</title>
<a xlink:href="../../da/d6c/classjson_1_1colon__expected.html" target="_top" xlink:title="json::colon_expected">
<polygon fill="white" stroke="black" points="142.5,-440.5 142.5,-461.5 251.5,-461.5 251.5,-440.5 142.5,-440.5"/>
<text text-anchor="middle" x="197" y="-448.5" font-family="Helvetica,sans-Serif" font-size="10.00">json::colon_expected</text>
</a>
</g>
<!-- Node1&#45;&gt;Node5 -->
<g id="edge8" class="edge"><title>Node1&#45;&gt;Node5</title>
<path fill="none" stroke="midnightblue" d="M47.6665,-311.32C57.2988,-342.022 79.8369,-399.938 120,-431 126.555,-436.07 134.267,-439.862 142.234,-442.696"/>
<polygon fill="midnightblue" stroke="midnightblue" points="51.0042,-310.265 44.7899,-301.684 44.2967,-312.268 51.0042,-310.265"/>
</g>
<!-- Node6 -->
<g id="node11" class="node"><title>Node6</title>
<a xlink:href="../../d5/dfb/classjson_1_1hex__character__expected.html" target="_top" xlink:title="json::hex_character_expected">
<polygon fill="white" stroke="black" points="123.5,-400.5 123.5,-421.5 270.5,-421.5 270.5,-400.5 123.5,-400.5"/>
<text text-anchor="middle" x="197" y="-408.5" font-family="Helvetica,sans-Serif" font-size="10.00">json::hex_character_expected</text>
</a>
</g>
<!-- Node1&#45;&gt;Node6 -->
<g id="edge10" class="edge"><title>Node1&#45;&gt;Node6</title>
<path fill="none" stroke="midnightblue" d="M52.129,-310.722C64.8714,-333.536 88.902,-370.57 120,-391 125.772,-394.792 132.226,-397.865 138.877,-400.357"/>
<polygon fill="midnightblue" stroke="midnightblue" points="55.053,-308.77 47.2273,-301.628 48.8911,-312.092 55.053,-308.77"/>
</g>
<!-- Node7 -->
<g id="node13" class="node"><title>Node7</title>
<a xlink:href="../../d6/d63/classjson_1_1invalid__index.html" target="_top" xlink:title="json::invalid_index">
<polygon fill="white" stroke="black" points="148.5,-360.5 148.5,-381.5 245.5,-381.5 245.5,-360.5 148.5,-360.5"/>
<text text-anchor="middle" x="197" y="-368.5" font-family="Helvetica,sans-Serif" font-size="10.00">json::invalid_index</text>
</a>
</g>
<!-- Node1&#45;&gt;Node7 -->
<g id="edge12" class="edge"><title>Node1&#45;&gt;Node7</title>
<path fill="none" stroke="midnightblue" d="M60.1676,-308.419C75.1269,-321.866 97.4685,-339.979 120,-351 128.809,-355.309 138.655,-358.766 148.284,-361.512"/>
<polygon fill="midnightblue" stroke="midnightblue" points="62.388,-305.706 52.6621,-301.504 57.6448,-310.854 62.388,-305.706"/>
</g>
<!-- Node8 -->
<g id="node15" class="node"><title>Node8</title>
<a xlink:href="../../d9/df5/classjson_1_1invalid__number.html" target="_top" xlink:title="json::invalid_number">
<polygon fill="white" stroke="black" points="144,-320.5 144,-341.5 250,-341.5 250,-320.5 144,-320.5"/>
<text text-anchor="middle" x="197" y="-328.5" font-family="Helvetica,sans-Serif" font-size="10.00">json::invalid_number</text>
</a>
</g>
<!-- Node1&#45;&gt;Node8 -->
<g id="edge14" class="edge"><title>Node1&#45;&gt;Node8</title>
<path fill="none" stroke="midnightblue" d="M92.5924,-304.056C113.232,-309.382 136.778,-315.459 156.279,-320.491"/>
<polygon fill="midnightblue" stroke="midnightblue" points="93.2818,-300.619 82.7244,-301.51 91.5326,-307.397 93.2818,-300.619"/>
</g>
<!-- Node9 -->
<g id="node17" class="node"><title>Node9</title>
<a xlink:href="../../de/dd4/classjson_1_1invalid__type__cast.html" target="_top" xlink:title="json::invalid_type_cast">
<polygon fill="white" stroke="black" points="139,-280.5 139,-301.5 255,-301.5 255,-280.5 139,-280.5"/>
<text text-anchor="middle" x="197" y="-288.5" font-family="Helvetica,sans-Serif" font-size="10.00">json::invalid_type_cast</text>
</a>
</g>
<!-- Node1&#45;&gt;Node9 -->
<g id="edge16" class="edge"><title>Node1&#45;&gt;Node9</title>
<path fill="none" stroke="midnightblue" d="M93.7718,-291C108.199,-291 123.968,-291 138.741,-291"/>
<polygon fill="midnightblue" stroke="midnightblue" points="93.5372,-287.5 83.5372,-291 93.5371,-294.5 93.5372,-287.5"/>
</g>
<!-- Node10 -->
<g id="node19" class="node"><title>Node10</title>
<a xlink:href="../../dd/d24/classjson_1_1invalid__unicode__character.html" target="_top" xlink:title="json::invalid_unicode_character">
<polygon fill="white" stroke="black" points="120.5,-240.5 120.5,-261.5 273.5,-261.5 273.5,-240.5 120.5,-240.5"/>
<text text-anchor="middle" x="197" y="-248.5" font-family="Helvetica,sans-Serif" font-size="10.00">json::invalid_unicode_character</text>
</a>
</g>
<!-- Node1&#45;&gt;Node10 -->
<g id="edge18" class="edge"><title>Node1&#45;&gt;Node10</title>
<path fill="none" stroke="midnightblue" d="M92.5924,-277.944C113.232,-272.618 136.778,-266.541 156.279,-261.509"/>
<polygon fill="midnightblue" stroke="midnightblue" points="91.5326,-274.603 82.7244,-280.49 93.2818,-281.381 91.5326,-274.603"/>
</g>
<!-- Node11 -->
<g id="node21" class="node"><title>Node11</title>
<a xlink:href="../../df/d2c/classjson_1_1invalid__utf8__string.html" target="_top" xlink:title="json::invalid_utf8_string">
<polygon fill="white" stroke="black" points="137.5,-200.5 137.5,-221.5 256.5,-221.5 256.5,-200.5 137.5,-200.5"/>
<text text-anchor="middle" x="197" y="-208.5" font-family="Helvetica,sans-Serif" font-size="10.00">json::invalid_utf8_string</text>
</a>
</g>
<!-- Node1&#45;&gt;Node11 -->
<g id="edge20" class="edge"><title>Node1&#45;&gt;Node11</title>
<path fill="none" stroke="midnightblue" d="M60.1676,-273.581C75.1269,-260.134 97.4685,-242.021 120,-231 127.692,-227.237 136.175,-224.124 144.614,-221.567"/>
<polygon fill="midnightblue" stroke="midnightblue" points="57.6448,-271.146 52.6621,-280.496 62.388,-276.294 57.6448,-271.146"/>
</g>
<!-- Node12 -->
<g id="node23" class="node"><title>Node12</title>
<a xlink:href="../../d0/dad/classjson_1_1keyword__expected.html" target="_top" xlink:title="json::keyword_expected">
<polygon fill="white" stroke="black" points="136,-160.5 136,-181.5 258,-181.5 258,-160.5 136,-160.5"/>
<text text-anchor="middle" x="197" y="-168.5" font-family="Helvetica,sans-Serif" font-size="10.00">json::keyword_expected</text>
</a>
</g>
<!-- Node1&#45;&gt;Node12 -->
<g id="edge22" class="edge"><title>Node1&#45;&gt;Node12</title>
<path fill="none" stroke="midnightblue" d="M52.129,-271.278C64.8714,-248.464 88.902,-211.43 120,-191 125.772,-187.208 132.226,-184.135 138.877,-181.643"/>
<polygon fill="midnightblue" stroke="midnightblue" points="48.8911,-269.908 47.2273,-280.372 55.053,-273.23 48.8911,-269.908"/>
</g>
<!-- Node13 -->
<g id="node25" class="node"><title>Node13</title>
<a xlink:href="../../dc/d9b/classjson_1_1quote__expected.html" target="_top" xlink:title="json::quote_expected">
<polygon fill="white" stroke="black" points="142,-120.5 142,-141.5 252,-141.5 252,-120.5 142,-120.5"/>
<text text-anchor="middle" x="197" y="-128.5" font-family="Helvetica,sans-Serif" font-size="10.00">json::quote_expected</text>
</a>
</g>
<!-- Node1&#45;&gt;Node13 -->
<g id="edge24" class="edge"><title>Node1&#45;&gt;Node13</title>
<path fill="none" stroke="midnightblue" d="M47.6665,-270.68C57.2988,-239.978 79.8369,-182.062 120,-151 126.446,-146.015 134.011,-142.265 141.836,-139.446"/>
<polygon fill="midnightblue" stroke="midnightblue" points="44.2967,-269.732 44.7899,-280.316 51.0042,-271.735 44.2967,-269.732"/>
</g>
<!-- Node14 -->
<g id="node27" class="node"><title>Node14</title>
<a xlink:href="../../da/da5/classjson_1_1string__expected.html" target="_top" xlink:title="json::string_expected">
<polygon fill="white" stroke="black" points="142,-80.5 142,-101.5 252,-101.5 252,-80.5 142,-80.5"/>
<text text-anchor="middle" x="197" y="-88.5" font-family="Helvetica,sans-Serif" font-size="10.00">json::string_expected</text>
</a>
</g>
<!-- Node1&#45;&gt;Node14 -->
<g id="edge26" class="edge"><title>Node1&#45;&gt;Node14</title>
<path fill="none" stroke="midnightblue" d="M45.0455,-269.854C51.6245,-232.109 70.7616,-153.151 120,-111 126.295,-105.611 133.869,-101.649 141.777,-98.7419"/>
<polygon fill="midnightblue" stroke="midnightblue" points="41.5206,-269.73 43.3875,-280.159 48.4317,-270.842 41.5206,-269.73"/>
</g>
<!-- Node15 -->
<g id="node29" class="node"><title>Node15</title>
<a xlink:href="../../d3/d55/classjson_1_1utf16__surrogate__expected.html" target="_top" xlink:title="json::utf16_surrogate_expected">
<polygon fill="white" stroke="black" points="120.5,-40.5 120.5,-61.5 273.5,-61.5 273.5,-40.5 120.5,-40.5"/>
<text text-anchor="middle" x="197" y="-48.5" font-family="Helvetica,sans-Serif" font-size="10.00">json::utf16_surrogate_expected</text>
</a>
</g>
<!-- Node1&#45;&gt;Node15 -->
<g id="edge28" class="edge"><title>Node1&#45;&gt;Node15</title>
<path fill="none" stroke="midnightblue" d="M43.1239,-270.169C46.6351,-226.522 61.0511,-125.053 120,-71 124.174,-67.1729 128.986,-64.0586 134.124,-61.5271"/>
<polygon fill="midnightblue" stroke="midnightblue" points="39.614,-270.193 42.4198,-280.41 46.5975,-270.673 39.614,-270.193"/>
</g>
<!-- Node16 -->
<g id="node31" class="node"><title>Node16</title>
<a xlink:href="../../d1/d93/classjson_1_1value__expected.html" target="_top" xlink:title="json::value_expected">
<polygon fill="white" stroke="black" points="142.5,-0.5 142.5,-21.5 251.5,-21.5 251.5,-0.5 142.5,-0.5"/>
<text text-anchor="middle" x="197" y="-8.5" font-family="Helvetica,sans-Serif" font-size="10.00">json::value_expected</text>
</a>
</g>
<!-- Node1&#45;&gt;Node16 -->
<g id="edge30" class="edge"><title>Node1&#45;&gt;Node16</title>
<path fill="none" stroke="midnightblue" d="M45.5192,-270.346C55.3587,-214.946 84.7552,-64.953 120,-31 126.267,-24.9631 134.112,-20.6863 142.38,-17.6688"/>
<polygon fill="midnightblue" stroke="midnightblue" points="42.0394,-269.927 43.7685,-280.38 48.9353,-271.131 42.0394,-269.927"/>
</g>
</g>
</svg>
        <g id="navigator" transform="translate(0 0)" fill="#404254">
                <rect fill="#f2f5e9" fill-opacity="0.5" stroke="#606060" stroke-width=".5" x="0" y="0" width="60" height="60"/>
                <use id="zoomplus" xlink:href="#zoomPlus" x="17" y="9" onmousedown="handleZoom(evt,'in')"/>
                <use id="zoomminus" xlink:href="#zoomMin" x="42" y="9" onmousedown="handleZoom(evt,'out')"/>
                <use id="reset" xlink:href="#resetDef" x="30" y="36" onmousedown="handleReset()"/>
                <g id="arrowUp" xlink:href="#dirArrow" transform="translate(30 24)" onmousedown="handlePan(0,-1)">
                  <use xlink:href="#rim" fill="#404040">
                        <set attributeName="fill" to="#808080" begin="arrowUp.mouseover" end="arrowUp.mouseout"/>
                  </use>
                  <path fill="none" stroke="white" stroke-width="1.5" d="M0,-3.0v7 M-2.5,-0.5L0,-3.0L2.5,-0.5"/>
                </g>
                <g id="arrowRight" xlink:href="#dirArrow" transform="rotate(90) translate(36 -43)" onmousedown="handlePan(1,0)">
                  <use xlink:href="#rim" fill="#404040">
                        <set attributeName="fill" to="#808080" begin="arrowRight.mouseover" end="arrowRight.mouseout"/>
                  </use>
                  <path fill="none" stroke="white" stroke-width="1.5" d="M0,-3.0v7 M-2.5,-0.5L0,-3.0L2.5,-0.5"/>
                </g>
                <g id="arrowDown" xlink:href="#dirArrow" transform="rotate(180) translate(-30 -48)" onmousedown="handlePan(0,1)">
                  <use xlink:href="#rim" fill="#404040">
                        <set attributeName="fill" to="#808080" begin="arrowDown.mouseover" end="arrowDown.mouseout"/>
                  </use>
                  <path fill="none" stroke="white" stroke-width="1.5" d="M0,-3.0v7 M-2.5,-0.5L0,-3.0L2.5,-0.5"/>
                </g>
                <g id="arrowLeft" xlink:href="#dirArrow" transform="rotate(270) translate(-36 17)" onmousedown="handlePan(-1,0)">
                  <use xlink:href="#rim" fill="#404040">
                        <set attributeName="fill" to="#808080" begin="arrowLeft.mouseover" end="arrowLeft.mouseout"/>
                  </use>
                  <path fill="none" stroke="white" stroke-width="1.5" d="M0,-3.0v7 M-2.5,-0.5L0,-3.0L2.5,-0.5"/>
                </g>
        </g>
</svg>
