<?xml version="1.0" encoding="UTF-8" standalone="no"?>
<!DOCTYPE svg PUBLIC "-//W3C//DTD SVG 1.1//EN"
 "http://www.w3.org/Graphics/SVG/1.1/DTD/svg11.dtd">
<!-- Generated by graphviz version 2.26.3 (20100126.1600)
 -->
<!-- Title: G Pages: 1 -->
<svg width="276pt" height="88pt"
 viewBox="0.00 0.00 276.00 88.00" xmlns="http://www.w3.org/2000/svg" xmlns:xlink="http://www.w3.org/1999/xlink">
<g id="graph1" class="graph" transform="scale(1 1) rotate(0) translate(4 84)">
<title>G</title>
<polygon fill="white" stroke="white" points="-4,5 -4,-84 273,-84 273,5 -4,5"/>
<!-- Node1 -->
<g id="node1" class="node"><title>Node1</title>
<polygon fill="#bfbfbf" stroke="black" points="71,-58.5 71,-79.5 247,-79.5 247,-58.5 71,-58.5"/>
<text text-anchor="middle" x="159" y="-66.5" font-family="Helvetica,sans-Serif" font-size="10.00">src/backend/stemming/porter/stem.h</text>
</g>
<!-- Node2 -->
<g id="node3" class="node"><title>Node2</title>
<a xlink:href="../../dd/df8/stem_8c.html" target="_top" xlink:title="src/backend/stemming/porter/stem.c">
<polygon fill="white" stroke="black" points="0,-0.5 0,-21.5 176,-21.5 176,-0.5 0,-0.5"/>
<text text-anchor="middle" x="88" y="-8.5" font-family="Helvetica,sans-Serif" font-size="10.00">src/backend/stemming/porter/stem.c</text>
</a>
</g>
<!-- Node1&#45;&gt;Node2 -->
<g id="edge2" class="edge"><title>Node1&#45;&gt;Node2</title>
<path fill="none" stroke="midnightblue" d="M138.159,-51.9753C126.109,-42.1315 111.325,-30.0545 100.94,-21.5707"/>
<polygon fill="midnightblue" stroke="midnightblue" points="136.019,-54.746 145.978,-58.3619 140.447,-49.3249 136.019,-54.746"/>
</g>
<!-- Node3 -->
<g id="node5" class="node"><title>Node3</title>
<a xlink:href="../../db/d14/index_8cpp.html" target="_top" xlink:title="src/index.cpp">
<polygon fill="white" stroke="black" points="193.5,-0.5 193.5,-21.5 268.5,-21.5 268.5,-0.5 193.5,-0.5"/>
<text text-anchor="middle" x="231" y="-8.5" font-family="Helvetica,sans-Serif" font-size="10.00">src/index.cpp</text>
</a>
</g>
<!-- Node1&#45;&gt;Node3 -->
<g id="edge4" class="edge"><title>Node1&#45;&gt;Node3</title>
<path fill="none" stroke="midnightblue" d="M180.134,-51.9753C192.354,-42.1315 207.346,-30.0545 217.878,-21.5707"/>
<polygon fill="midnightblue" stroke="midnightblue" points="177.798,-49.3629 172.206,-58.3619 182.189,-54.8142 177.798,-49.3629"/>
</g>
</g>
</svg>
