<?xml version="1.0" encoding="UTF-8" standalone="no"?>
<!DOCTYPE svg PUBLIC "-//W3C//DTD SVG 1.1//EN"
 "http://www.w3.org/Graphics/SVG/1.1/DTD/svg11.dtd">
<!-- Generated by graphviz version 2.26.3 (20100126.1600)
 -->
<!-- Title: G Pages: 1 -->
<svg width="188pt" height="146pt"
 viewBox="0.00 0.00 188.00 146.00" xmlns="http://www.w3.org/2000/svg" xmlns:xlink="http://www.w3.org/1999/xlink">
<g id="graph1" class="graph" transform="scale(1 1) rotate(0) translate(4 142)">
<title>G</title>
<polygon fill="white" stroke="white" points="-4,5 -4,-142 185,-142 185,5 -4,5"/>
<!-- Node1 -->
<g id="node1" class="node"><title>Node1</title>
<polygon fill="#bfbfbf" stroke="black" points="0,-116.5 0,-137.5 180,-137.5 180,-116.5 0,-116.5"/>
<text text-anchor="middle" x="90" y="-124.5" font-family="Helvetica,sans-Serif" font-size="10.00">src/parsers/json/cpp&#45;json/json/array.h</text>
</g>
<!-- Node2 -->
<g id="node3" class="node"><title>Node2</title>
<a xlink:href="../../d4/d05/json_8h.html" target="_top" xlink:title="src/parsers/json/cpp&#45;json/json.h">
<polygon fill="white" stroke="black" points="12.5,-58.5 12.5,-79.5 167.5,-79.5 167.5,-58.5 12.5,-58.5"/>
<text text-anchor="middle" x="90" y="-66.5" font-family="Helvetica,sans-Serif" font-size="10.00">src/parsers/json/cpp&#45;json/json.h</text>
</a>
</g>
<!-- Node1&#45;&gt;Node2 -->
<g id="edge2" class="edge"><title>Node1&#45;&gt;Node2</title>
<path fill="none" stroke="midnightblue" d="M90,-106.191C90,-97.1684 90,-86.9941 90,-79.5707"/>
<polygon fill="midnightblue" stroke="midnightblue" points="86.5001,-106.362 90,-116.362 93.5001,-106.362 86.5001,-106.362"/>
</g>
<!-- Node3 -->
<g id="node5" class="node"><title>Node3</title>
<a xlink:href="../../d2/d50/ioformat_8cpp.html" target="_top" xlink:title="src/api/ioformat.cpp">
<polygon fill="white" stroke="black" points="38.5,-0.5 38.5,-21.5 141.5,-21.5 141.5,-0.5 38.5,-0.5"/>
<text text-anchor="middle" x="90" y="-8.5" font-family="Helvetica,sans-Serif" font-size="10.00">src/api/ioformat.cpp</text>
</a>
</g>
<!-- Node2&#45;&gt;Node3 -->
<g id="edge4" class="edge"><title>Node2&#45;&gt;Node3</title>
<path fill="none" stroke="midnightblue" d="M90,-48.1906C90,-39.1684 90,-28.9941 90,-21.5707"/>
<polygon fill="midnightblue" stroke="midnightblue" points="86.5001,-48.3619 90,-58.3619 93.5001,-48.3619 86.5001,-48.3619"/>
</g>
</g>
</svg>
