<?xml version="1.0" encoding="UTF-8" standalone="no"?>
<!DOCTYPE svg PUBLIC "-//W3C//DTD SVG 1.1//EN"
 "http://www.w3.org/Graphics/SVG/1.1/DTD/svg11.dtd">
<!-- Generated by graphviz version 2.26.3 (20100126.1600)
 -->
<!-- Title: G Pages: 1 -->
<svg width="308pt" height="190pt"
 viewBox="0.00 0.00 308.00 190.00" xmlns="http://www.w3.org/2000/svg" xmlns:xlink="http://www.w3.org/1999/xlink">
<g id="graph1" class="graph" transform="scale(1 1) rotate(0) translate(4 186)">
<title>G</title>
<polygon fill="white" stroke="white" points="-4,5 -4,-186 305,-186 305,5 -4,5"/>
<!-- Node1 -->
<g id="node1" class="node"><title>Node1</title>
<polygon fill="#bfbfbf" stroke="black" points="65.5,-0.5 65.5,-21.5 158.5,-21.5 158.5,-0.5 65.5,-0.5"/>
<text text-anchor="middle" x="112" y="-8.5" font-family="Helvetica,sans-Serif" font-size="10.00">xpath_query_impl</text>
</g>
<!-- Node2 -->
<g id="node2" class="node"><title>Node2</title>
<a xlink:href="../../d0/d13/structxpath__memory__block.html" target="_top" xlink:title="xpath_memory_block">
<polygon fill="white" stroke="black" points="0,-160.5 0,-181.5 110,-181.5 110,-160.5 0,-160.5"/>
<text text-anchor="middle" x="55" y="-168.5" font-family="Helvetica,sans-Serif" font-size="10.00">xpath_memory_block</text>
</a>
</g>
<!-- Node2&#45;&gt;Node1 -->
<g id="edge2" class="edge"><title>Node2&#45;&gt;Node1</title>
<path fill="none" stroke="#9a32cd" stroke-dasharray="5,2" d="M43.9665,-151.264C33.9865,-130.596 22.6015,-97.6398 35,-72 46.211,-48.8159 70.986,-31.759 89.4233,-21.6671"/>
<polygon fill="#9a32cd" stroke="#9a32cd" points="40.9502,-153.051 48.6426,-160.337 47.1725,-149.845 40.9502,-153.051"/>
<text text-anchor="middle" x="48.5" y="-88.5" font-family="Helvetica,sans-Serif" font-size="10.00"> block</text>
</g>
<!-- Node2&#45;&gt;Node2 -->
<g id="edge4" class="edge"><title>Node2&#45;&gt;Node2</title>
<path fill="none" stroke="#9a32cd" stroke-dasharray="5,2" d="M120.001,-176.066C124.952,-174.941 128,-173.252 128,-171 128,-167.484 120.574,-165.342 110.073,-164.573"/>
<polygon fill="#9a32cd" stroke="#9a32cd" points="119.505,-172.601 110.073,-177.427 120.456,-179.536 119.505,-172.601"/>
<text text-anchor="middle" x="139" y="-168.5" font-family="Helvetica,sans-Serif" font-size="10.00"> next</text>
</g>
<!-- Node3 -->
<g id="node5" class="node"><title>Node3</title>
<a xlink:href="../../d9/d51/classxpath__allocator.html" target="_top" xlink:title="xpath_allocator">
<polygon fill="white" stroke="black" points="70.5,-80.5 70.5,-101.5 153.5,-101.5 153.5,-80.5 70.5,-80.5"/>
<text text-anchor="middle" x="112" y="-88.5" font-family="Helvetica,sans-Serif" font-size="10.00">xpath_allocator</text>
</a>
</g>
<!-- Node2&#45;&gt;Node3 -->
<g id="edge8" class="edge"><title>Node2&#45;&gt;Node3</title>
<path fill="none" stroke="#9a32cd" stroke-dasharray="5,2" d="M68.7183,-151.746C79.9242,-136.019 95.3459,-114.374 104.435,-101.618"/>
<polygon fill="#9a32cd" stroke="#9a32cd" points="65.6396,-150.036 62.6873,-160.211 71.3405,-154.098 65.6396,-150.036"/>
<text text-anchor="middle" x="98.5" y="-132.5" font-family="Helvetica,sans-Serif" font-size="10.00"> _root</text>
</g>
<!-- Node3&#45;&gt;Node1 -->
<g id="edge6" class="edge"><title>Node3&#45;&gt;Node1</title>
<path fill="none" stroke="#9a32cd" stroke-dasharray="5,2" d="M112,-69.9584C112,-54.4128 112,-33.8973 112,-21.6182"/>
<polygon fill="#9a32cd" stroke="#9a32cd" points="108.5,-70.2108 112,-80.2108 115.5,-70.2109 108.5,-70.2108"/>
<text text-anchor="middle" x="124" y="-44.5" font-family="Helvetica,sans-Serif" font-size="10.00"> alloc</text>
</g>
<!-- Node4 -->
<g id="node8" class="node"><title>Node4</title>
<a xlink:href="../../d3/dc5/classxpath__ast__node.html" target="_top" xlink:title="xpath_ast_node">
<polygon fill="white" stroke="black" points="171,-80.5 171,-101.5 257,-101.5 257,-80.5 171,-80.5"/>
<text text-anchor="middle" x="214" y="-88.5" font-family="Helvetica,sans-Serif" font-size="10.00">xpath_ast_node</text>
</a>
</g>
<!-- Node4&#45;&gt;Node1 -->
<g id="edge10" class="edge"><title>Node4&#45;&gt;Node1</title>
<path fill="none" stroke="#9a32cd" stroke-dasharray="5,2" d="M192.211,-73.9108C172.003,-58.0609 142.562,-34.9703 125.538,-21.6182"/>
<polygon fill="#9a32cd" stroke="#9a32cd" points="190.215,-76.7934 200.244,-80.2108 194.535,-71.2854 190.215,-76.7934"/>
<text text-anchor="middle" x="176" y="-44.5" font-family="Helvetica,sans-Serif" font-size="10.00"> root</text>
</g>
<!-- Node4&#45;&gt;Node4 -->
<g id="edge12" class="edge"><title>Node4&#45;&gt;Node4</title>
<path fill="none" stroke="#9a32cd" stroke-dasharray="5,2" d="M267.254,-97.5194C272.013,-96.1541 275,-93.981 275,-91 275,-86.2305 267.355,-83.529 257.036,-82.8955"/>
<polygon fill="#9a32cd" stroke="#9a32cd" points="266.381,-94.1129 257.036,-99.1045 267.454,-101.03 266.381,-94.1129"/>
<text text-anchor="middle" x="287.5" y="-101.5" font-family="Helvetica,sans-Serif" font-size="10.00"> _left</text>
<text text-anchor="middle" x="287.5" y="-88.5" font-family="Helvetica,sans-Serif" font-size="10.00">_right</text>
<text text-anchor="middle" x="287.5" y="-75.5" font-family="Helvetica,sans-Serif" font-size="10.00">_next</text>
</g>
</g>
</svg>
