<?xml version="1.0" encoding="UTF-8" standalone="no"?>
<!DOCTYPE svg PUBLIC "-//W3C//DTD SVG 1.1//EN"
 "http://www.w3.org/Graphics/SVG/1.1/DTD/svg11.dtd">
<!-- Generated by graphviz version 2.26.3 (20100126.1600)
 -->
<!-- Title: G Pages: 1 -->
<svg width="493pt" height="174pt"
 viewBox="0.00 0.00 493.00 174.00" xmlns="http://www.w3.org/2000/svg" xmlns:xlink="http://www.w3.org/1999/xlink">
<g id="graph1" class="graph" transform="scale(1 1) rotate(0) translate(4 170)">
<title>G</title>
<polygon fill="white" stroke="white" points="-4,5 -4,-170 490,-170 490,5 -4,5"/>
<!-- Node1 -->
<g id="node1" class="node"><title>Node1</title>
<polygon fill="#bfbfbf" stroke="black" points="152.5,-0.5 152.5,-21.5 227.5,-21.5 227.5,-0.5 152.5,-0.5"/>
<text text-anchor="middle" x="190" y="-8.5" font-family="Helvetica,sans-Serif" font-size="10.00">Sqlite3Config</text>
</g>
<!-- Node2 -->
<g id="node2" class="node"><title>Node2</title>
<a xlink:href="../../d4/d9a/structsqlite3__mem__methods.html" target="_top" xlink:title="sqlite3_mem_methods">
<polygon fill="white" stroke="black" points="-0.5,-72.5 -0.5,-93.5 114.5,-93.5 114.5,-72.5 -0.5,-72.5"/>
<text text-anchor="middle" x="57" y="-80.5" font-family="Helvetica,sans-Serif" font-size="10.00">sqlite3_mem_methods</text>
</a>
</g>
<!-- Node2&#45;&gt;Node1 -->
<g id="edge2" class="edge"><title>Node2&#45;&gt;Node1</title>
<path fill="none" stroke="#9a32cd" stroke-dasharray="5,2" d="M80.5429,-66.605C93.1456,-58.1612 109.102,-47.9903 124,-40 136.684,-33.1972 151.291,-26.6542 163.533,-21.5103"/>
<polygon fill="#9a32cd" stroke="#9a32cd" points="78.3279,-63.8784 72.022,-72.3923 82.2609,-69.6691 78.3279,-63.8784"/>
<text text-anchor="middle" x="130" y="-44.5" font-family="Helvetica,sans-Serif" font-size="10.00"> m</text>
</g>
<!-- Node3 -->
<g id="node4" class="node"><title>Node3</title>
<a xlink:href="../../d5/d3c/structsqlite3__mutex.html" target="_top" xlink:title="sqlite3_mutex">
<polygon fill="white" stroke="black" points="174.5,-144.5 174.5,-165.5 251.5,-165.5 251.5,-144.5 174.5,-144.5"/>
<text text-anchor="middle" x="213" y="-152.5" font-family="Helvetica,sans-Serif" font-size="10.00">sqlite3_mutex</text>
</a>
</g>
<!-- Node3&#45;&gt;Node1 -->
<g id="edge4" class="edge"><title>Node3&#45;&gt;Node1</title>
<path fill="none" stroke="#9a32cd" stroke-dasharray="5,2" d="M191.488,-137.819C179.432,-126.757 165.538,-111.25 159,-94 149.187,-68.1098 168.499,-37.5938 180.831,-21.7567"/>
<polygon fill="#9a32cd" stroke="#9a32cd" points="189.215,-140.481 199.05,-144.421 193.818,-135.208 189.215,-140.481"/>
<text text-anchor="middle" x="183.5" y="-80.5" font-family="Helvetica,sans-Serif" font-size="10.00"> pInitMutex</text>
</g>
<!-- Node4 -->
<g id="node6" class="node"><title>Node4</title>
<a xlink:href="../../da/de2/structsqlite3__mutex__methods.html" target="_top" xlink:title="sqlite3_mutex_methods">
<polygon fill="white" stroke="black" points="217,-72.5 217,-93.5 337,-93.5 337,-72.5 217,-72.5"/>
<text text-anchor="middle" x="277" y="-80.5" font-family="Helvetica,sans-Serif" font-size="10.00">sqlite3_mutex_methods</text>
</a>
</g>
<!-- Node3&#45;&gt;Node4 -->
<g id="edge8" class="edge"><title>Node3&#45;&gt;Node4</title>
<path fill="none" stroke="#9a32cd" stroke-dasharray="5,2" d="M229.37,-136.584C241.455,-122.989 257.482,-104.958 267.518,-93.6674"/>
<polygon fill="#9a32cd" stroke="#9a32cd" points="226.471,-134.577 222.443,-144.376 231.703,-139.227 226.471,-134.577"/>
<text text-anchor="middle" x="279" y="-116.5" font-family="Helvetica,sans-Serif" font-size="10.00"> xMutexAlloc</text>
</g>
<!-- Node4&#45;&gt;Node1 -->
<g id="edge6" class="edge"><title>Node4&#45;&gt;Node1</title>
<path fill="none" stroke="#9a32cd" stroke-dasharray="5,2" d="M256.129,-65.7275C239.559,-52.0146 216.919,-33.2774 202.89,-21.6674"/>
<polygon fill="#9a32cd" stroke="#9a32cd" points="254.227,-68.6968 264.163,-72.3762 258.69,-63.3041 254.227,-68.6968"/>
<text text-anchor="middle" x="256.5" y="-44.5" font-family="Helvetica,sans-Serif" font-size="10.00"> mutex</text>
</g>
<!-- Node5 -->
<g id="node9" class="node"><title>Node5</title>
<a xlink:href="../../df/dca/structsqlite3__pcache__methods2.html" target="_top" xlink:title="sqlite3_pcache_methods2">
<polygon fill="white" stroke="black" points="355,-72.5 355,-93.5 485,-93.5 485,-72.5 355,-72.5"/>
<text text-anchor="middle" x="420" y="-80.5" font-family="Helvetica,sans-Serif" font-size="10.00">sqlite3_pcache_methods2</text>
</a>
</g>
<!-- Node5&#45;&gt;Node1 -->
<g id="edge10" class="edge"><title>Node5&#45;&gt;Node1</title>
<path fill="none" stroke="#9a32cd" stroke-dasharray="5,2" d="M376.416,-69.3564C332.027,-55.4606 264.14,-34.2089 223.702,-21.5501"/>
<polygon fill="#9a32cd" stroke="#9a32cd" points="375.474,-72.7288 386.063,-72.3762 377.565,-66.0484 375.474,-72.7288"/>
<text text-anchor="middle" x="345" y="-44.5" font-family="Helvetica,sans-Serif" font-size="10.00"> pcache2</text>
</g>
<!-- Node6 -->
<g id="node11" class="node"><title>Node6</title>
<a xlink:href="../../d8/d72/structsqlite3__pcache__page.html" target="_top" xlink:title="sqlite3_pcache_page">
<polygon fill="white" stroke="black" points="366,-144.5 366,-165.5 474,-165.5 474,-144.5 366,-144.5"/>
<text text-anchor="middle" x="420" y="-152.5" font-family="Helvetica,sans-Serif" font-size="10.00">sqlite3_pcache_page</text>
</a>
</g>
<!-- Node6&#45;&gt;Node5 -->
<g id="edge12" class="edge"><title>Node6&#45;&gt;Node5</title>
<path fill="none" stroke="#9a32cd" stroke-dasharray="5,2" d="M420,-134.235C420,-120.969 420,-104.319 420,-93.6674"/>
<polygon fill="#9a32cd" stroke="#9a32cd" points="416.5,-134.376 420,-144.376 423.5,-134.376 416.5,-134.376"/>
<text text-anchor="middle" x="437" y="-116.5" font-family="Helvetica,sans-Serif" font-size="10.00"> xFetch</text>
</g>
</g>
</svg>
