<?xml version="1.0" encoding="UTF-8" standalone="no"?>
<!DOCTYPE svg PUBLIC "-//W3C//DTD SVG 1.1//EN"
 "http://www.w3.org/Graphics/SVG/1.1/DTD/svg11.dtd">
<!-- Generated by graphviz version 2.26.3 (20100126.1600)
 -->
<!-- Title: G Pages: 1 -->
<!--zoomable 250 -->
<svg id="main" version="1.1" xmlns="http://www.w3.org/2000/svg" xmlns:xlink="http://www.w3.org/1999/xlink" xml:space="preserve" onload="init(evt)">
        <defs>
                <circle id="rim" cx="0" cy="0" r="7"/>
                <circle id="rim2" cx="0" cy="0" r="3.5"/>
                <g id="zoomPlus">
                        <use xlink:href="#rim" fill="#404040">
                                <set attributeName="fill" to="#808080" begin="zoomplus.mouseover" end="zoomplus.mouseout"/>
                        </use>
                        <path d="M-4,0h8M0,-4v8" fill="none" stroke="white" stroke-width="1.5" pointer-events="none"/>
                </g>
                <g id="zoomMin">
                        <use xlink:href="#rim" fill="#404040">
                                <set attributeName="fill" to="#808080" begin="zoomminus.mouseover" end="zoomminus.mouseout"/>
                        </use>
                        <path d="M-4,0h8" fill="none" stroke="white" stroke-width="1.5" pointer-events="none"/>
                </g>
                <g id="dirArrow">
                        <path fill="none" stroke="white" stroke-width="1.5" d="M0,-3.0v7 M-2.5,-0.5L0,-3.0L2.5,-0.5"/>
                </g>
               <g id="resetDef">
                       <use xlink:href="#rim2" fill="#404040">
                               <set attributeName="fill" to="#808080" begin="reset.mouseover" end="reset.mouseout"/>
                       </use>
               </g>
        </defs>

<script type="text/javascript">
var viewWidth = 527;
var viewHeight = 250;
var sectionId = 'dynsection-0';
</script>
<script xlink:href="../../svgpan.js"/>
<svg id="graph" class="graph">
<g id="viewport">
<title>G</title>
<polygon fill="white" stroke="white" points="-4,5 -4,-246 524,-246 524,5 -4,5"/>
<!-- Node1 -->
<g id="node1" class="node"><title>Node1</title>
<polygon fill="#bfbfbf" stroke="black" points="184,-0.5 184,-21.5 234,-21.5 234,-0.5 184,-0.5"/>
<text text-anchor="middle" x="209" y="-8.5" font-family="Helvetica,sans-Serif" font-size="10.00">unixFile</text>
</g>
<!-- Node2 -->
<g id="node2" class="node"><title>Node2</title>
<a xlink:href="../../d3/d36/structsqlite3__vfs.html" target="_top" xlink:title="sqlite3_vfs">
<polygon fill="white" stroke="black" points="0,-74.5 0,-95.5 64,-95.5 64,-74.5 0,-74.5"/>
<text text-anchor="middle" x="32" y="-82.5" font-family="Helvetica,sans-Serif" font-size="10.00">sqlite3_vfs</text>
</a>
</g>
<!-- Node2&#45;&gt;Node1 -->
<g id="edge2" class="edge"><title>Node2&#45;&gt;Node1</title>
<path fill="none" stroke="#9a32cd" stroke-dasharray="5,2" d="M54.2081,-68.2124C67.4971,-58.8228 85.0501,-47.5288 102,-40 128.736,-28.1244 161.445,-20.1274 183.608,-15.5899"/>
<polygon fill="#9a32cd" stroke="#9a32cd" points="51.795,-65.6386 45.7492,-74.3391 55.9011,-71.3078 51.795,-65.6386"/>
<text text-anchor="middle" x="114" y="-44.5" font-family="Helvetica,sans-Serif" font-size="10.00"> pVfs</text>
</g>
<!-- Node2&#45;&gt;Node2 -->
<g id="edge4" class="edge"><title>Node2&#45;&gt;Node2</title>
<path fill="none" stroke="#9a32cd" stroke-dasharray="5,2" d="M74.2224,-91.016C78.9451,-89.8813 82,-87.876 82,-85 82,-80.3984 74.1794,-78.0258 64.2203,-77.882"/>
<polygon fill="#9a32cd" stroke="#9a32cd" points="73.7768,-87.5438 64.2203,-92.118 74.5435,-94.5017 73.7768,-87.5438"/>
<text text-anchor="middle" x="97" y="-82.5" font-family="Helvetica,sans-Serif" font-size="10.00"> pNext</text>
</g>
<!-- Node3 -->
<g id="node5" class="node"><title>Node3</title>
<a xlink:href="../../d6/d7e/structunix_shm.html" target="_top" xlink:title="unixShm">
<polygon fill="white" stroke="black" points="298.5,-220.5 298.5,-241.5 353.5,-241.5 353.5,-220.5 298.5,-220.5"/>
<text text-anchor="middle" x="326" y="-228.5" font-family="Helvetica,sans-Serif" font-size="10.00">unixShm</text>
</a>
</g>
<!-- Node3&#45;&gt;Node1 -->
<g id="edge6" class="edge"><title>Node3&#45;&gt;Node1</title>
<path fill="none" stroke="#9a32cd" stroke-dasharray="5,2" d="M288.486,-222.564C244.069,-211.726 174.181,-191.707 159,-170 125.003,-121.388 177.517,-48.6723 199.79,-21.629"/>
<polygon fill="#9a32cd" stroke="#9a32cd" points="287.825,-226.004 298.365,-224.926 289.453,-219.196 287.825,-226.004"/>
<text text-anchor="middle" x="164.5" y="-120.5" font-family="Helvetica,sans-Serif" font-size="10.00"> pShm</text>
</g>
<!-- Node3&#45;&gt;Node3 -->
<g id="edge8" class="edge"><title>Node3&#45;&gt;Node3</title>
<path fill="none" stroke="#9a32cd" stroke-dasharray="5,2" d="M363.715,-236.77C368.127,-235.708 371,-233.785 371,-231 371,-226.43 363.264,-224.18 353.684,-224.252"/>
<polygon fill="#9a32cd" stroke="#9a32cd" points="363.297,-233.294 353.684,-237.748 363.977,-240.261 363.297,-233.294"/>
<text text-anchor="middle" x="386" y="-228.5" font-family="Helvetica,sans-Serif" font-size="10.00"> pNext</text>
</g>
<!-- Node4 -->
<g id="node8" class="node"><title>Node4</title>
<a xlink:href="../../d4/db1/structunix_shm_node.html" target="_top" xlink:title="unixShmNode">
<polygon fill="white" stroke="black" points="392,-148.5 392,-169.5 470,-169.5 470,-148.5 392,-148.5"/>
<text text-anchor="middle" x="431" y="-156.5" font-family="Helvetica,sans-Serif" font-size="10.00">unixShmNode</text>
</a>
</g>
<!-- Node3&#45;&gt;Node4 -->
<g id="edge14" class="edge"><title>Node3&#45;&gt;Node4</title>
<path fill="none" stroke="#9a32cd" stroke-dasharray="5,2" d="M359.239,-215.921C367.254,-211.793 375.626,-207.051 383,-202 397.03,-192.39 411.321,-179.032 420.617,-169.766"/>
<polygon fill="#9a32cd" stroke="#9a32cd" points="357.48,-212.886 350.078,-220.466 360.591,-219.157 357.48,-212.886"/>
<text text-anchor="middle" x="413" y="-192.5" font-family="Helvetica,sans-Serif" font-size="10.00"> pFirst</text>
</g>
<!-- Node4&#45;&gt;Node3 -->
<g id="edge10" class="edge"><title>Node4&#45;&gt;Node3</title>
<path fill="none" stroke="#9a32cd" stroke-dasharray="5,2" d="M381.932,-170.667C358.456,-176.707 334.639,-183.698 331,-188 323.525,-196.836 323.234,-210.602 324.189,-220.169"/>
<polygon fill="#9a32cd" stroke="#9a32cd" points="383.073,-173.989 391.912,-168.147 381.36,-167.202 383.073,-173.989"/>
<text text-anchor="middle" x="357" y="-192.5" font-family="Helvetica,sans-Serif" font-size="10.00"> pShmNode</text>
</g>
<!-- Node6 -->
<g id="node13" class="node"><title>Node6</title>
<a xlink:href="../../d0/d86/structunix_inode_info.html" target="_top" xlink:title="unixInodeInfo">
<polygon fill="white" stroke="black" points="279.5,-74.5 279.5,-95.5 354.5,-95.5 354.5,-74.5 279.5,-74.5"/>
<text text-anchor="middle" x="317" y="-82.5" font-family="Helvetica,sans-Serif" font-size="10.00">unixInodeInfo</text>
</a>
</g>
<!-- Node4&#45;&gt;Node6 -->
<g id="edge26" class="edge"><title>Node4&#45;&gt;Node6</title>
<path fill="none" stroke="#9a32cd" stroke-dasharray="5,2" d="M424.483,-138.803C421.002,-130.759 415.967,-122.006 409,-116 393.809,-102.904 372.861,-95.2849 354.791,-90.8804"/>
<polygon fill="#9a32cd" stroke="#9a32cd" points="421.281,-140.233 428.087,-148.352 427.83,-137.76 421.281,-140.233"/>
<text text-anchor="middle" x="445" y="-120.5" font-family="Helvetica,sans-Serif" font-size="10.00"> pShmNode</text>
</g>
<!-- Node5 -->
<g id="node10" class="node"><title>Node5</title>
<a xlink:href="../../d5/d3c/structsqlite3__mutex.html" target="_top" xlink:title="sqlite3_mutex">
<polygon fill="white" stroke="black" points="418.5,-220.5 418.5,-241.5 495.5,-241.5 495.5,-220.5 418.5,-220.5"/>
<text text-anchor="middle" x="457" y="-228.5" font-family="Helvetica,sans-Serif" font-size="10.00">sqlite3_mutex</text>
</a>
</g>
<!-- Node5&#45;&gt;Node4 -->
<g id="edge12" class="edge"><title>Node5&#45;&gt;Node4</title>
<path fill="none" stroke="#9a32cd" stroke-dasharray="5,2" d="M449.645,-210.632C444.831,-197.303 438.737,-180.425 434.852,-169.667"/>
<polygon fill="#9a32cd" stroke="#9a32cd" points="446.475,-212.159 453.164,-220.376 453.059,-209.782 446.475,-212.159"/>
<text text-anchor="middle" x="461.5" y="-192.5" font-family="Helvetica,sans-Serif" font-size="10.00"> mutex</text>
</g>
<!-- Node6&#45;&gt;Node1 -->
<g id="edge30" class="edge"><title>Node6&#45;&gt;Node1</title>
<path fill="none" stroke="#9a32cd" stroke-dasharray="5,2" d="M293.161,-68.6659C272.229,-54.3238 242.397,-33.883 224.445,-21.5827"/>
<polygon fill="#9a32cd" stroke="#9a32cd" points="291.299,-71.6325 301.526,-74.3976 295.255,-65.858 291.299,-71.6325"/>
<text text-anchor="middle" x="286.5" y="-44.5" font-family="Helvetica,sans-Serif" font-size="10.00"> pInode</text>
</g>
<!-- Node6&#45;&gt;Node4 -->
<g id="edge16" class="edge"><title>Node6&#45;&gt;Node4</title>
<path fill="none" stroke="#9a32cd" stroke-dasharray="5,2" d="M337.491,-101.972C348.569,-110.798 362.677,-121.49 376,-130 386.462,-136.682 398.623,-143.213 408.846,-148.38"/>
<polygon fill="#9a32cd" stroke="#9a32cd" points="339.65,-99.2168 329.673,-95.6528 335.25,-104.661 339.65,-99.2168"/>
<text text-anchor="middle" x="392.5" y="-120.5" font-family="Helvetica,sans-Serif" font-size="10.00"> pInode</text>
</g>
<!-- Node6&#45;&gt;Node6 -->
<g id="edge22" class="edge"><title>Node6&#45;&gt;Node6</title>
<path fill="none" stroke="#9a32cd" stroke-dasharray="5,2" d="M364.771,-90.6966C369.204,-89.522 372,-87.6232 372,-85 372,-80.6953 364.472,-78.3412 354.532,-77.9376"/>
<polygon fill="#9a32cd" stroke="#9a32cd" points="363.981,-87.2709 354.532,-92.0624 364.907,-94.2094 363.981,-87.2709"/>
<text text-anchor="middle" x="386.5" y="-89" font-family="Helvetica,sans-Serif" font-size="10.00"> pPrev</text>
<text text-anchor="middle" x="386.5" y="-76" font-family="Helvetica,sans-Serif" font-size="10.00">pNext</text>
</g>
<!-- Node7 -->
<g id="node15" class="node"><title>Node7</title>
<a xlink:href="../../dd/d77/struct_unix_unused_fd.html" target="_top" xlink:title="UnixUnusedFd">
<polygon fill="white" stroke="black" points="168,-148.5 168,-169.5 250,-169.5 250,-148.5 168,-148.5"/>
<text text-anchor="middle" x="209" y="-156.5" font-family="Helvetica,sans-Serif" font-size="10.00">UnixUnusedFd</text>
</a>
</g>
<!-- Node7&#45;&gt;Node1 -->
<g id="edge28" class="edge"><title>Node7&#45;&gt;Node1</title>
<path fill="none" stroke="#9a32cd" stroke-dasharray="5,2" d="M209,-138.32C209,-106.3 209,-45.8794 209,-21.5474"/>
<polygon fill="#9a32cd" stroke="#9a32cd" points="205.5,-138.356 209,-148.356 212.5,-138.356 205.5,-138.356"/>
<text text-anchor="middle" x="230.5" y="-82.5" font-family="Helvetica,sans-Serif" font-size="10.00"> pUnused</text>
</g>
<!-- Node7&#45;&gt;Node6 -->
<g id="edge18" class="edge"><title>Node7&#45;&gt;Node6</title>
<path fill="none" stroke="#9a32cd" stroke-dasharray="5,2" d="M232.839,-142.666C253.771,-128.324 283.603,-107.883 301.555,-95.5827"/>
<polygon fill="#9a32cd" stroke="#9a32cd" points="230.745,-139.858 224.474,-148.398 234.701,-145.633 230.745,-139.858"/>
<text text-anchor="middle" x="291.5" y="-120.5" font-family="Helvetica,sans-Serif" font-size="10.00"> pUnused</text>
</g>
<!-- Node7&#45;&gt;Node7 -->
<g id="edge20" class="edge"><title>Node7&#45;&gt;Node7</title>
<path fill="none" stroke="#9a32cd" stroke-dasharray="5,2" d="M260.258,-164.394C265.006,-163.281 268,-161.483 268,-159 268,-155.027 260.336,-152.808 250.083,-152.343"/>
<polygon fill="#9a32cd" stroke="#9a32cd" points="259.576,-160.952 250.083,-165.657 260.438,-167.898 259.576,-160.952"/>
<text text-anchor="middle" x="283" y="-156.5" font-family="Helvetica,sans-Serif" font-size="10.00"> pNext</text>
</g>
<!-- Node8 -->
<g id="node19" class="node"><title>Node8</title>
<a xlink:href="../../d2/d56/structunix_file_id.html" target="_top" xlink:title="unixFileId">
<polygon fill="white" stroke="black" points="315.5,-148.5 315.5,-169.5 374.5,-169.5 374.5,-148.5 315.5,-148.5"/>
<text text-anchor="middle" x="345" y="-156.5" font-family="Helvetica,sans-Serif" font-size="10.00">unixFileId</text>
</a>
</g>
<!-- Node8&#45;&gt;Node6 -->
<g id="edge24" class="edge"><title>Node8&#45;&gt;Node6</title>
<path fill="none" stroke="#9a32cd" stroke-dasharray="5,2" d="M332.59,-139.58C330.893,-136.452 329.293,-133.191 328,-130 323.409,-118.67 320.392,-104.93 318.698,-95.6364"/>
<polygon fill="#9a32cd" stroke="#9a32cd" points="329.673,-141.524 337.76,-148.368 335.706,-137.975 329.673,-141.524"/>
<text text-anchor="middle" x="340.5" y="-120.5" font-family="Helvetica,sans-Serif" font-size="10.00"> fileId</text>
</g>
<!-- Node9 -->
<g id="node24" class="node"><title>Node9</title>
<a xlink:href="../../d9/df3/structsqlite3__io__methods.html" target="_top" xlink:title="sqlite3_io_methods">
<polygon fill="white" stroke="black" points="418.5,-74.5 418.5,-95.5 519.5,-95.5 519.5,-74.5 418.5,-74.5"/>
<text text-anchor="middle" x="469" y="-82.5" font-family="Helvetica,sans-Serif" font-size="10.00">sqlite3_io_methods</text>
</a>
</g>
<!-- Node9&#45;&gt;Node1 -->
<g id="edge32" class="edge"><title>Node9&#45;&gt;Node1</title>
<path fill="none" stroke="#9a32cd" stroke-dasharray="5,2" d="M422.147,-71.665C367.004,-55.9705 277.47,-30.4875 234.113,-18.1475"/>
<polygon fill="#9a32cd" stroke="#9a32cd" points="421.448,-75.105 432.024,-74.4762 423.365,-68.3724 421.448,-75.105"/>
<text text-anchor="middle" x="374.5" y="-44.5" font-family="Helvetica,sans-Serif" font-size="10.00"> pMethod</text>
</g>
</g>
</svg>
        <g id="navigator" transform="translate(0 0)" fill="#404254">
                <rect fill="#f2f5e9" fill-opacity="0.5" stroke="#606060" stroke-width=".5" x="0" y="0" width="60" height="60"/>
                <use id="zoomplus" xlink:href="#zoomPlus" x="17" y="9" onmousedown="handleZoom(evt,'in')"/>
                <use id="zoomminus" xlink:href="#zoomMin" x="42" y="9" onmousedown="handleZoom(evt,'out')"/>
                <use id="reset" xlink:href="#resetDef" x="30" y="36" onmousedown="handleReset()"/>
                <g id="arrowUp" xlink:href="#dirArrow" transform="translate(30 24)" onmousedown="handlePan(0,-1)">
                  <use xlink:href="#rim" fill="#404040">
                        <set attributeName="fill" to="#808080" begin="arrowUp.mouseover" end="arrowUp.mouseout"/>
                  </use>
                  <path fill="none" stroke="white" stroke-width="1.5" d="M0,-3.0v7 M-2.5,-0.5L0,-3.0L2.5,-0.5"/>
                </g>
                <g id="arrowRight" xlink:href="#dirArrow" transform="rotate(90) translate(36 -43)" onmousedown="handlePan(1,0)">
                  <use xlink:href="#rim" fill="#404040">
                        <set attributeName="fill" to="#808080" begin="arrowRight.mouseover" end="arrowRight.mouseout"/>
                  </use>
                  <path fill="none" stroke="white" stroke-width="1.5" d="M0,-3.0v7 M-2.5,-0.5L0,-3.0L2.5,-0.5"/>
                </g>
                <g id="arrowDown" xlink:href="#dirArrow" transform="rotate(180) translate(-30 -48)" onmousedown="handlePan(0,1)">
                  <use xlink:href="#rim" fill="#404040">
                        <set attributeName="fill" to="#808080" begin="arrowDown.mouseover" end="arrowDown.mouseout"/>
                  </use>
                  <path fill="none" stroke="white" stroke-width="1.5" d="M0,-3.0v7 M-2.5,-0.5L0,-3.0L2.5,-0.5"/>
                </g>
                <g id="arrowLeft" xlink:href="#dirArrow" transform="rotate(270) translate(-36 17)" onmousedown="handlePan(-1,0)">
                  <use xlink:href="#rim" fill="#404040">
                        <set attributeName="fill" to="#808080" begin="arrowLeft.mouseover" end="arrowLeft.mouseout"/>
                  </use>
                  <path fill="none" stroke="white" stroke-width="1.5" d="M0,-3.0v7 M-2.5,-0.5L0,-3.0L2.5,-0.5"/>
                </g>
        </g>
</svg>
