<?xml version="1.0" encoding="UTF-8" standalone="no"?>
<!DOCTYPE svg PUBLIC "-//W3C//DTD SVG 1.1//EN"
 "http://www.w3.org/Graphics/SVG/1.1/DTD/svg11.dtd">
<!-- Generated by graphviz version 2.26.3 (20100126.1600)
 -->
<!-- Title: G Pages: 1 -->
<svg width="220pt" height="88pt"
 viewBox="0.00 0.00 220.00 88.00" xmlns="http://www.w3.org/2000/svg" xmlns:xlink="http://www.w3.org/1999/xlink">
<g id="graph1" class="graph" transform="scale(1 1) rotate(0) translate(4 84)">
<title>G</title>
<polygon fill="white" stroke="white" points="-4,5 -4,-84 217,-84 217,5 -4,5"/>
<!-- Node1 -->
<g id="node1" class="node"><title>Node1</title>
<polygon fill="#bfbfbf" stroke="black" points="63,-58.5 63,-79.5 155,-79.5 155,-58.5 63,-58.5"/>
<text text-anchor="middle" x="109" y="-66.5" font-family="Helvetica,sans-Serif" font-size="10.00">src/api/ioformat.h</text>
</g>
<!-- Node2 -->
<g id="node3" class="node"><title>Node2</title>
<polygon fill="white" stroke="#bfbfbf" points="0,-0.5 0,-21.5 44,-21.5 44,-0.5 0,-0.5"/>
<text text-anchor="middle" x="22" y="-8.5" font-family="Helvetica,sans-Serif" font-size="10.00">vector</text>
</g>
<!-- Node1&#45;&gt;Node2 -->
<g id="edge2" class="edge"><title>Node1&#45;&gt;Node2</title>
<path fill="none" stroke="midnightblue" d="M93.0429,-58.3619C80.0433,-49.6955 61.4688,-37.3126 46.5728,-27.3819"/>
<polygon fill="midnightblue" stroke="midnightblue" points="48.118,-24.2055 37.856,-21.5707 44.235,-30.0299 48.118,-24.2055"/>
</g>
<!-- Node3 -->
<g id="node5" class="node"><title>Node3</title>
<polygon fill="white" stroke="#bfbfbf" points="61.5,-0.5 61.5,-21.5 102.5,-21.5 102.5,-0.5 61.5,-0.5"/>
<text text-anchor="middle" x="82" y="-8.5" font-family="Helvetica,sans-Serif" font-size="10.00">string</text>
</g>
<!-- Node1&#45;&gt;Node3 -->
<g id="edge4" class="edge"><title>Node1&#45;&gt;Node3</title>
<path fill="none" stroke="midnightblue" d="M104.048,-58.3619C100.47,-50.6766 95.5319,-40.0686 91.2358,-30.8399"/>
<polygon fill="midnightblue" stroke="midnightblue" points="94.3142,-29.1594 86.9208,-21.5707 87.9681,-32.1136 94.3142,-29.1594"/>
</g>
<!-- Node4 -->
<g id="node7" class="node"><title>Node4</title>
<polygon fill="white" stroke="#bfbfbf" points="119.5,-0.5 119.5,-21.5 154.5,-21.5 154.5,-0.5 119.5,-0.5"/>
<text text-anchor="middle" x="137" y="-8.5" font-family="Helvetica,sans-Serif" font-size="10.00">map</text>
</g>
<!-- Node1&#45;&gt;Node4 -->
<g id="edge6" class="edge"><title>Node1&#45;&gt;Node4</title>
<path fill="none" stroke="midnightblue" d="M114.136,-58.3619C117.846,-50.6766 122.967,-40.0686 127.422,-30.8399"/>
<polygon fill="midnightblue" stroke="midnightblue" points="130.701,-32.0978 131.897,-21.5707 124.397,-29.0545 130.701,-32.0978"/>
</g>
<!-- Node5 -->
<g id="node9" class="node"><title>Node5</title>
<polygon fill="white" stroke="#bfbfbf" points="172,-0.5 172,-21.5 212,-21.5 212,-0.5 172,-0.5"/>
<text text-anchor="middle" x="192" y="-8.5" font-family="Helvetica,sans-Serif" font-size="10.00">utility</text>
</g>
<!-- Node1&#45;&gt;Node5 -->
<g id="edge8" class="edge"><title>Node1&#45;&gt;Node5</title>
<path fill="none" stroke="midnightblue" d="M124.223,-58.3619C136.625,-49.6955 154.346,-37.3126 168.557,-27.3819"/>
<polygon fill="midnightblue" stroke="midnightblue" points="170.681,-30.1676 176.873,-21.5707 166.671,-24.4297 170.681,-30.1676"/>
</g>
</g>
</svg>
