<?xml version="1.0" encoding="UTF-8" standalone="no"?>
<!DOCTYPE svg PUBLIC "-//W3C//DTD SVG 1.1//EN"
 "http://www.w3.org/Graphics/SVG/1.1/DTD/svg11.dtd">
<!-- Generated by graphviz version 2.26.3 (20100126.1600)
 -->
<!-- Title: G Pages: 1 -->
<svg width="108pt" height="174pt"
 viewBox="0.00 0.00 108.00 174.00" xmlns="http://www.w3.org/2000/svg" xmlns:xlink="http://www.w3.org/1999/xlink">
<g id="graph1" class="graph" transform="scale(1 1) rotate(0) translate(4 170)">
<title>G</title>
<polygon fill="white" stroke="white" points="-4,5 -4,-170 105,-170 105,5 -4,5"/>
<!-- Node1 -->
<g id="node1" class="node"><title>Node1</title>
<polygon fill="#bfbfbf" stroke="black" points="10,-0.5 10,-21.5 90,-21.5 90,-0.5 10,-0.5"/>
<text text-anchor="middle" x="50" y="-8.5" font-family="Helvetica,sans-Serif" font-size="10.00">VdbeSorterIter</text>
</g>
<!-- Node2 -->
<g id="node2" class="node"><title>Node2</title>
<a xlink:href="../../db/db0/structsqlite3__file.html" target="_top" xlink:title="sqlite3_file">
<polygon fill="white" stroke="black" points="18.5,-72.5 18.5,-93.5 81.5,-93.5 81.5,-72.5 18.5,-72.5"/>
<text text-anchor="middle" x="50" y="-80.5" font-family="Helvetica,sans-Serif" font-size="10.00">sqlite3_file</text>
</a>
</g>
<!-- Node2&#45;&gt;Node1 -->
<g id="edge2" class="edge"><title>Node2&#45;&gt;Node1</title>
<path fill="none" stroke="#9a32cd" stroke-dasharray="5,2" d="M50,-62.2348C50,-48.969 50,-32.3188 50,-21.6674"/>
<polygon fill="#9a32cd" stroke="#9a32cd" points="46.5001,-62.3761 50,-72.3762 53.5001,-62.3762 46.5001,-62.3761"/>
<text text-anchor="middle" x="62.5" y="-44.5" font-family="Helvetica,sans-Serif" font-size="10.00"> pFile</text>
</g>
<!-- Node3 -->
<g id="node4" class="node"><title>Node3</title>
<a xlink:href="../../d9/df3/structsqlite3__io__methods.html" target="_top" xlink:title="sqlite3_io_methods">
<polygon fill="white" stroke="black" points="-0.5,-144.5 -0.5,-165.5 100.5,-165.5 100.5,-144.5 -0.5,-144.5"/>
<text text-anchor="middle" x="50" y="-152.5" font-family="Helvetica,sans-Serif" font-size="10.00">sqlite3_io_methods</text>
</a>
</g>
<!-- Node3&#45;&gt;Node2 -->
<g id="edge4" class="edge"><title>Node3&#45;&gt;Node2</title>
<path fill="none" stroke="#9a32cd" stroke-dasharray="5,2" d="M50,-134.235C50,-120.969 50,-104.319 50,-93.6674"/>
<polygon fill="#9a32cd" stroke="#9a32cd" points="46.5001,-134.376 50,-144.376 53.5001,-134.376 46.5001,-134.376"/>
<text text-anchor="middle" x="73" y="-116.5" font-family="Helvetica,sans-Serif" font-size="10.00"> pMethods</text>
</g>
</g>
</svg>
