<?xml version="1.0" encoding="UTF-8" standalone="no"?>
<!DOCTYPE svg PUBLIC "-//W3C//DTD SVG 1.1//EN"
 "http://www.w3.org/Graphics/SVG/1.1/DTD/svg11.dtd">
<!-- Generated by graphviz version 2.26.3 (20100126.1600)
 -->
<!-- Title: G Pages: 1 -->
<svg width="225pt" height="136pt"
 viewBox="0.00 0.00 225.00 136.00" xmlns="http://www.w3.org/2000/svg" xmlns:xlink="http://www.w3.org/1999/xlink">
<g id="graph1" class="graph" transform="scale(1 1) rotate(0) translate(4 132)">
<title>G</title>
<polygon fill="white" stroke="white" points="-4,5 -4,-132 222,-132 222,5 -4,5"/>
<!-- Node1 -->
<g id="node1" class="node"><title>Node1</title>
<polygon fill="#bfbfbf" stroke="black" points="6.5,-15.5 6.5,-36.5 119.5,-36.5 119.5,-15.5 6.5,-15.5"/>
<text text-anchor="middle" x="63" y="-23.5" font-family="Helvetica,sans-Serif" font-size="10.00">pugi::xml_node_struct</text>
</g>
<!-- Node1&#45;&gt;Node1 -->
<g id="edge6" class="edge"><title>Node1&#45;&gt;Node1</title>
<path fill="none" stroke="#9a32cd" stroke-dasharray="5,2" d="M129.683,-32.7775C134.233,-31.2194 137,-28.9602 137,-26 137,-21.2637 129.917,-18.322 119.777,-17.1749"/>
<polygon fill="#9a32cd" stroke="#9a32cd" points="128.862,-29.3732 119.777,-34.8251 130.279,-36.2283 128.862,-29.3732"/>
<text text-anchor="middle" x="168.5" y="-43" font-family="Helvetica,sans-Serif" font-size="10.00"> first_child</text>
<text text-anchor="middle" x="168.5" y="-30" font-family="Helvetica,sans-Serif" font-size="10.00">next_sibling</text>
<text text-anchor="middle" x="168.5" y="-17" font-family="Helvetica,sans-Serif" font-size="10.00">parent</text>
<text text-anchor="middle" x="168.5" y="-4" font-family="Helvetica,sans-Serif" font-size="10.00">prev_sibling_c</text>
</g>
<!-- Node2 -->
<g id="node2" class="node"><title>Node2</title>
<a xlink:href="../../df/da1/structpugi_1_1xml__attribute__struct.html" target="_top" xlink:title="A &#39;name=value&#39; XML attribute structure.">
<polygon fill="white" stroke="black" points="-0.5,-104.5 -0.5,-125.5 126.5,-125.5 126.5,-104.5 -0.5,-104.5"/>
<text text-anchor="middle" x="63" y="-112.5" font-family="Helvetica,sans-Serif" font-size="10.00">pugi::xml_attribute_struct</text>
</a>
</g>
<!-- Node2&#45;&gt;Node1 -->
<g id="edge2" class="edge"><title>Node2&#45;&gt;Node1</title>
<path fill="none" stroke="#9a32cd" stroke-dasharray="5,2" d="M63,-94.3129C63,-76.2343 63,-50.7227 63,-36.5452"/>
<polygon fill="#9a32cd" stroke="#9a32cd" points="59.5001,-94.441 63,-104.441 66.5001,-94.4411 59.5001,-94.441"/>
<text text-anchor="middle" x="93.5" y="-74.5" font-family="Helvetica,sans-Serif" font-size="10.00"> first_attribute</text>
</g>
<!-- Node2&#45;&gt;Node2 -->
<g id="edge4" class="edge"><title>Node2&#45;&gt;Node2</title>
<path fill="none" stroke="#9a32cd" stroke-dasharray="5,2" d="M136.597,-120.002C141.216,-118.824 144,-117.157 144,-115 144,-111.549 136.873,-109.351 126.504,-108.408"/>
<polygon fill="#9a32cd" stroke="#9a32cd" points="135.837,-116.578 126.504,-121.592 136.927,-123.493 135.837,-116.578"/>
<text text-anchor="middle" x="180.5" y="-119" font-family="Helvetica,sans-Serif" font-size="10.00"> prev_attribute_c</text>
<text text-anchor="middle" x="180.5" y="-106" font-family="Helvetica,sans-Serif" font-size="10.00">next_attribute</text>
</g>
</g>
</svg>
