<?xml version="1.0" encoding="UTF-8" standalone="no"?>
<!DOCTYPE svg PUBLIC "-//W3C//DTD SVG 1.1//EN"
 "http://www.w3.org/Graphics/SVG/1.1/DTD/svg11.dtd">
<!-- Generated by graphviz version 2.26.3 (20100126.1600)
 -->
<!-- Title: G Pages: 1 -->
<svg width="380pt" height="88pt"
 viewBox="0.00 0.00 380.00 88.00" xmlns="http://www.w3.org/2000/svg" xmlns:xlink="http://www.w3.org/1999/xlink">
<g id="graph1" class="graph" transform="scale(1 1) rotate(0) translate(4 84)">
<title>G</title>
<polygon fill="white" stroke="white" points="-4,5 -4,-84 377,-84 377,5 -4,5"/>
<!-- Node1 -->
<g id="node1" class="node"><title>Node1</title>
<polygon fill="#bfbfbf" stroke="black" points="115.5,-58.5 115.5,-79.5 230.5,-79.5 230.5,-58.5 115.5,-58.5"/>
<text text-anchor="middle" x="173" y="-66.5" font-family="Helvetica,sans-Serif" font-size="10.00">src/db/sqlite3/sqlite3.h</text>
</g>
<!-- Node2 -->
<g id="node3" class="node"><title>Node2</title>
<a xlink:href="../../d2/d50/ioformat_8cpp.html" target="_top" xlink:title="src/api/ioformat.cpp">
<polygon fill="white" stroke="black" points="-0.5,-0.5 -0.5,-21.5 102.5,-21.5 102.5,-0.5 -0.5,-0.5"/>
<text text-anchor="middle" x="51" y="-8.5" font-family="Helvetica,sans-Serif" font-size="10.00">src/api/ioformat.cpp</text>
</a>
</g>
<!-- Node1&#45;&gt;Node2 -->
<g id="edge2" class="edge"><title>Node1&#45;&gt;Node2</title>
<path fill="none" stroke="midnightblue" d="M141.594,-54.0693C120.229,-43.9121 92.471,-30.7157 73.3412,-21.6212"/>
<polygon fill="midnightblue" stroke="midnightblue" points="140.373,-57.364 150.907,-58.4966 143.378,-51.042 140.373,-57.364"/>
</g>
<!-- Node3 -->
<g id="node5" class="node"><title>Node3</title>
<a xlink:href="../../d6/d4f/shell_8c.html" target="_top" xlink:title="src/db/sqlite3/shell.c">
<polygon fill="white" stroke="black" points="119.5,-0.5 119.5,-21.5 226.5,-21.5 226.5,-0.5 119.5,-0.5"/>
<text text-anchor="middle" x="173" y="-8.5" font-family="Helvetica,sans-Serif" font-size="10.00">src/db/sqlite3/shell.c</text>
</a>
</g>
<!-- Node1&#45;&gt;Node3 -->
<g id="edge4" class="edge"><title>Node1&#45;&gt;Node3</title>
<path fill="none" stroke="midnightblue" d="M173,-48.1906C173,-39.1684 173,-28.9941 173,-21.5707"/>
<polygon fill="midnightblue" stroke="midnightblue" points="169.5,-48.3619 173,-58.3619 176.5,-48.3619 169.5,-48.3619"/>
</g>
<!-- Node4 -->
<g id="node7" class="node"><title>Node4</title>
<a xlink:href="../../d1/db0/sqlite3ext_8h.html" target="_top" xlink:title="src/db/sqlite3/sqlite3ext.h">
<polygon fill="white" stroke="black" points="244,-0.5 244,-21.5 372,-21.5 372,-0.5 244,-0.5"/>
<text text-anchor="middle" x="308" y="-8.5" font-family="Helvetica,sans-Serif" font-size="10.00">src/db/sqlite3/sqlite3ext.h</text>
</a>
</g>
<!-- Node1&#45;&gt;Node4 -->
<g id="edge6" class="edge"><title>Node1&#45;&gt;Node4</title>
<path fill="none" stroke="midnightblue" d="M206.798,-54.4794C230.562,-44.2695 261.824,-30.8386 283.278,-21.6212"/>
<polygon fill="midnightblue" stroke="midnightblue" points="205.254,-51.3334 197.447,-58.4966 208.017,-57.7649 205.254,-51.3334"/>
</g>
</g>
</svg>
