<?xml version="1.0" encoding="UTF-8" standalone="no"?>
<!DOCTYPE svg PUBLIC "-//W3C//DTD SVG 1.1//EN"
 "http://www.w3.org/Graphics/SVG/1.1/DTD/svg11.dtd">
<!-- Generated by graphviz version 2.26.3 (20100126.1600)
 -->
<!-- Title: G Pages: 1 -->
<svg width="313pt" height="258pt"
 viewBox="0.00 0.00 313.00 258.00" xmlns="http://www.w3.org/2000/svg" xmlns:xlink="http://www.w3.org/1999/xlink">
<g id="graph1" class="graph" transform="scale(1 1) rotate(0) translate(4 254)">
<title>G</title>
<polygon fill="white" stroke="white" points="-4,5 -4,-254 310,-254 310,5 -4,5"/>
<!-- Node1 -->
<g id="node1" class="node"><title>Node1</title>
<polygon fill="#bfbfbf" stroke="black" points="193,-0.5 193,-21.5 253,-21.5 253,-0.5 193,-0.5"/>
<text text-anchor="middle" x="223" y="-8.5" font-family="Helvetica,sans-Serif" font-size="10.00">WalWriter</text>
</g>
<!-- Node2 -->
<g id="node2" class="node"><title>Node2</title>
<a xlink:href="../../db/db0/structsqlite3__file.html" target="_top" xlink:title="sqlite3_file">
<polygon fill="white" stroke="black" points="223.5,-156.5 223.5,-177.5 286.5,-177.5 286.5,-156.5 223.5,-156.5"/>
<text text-anchor="middle" x="255" y="-164.5" font-family="Helvetica,sans-Serif" font-size="10.00">sqlite3_file</text>
</a>
</g>
<!-- Node2&#45;&gt;Node1 -->
<g id="edge2" class="edge"><title>Node2&#45;&gt;Node1</title>
<path fill="none" stroke="#9a32cd" stroke-dasharray="5,2" d="M252.827,-146.038C249.9,-120.635 243.883,-76.6764 234,-40 232.319,-33.7608 229.797,-26.9988 227.592,-21.575"/>
<polygon fill="#9a32cd" stroke="#9a32cd" points="249.385,-146.754 253.958,-156.311 256.343,-145.988 249.385,-146.754"/>
<text text-anchor="middle" x="255" y="-80.5" font-family="Helvetica,sans-Serif" font-size="10.00"> pFd</text>
</g>
<!-- Node4 -->
<g id="node6" class="node"><title>Node4</title>
<a xlink:href="../../d6/d4d/struct_wal.html" target="_top" xlink:title="Wal">
<polygon fill="white" stroke="black" points="162,-72.5 162,-93.5 196,-93.5 196,-72.5 162,-72.5"/>
<text text-anchor="middle" x="179" y="-80.5" font-family="Helvetica,sans-Serif" font-size="10.00">Wal</text>
</a>
</g>
<!-- Node2&#45;&gt;Node4 -->
<g id="edge8" class="edge"><title>Node2&#45;&gt;Node4</title>
<path fill="none" stroke="#9a32cd" stroke-dasharray="5,2" d="M223.771,-151.013C218.103,-147.239 212.554,-142.873 208,-138 195.765,-124.908 187.203,-105.669 182.696,-93.7594"/>
<polygon fill="#9a32cd" stroke="#9a32cd" points="222.292,-154.212 232.649,-156.446 225.946,-148.241 222.292,-154.212"/>
<text text-anchor="middle" x="225" y="-129" font-family="Helvetica,sans-Serif" font-size="10.00"> pDbFd</text>
<text text-anchor="middle" x="225" y="-116" font-family="Helvetica,sans-Serif" font-size="10.00">pWalFd</text>
</g>
<!-- Node3 -->
<g id="node4" class="node"><title>Node3</title>
<a xlink:href="../../d9/df3/structsqlite3__io__methods.html" target="_top" xlink:title="sqlite3_io_methods">
<polygon fill="white" stroke="black" points="204.5,-228.5 204.5,-249.5 305.5,-249.5 305.5,-228.5 204.5,-228.5"/>
<text text-anchor="middle" x="255" y="-236.5" font-family="Helvetica,sans-Serif" font-size="10.00">sqlite3_io_methods</text>
</a>
</g>
<!-- Node3&#45;&gt;Node2 -->
<g id="edge4" class="edge"><title>Node3&#45;&gt;Node2</title>
<path fill="none" stroke="#9a32cd" stroke-dasharray="5,2" d="M255,-218.235C255,-204.969 255,-188.319 255,-177.667"/>
<polygon fill="#9a32cd" stroke="#9a32cd" points="251.5,-218.376 255,-228.376 258.5,-218.376 251.5,-218.376"/>
<text text-anchor="middle" x="278" y="-200.5" font-family="Helvetica,sans-Serif" font-size="10.00"> pMethods</text>
</g>
<!-- Node4&#45;&gt;Node1 -->
<g id="edge6" class="edge"><title>Node4&#45;&gt;Node1</title>
<path fill="none" stroke="#9a32cd" stroke-dasharray="5,2" d="M190.727,-63.8099C198.977,-50.3106 209.711,-32.7449 216.481,-21.6674"/>
<polygon fill="#9a32cd" stroke="#9a32cd" points="187.72,-62.0182 185.492,-72.3762 193.693,-65.6684 187.72,-62.0182"/>
<text text-anchor="middle" x="217" y="-44.5" font-family="Helvetica,sans-Serif" font-size="10.00"> pWal</text>
</g>
<!-- Node5 -->
<g id="node9" class="node"><title>Node5</title>
<a xlink:href="../../d3/d36/structsqlite3__vfs.html" target="_top" xlink:title="sqlite3_vfs">
<polygon fill="white" stroke="black" points="0,-156.5 0,-177.5 64,-177.5 64,-156.5 0,-156.5"/>
<text text-anchor="middle" x="32" y="-164.5" font-family="Helvetica,sans-Serif" font-size="10.00">sqlite3_vfs</text>
</a>
</g>
<!-- Node5&#45;&gt;Node4 -->
<g id="edge10" class="edge"><title>Node5&#45;&gt;Node4</title>
<path fill="none" stroke="#9a32cd" stroke-dasharray="5,2" d="M59.3428,-151.376C89.3859,-134.208 136.712,-107.164 161.899,-92.7719"/>
<polygon fill="#9a32cd" stroke="#9a32cd" points="57.5636,-148.361 50.6177,-156.361 61.0366,-154.439 57.5636,-148.361"/>
<text text-anchor="middle" x="139" y="-122.5" font-family="Helvetica,sans-Serif" font-size="10.00"> pVfs</text>
</g>
<!-- Node5&#45;&gt;Node5 -->
<g id="edge12" class="edge"><title>Node5&#45;&gt;Node5</title>
<path fill="none" stroke="#9a32cd" stroke-dasharray="5,2" d="M74.2224,-172.699C78.9451,-171.624 82,-169.725 82,-167 82,-162.641 74.1794,-160.393 64.2203,-160.257"/>
<polygon fill="#9a32cd" stroke="#9a32cd" points="73.8028,-169.224 64.2203,-173.743 74.5296,-176.186 73.8028,-169.224"/>
<text text-anchor="middle" x="97" y="-164.5" font-family="Helvetica,sans-Serif" font-size="10.00"> pNext</text>
</g>
<!-- Node6 -->
<g id="node12" class="node"><title>Node6</title>
<a xlink:href="../../d8/de9/struct_wal_index_hdr.html" target="_top" xlink:title="WalIndexHdr">
<polygon fill="white" stroke="black" points="130,-156.5 130,-177.5 204,-177.5 204,-156.5 130,-156.5"/>
<text text-anchor="middle" x="167" y="-164.5" font-family="Helvetica,sans-Serif" font-size="10.00">WalIndexHdr</text>
</a>
</g>
<!-- Node6&#45;&gt;Node4 -->
<g id="edge14" class="edge"><title>Node6&#45;&gt;Node4</title>
<path fill="none" stroke="#9a32cd" stroke-dasharray="5,2" d="M165.705,-146.184C165.483,-135.822 165.85,-123.157 168,-112 169.202,-105.761 171.633,-99.1119 173.905,-93.7566"/>
<polygon fill="#9a32cd" stroke="#9a32cd" points="162.215,-146.496 166.121,-156.344 169.209,-146.209 162.215,-146.496"/>
<text text-anchor="middle" x="176.5" y="-122.5" font-family="Helvetica,sans-Serif" font-size="10.00"> hdr</text>
</g>
</g>
</svg>
