<?xml version="1.0" encoding="UTF-8" standalone="no"?>
<!DOCTYPE svg PUBLIC "-//W3C//DTD SVG 1.1//EN"
 "http://www.w3.org/Graphics/SVG/1.1/DTD/svg11.dtd">
<!-- Generated by graphviz version 2.26.3 (20100126.1600)
 -->
<!-- Title: G Pages: 1 -->
<svg width="233pt" height="106pt"
 viewBox="0.00 0.00 233.00 106.00" xmlns="http://www.w3.org/2000/svg" xmlns:xlink="http://www.w3.org/1999/xlink">
<g id="graph1" class="graph" transform="scale(1 1) rotate(0) translate(4 102)">
<title>G</title>
<polygon fill="white" stroke="white" points="-4,5 -4,-102 230,-102 230,5 -4,5"/>
<!-- Node1 -->
<g id="node1" class="node"><title>Node1</title>
<polygon fill="#bfbfbf" stroke="black" points="-0.5,-2.5 -0.5,-23.5 64.5,-23.5 64.5,-2.5 -0.5,-2.5"/>
<text text-anchor="middle" x="32" y="-10.5" font-family="Helvetica,sans-Serif" font-size="10.00">xml_parser</text>
</g>
<!-- Node2 -->
<g id="node2" class="node"><title>Node2</title>
<a xlink:href="../../d3/dae/structxml__allocator.html" target="_top" xlink:title="xml_allocator">
<polygon fill="white" stroke="black" points="42,-76.5 42,-97.5 116,-97.5 116,-76.5 42,-76.5"/>
<text text-anchor="middle" x="79" y="-84.5" font-family="Helvetica,sans-Serif" font-size="10.00">xml_allocator</text>
</a>
</g>
<!-- Node2&#45;&gt;Node1 -->
<g id="edge2" class="edge"><title>Node2&#45;&gt;Node1</title>
<path fill="none" stroke="#9a32cd" stroke-dasharray="5,2" d="M44.3045,-70.7001C39.8009,-67.1405 35.7912,-62.929 33,-58 27.07,-47.5282 27.9127,-33.3708 29.5256,-23.7516"/>
<polygon fill="#9a32cd" stroke="#9a32cd" points="42.5395,-73.7313 52.7882,-76.4176 46.4517,-67.9265 42.5395,-73.7313"/>
<text text-anchor="middle" x="45" y="-48.5" font-family="Helvetica,sans-Serif" font-size="10.00"> alloc</text>
</g>
<!-- Node3 -->
<g id="node4" class="node"><title>Node3</title>
<a xlink:href="../../d7/dd1/structxml__memory__page.html" target="_top" xlink:title="xml_memory_page">
<polygon fill="white" stroke="black" points="86.5,-2.5 86.5,-23.5 185.5,-23.5 185.5,-2.5 86.5,-2.5"/>
<text text-anchor="middle" x="136" y="-10.5" font-family="Helvetica,sans-Serif" font-size="10.00">xml_memory_page</text>
</a>
</g>
<!-- Node2&#45;&gt;Node3 -->
<g id="edge8" class="edge"><title>Node2&#45;&gt;Node3</title>
<path fill="none" stroke="#9a32cd" stroke-dasharray="5,2" d="M72.7802,-66.4042C71.6921,-58.8802 71.979,-50.6034 76,-44 81.6101,-34.7868 90.937,-28.1919 100.585,-23.5233"/>
<polygon fill="#9a32cd" stroke="#9a32cd" points="69.3917,-67.2899 74.9879,-76.2863 76.2233,-65.7637 69.3917,-67.2899"/>
<text text-anchor="middle" x="96" y="-48.5" font-family="Helvetica,sans-Serif" font-size="10.00"> allocator</text>
</g>
<!-- Node3&#45;&gt;Node2 -->
<g id="edge4" class="edge"><title>Node3&#45;&gt;Node2</title>
<path fill="none" stroke="#9a32cd" stroke-dasharray="5,2" d="M131.595,-33.4675C129.133,-41.6589 125.431,-50.8314 120,-58 114.419,-65.3662 106.43,-71.6042 98.9847,-76.3855"/>
<polygon fill="#9a32cd" stroke="#9a32cd" points="135.053,-34.0725 134.159,-23.5155 128.275,-32.3259 135.053,-34.0725"/>
<text text-anchor="middle" x="139.5" y="-48.5" font-family="Helvetica,sans-Serif" font-size="10.00"> _root</text>
</g>
<!-- Node3&#45;&gt;Node3 -->
<g id="edge6" class="edge"><title>Node3&#45;&gt;Node3</title>
<path fill="none" stroke="#9a32cd" stroke-dasharray="5,2" d="M195.592,-18.3646C200.176,-17.1771 203,-15.3889 203,-13 203,-9.17773 195.769,-6.89333 185.672,-6.1468"/>
<polygon fill="#9a32cd" stroke="#9a32cd" points="195.042,-14.9079 185.672,-19.8532 196.081,-21.8304 195.042,-14.9079"/>
<text text-anchor="middle" x="214" y="-17" font-family="Helvetica,sans-Serif" font-size="10.00"> prev</text>
<text text-anchor="middle" x="214" y="-4" font-family="Helvetica,sans-Serif" font-size="10.00">next</text>
</g>
</g>
</svg>
