<?xml version="1.0" encoding="UTF-8" standalone="no"?>
<!DOCTYPE svg PUBLIC "-//W3C//DTD SVG 1.1//EN"
 "http://www.w3.org/Graphics/SVG/1.1/DTD/svg11.dtd">
<!-- Generated by graphviz version 2.26.3 (20100126.1600)
 -->
<!-- Title: G Pages: 1 -->
<!--zoomable 88 -->
<svg id="main" version="1.1" xmlns="http://www.w3.org/2000/svg" xmlns:xlink="http://www.w3.org/1999/xlink" xml:space="preserve" onload="init(evt)">
        <defs>
                <circle id="rim" cx="0" cy="0" r="7"/>
                <circle id="rim2" cx="0" cy="0" r="3.5"/>
                <g id="zoomPlus">
                        <use xlink:href="#rim" fill="#404040">
                                <set attributeName="fill" to="#808080" begin="zoomplus.mouseover" end="zoomplus.mouseout"/>
                        </use>
                        <path d="M-4,0h8M0,-4v8" fill="none" stroke="white" stroke-width="1.5" pointer-events="none"/>
                </g>
                <g id="zoomMin">
                        <use xlink:href="#rim" fill="#404040">
                                <set attributeName="fill" to="#808080" begin="zoomminus.mouseover" end="zoomminus.mouseout"/>
                        </use>
                        <path d="M-4,0h8" fill="none" stroke="white" stroke-width="1.5" pointer-events="none"/>
                </g>
                <g id="dirArrow">
                        <path fill="none" stroke="white" stroke-width="1.5" d="M0,-3.0v7 M-2.5,-0.5L0,-3.0L2.5,-0.5"/>
                </g>
               <g id="resetDef">
                       <use xlink:href="#rim2" fill="#404040">
                               <set attributeName="fill" to="#808080" begin="reset.mouseover" end="reset.mouseout"/>
                       </use>
               </g>
        </defs>

<script type="text/javascript">
var viewWidth = 2256;
var viewHeight = 88;
var sectionId = 'dynsection-0';
</script>
<script xlink:href="../../svgpan.js"/>
<svg id="graph" class="graph">
<g id="viewport">
<title>G</title>
<polygon fill="white" stroke="white" points="-4,5 -4,-84 2253,-84 2253,5 -4,5"/>
<!-- Node1 -->
<g id="node1" class="node"><title>Node1</title>
<polygon fill="#bfbfbf" stroke="black" points="1192.5,-58.5 1192.5,-79.5 1347.5,-79.5 1347.5,-58.5 1192.5,-58.5"/>
<text text-anchor="middle" x="1270" y="-66.5" font-family="Helvetica,sans-Serif" font-size="10.00">src/parsers/json/cpp&#45;json/json.h</text>
</g>
<!-- Node2 -->
<g id="node3" class="node"><title>Node2</title>
<polygon fill="white" stroke="#bfbfbf" points="0,-0.5 0,-21.5 92,-21.5 92,-0.5 0,-0.5"/>
<text text-anchor="middle" x="46" y="-8.5" font-family="Helvetica,sans-Serif" font-size="10.00">boost/cstdint.hpp</text>
</g>
<!-- Node1&#45;&gt;Node2 -->
<g id="edge2" class="edge"><title>Node1&#45;&gt;Node2</title>
<path fill="none" stroke="midnightblue" d="M1192.46,-67.4746C970.146,-62.8522 332.328,-47.7853 102.123,-21.9329"/>
<polygon fill="midnightblue" stroke="midnightblue" points="102.466,-18.4493 92.129,-20.7728 101.659,-25.4026 102.466,-18.4493"/>
</g>
<!-- Node3 -->
<g id="node5" class="node"><title>Node3</title>
<polygon fill="white" stroke="#bfbfbf" points="110,-0.5 110,-21.5 224,-21.5 224,-0.5 110,-0.5"/>
<text text-anchor="middle" x="167" y="-8.5" font-family="Helvetica,sans-Serif" font-size="10.00">boost/lexical_cast.hpp</text>
</g>
<!-- Node1&#45;&gt;Node3 -->
<g id="edge4" class="edge"><title>Node1&#45;&gt;Node3</title>
<path fill="none" stroke="midnightblue" d="M1192.46,-66.6929C988.198,-60.425 437.632,-42.2545 234.184,-21.9889"/>
<polygon fill="midnightblue" stroke="midnightblue" points="234.486,-18.5015 224.18,-20.9607 233.77,-25.4648 234.486,-18.5015"/>
</g>
<!-- Node4 -->
<g id="node7" class="node"><title>Node4</title>
<polygon fill="white" stroke="#bfbfbf" points="241.5,-0.5 241.5,-21.5 362.5,-21.5 362.5,-0.5 241.5,-0.5"/>
<text text-anchor="middle" x="302" y="-8.5" font-family="Helvetica,sans-Serif" font-size="10.00">boost/make_shared.hpp</text>
</g>
<!-- Node1&#45;&gt;Node4 -->
<g id="edge6" class="edge"><title>Node1&#45;&gt;Node4</title>
<path fill="none" stroke="midnightblue" d="M1192.22,-67.7028C1037.8,-64.5231 681.455,-54.175 372.579,-22.0752"/>
<polygon fill="midnightblue" stroke="midnightblue" points="372.844,-18.5839 362.534,-21.0218 372.114,-25.5458 372.844,-18.5839"/>
</g>
<!-- Node5 -->
<g id="node9" class="node"><title>Node5</title>
<polygon fill="white" stroke="#bfbfbf" points="380,-0.5 380,-21.5 488,-21.5 488,-0.5 380,-0.5"/>
<text text-anchor="middle" x="434" y="-8.5" font-family="Helvetica,sans-Serif" font-size="10.00">boost/shared_ptr.hpp</text>
</g>
<!-- Node1&#45;&gt;Node5 -->
<g id="edge8" class="edge"><title>Node1&#45;&gt;Node5</title>
<path fill="none" stroke="midnightblue" d="M1192.39,-67.1591C1054.6,-63.2585 758.032,-52.0187 498.242,-22.0341"/>
<polygon fill="midnightblue" stroke="midnightblue" points="498.578,-18.5495 488.24,-20.8681 497.767,-25.5024 498.578,-18.5495"/>
</g>
<!-- Node6 -->
<g id="node11" class="node"><title>Node6</title>
<polygon fill="white" stroke="#bfbfbf" points="506,-0.5 506,-21.5 598,-21.5 598,-0.5 506,-0.5"/>
<text text-anchor="middle" x="552" y="-8.5" font-family="Helvetica,sans-Serif" font-size="10.00">boost/variant.hpp</text>
</g>
<!-- Node1&#45;&gt;Node6 -->
<g id="edge10" class="edge"><title>Node1&#45;&gt;Node6</title>
<path fill="none" stroke="midnightblue" d="M1192.35,-66.6826C1070.09,-62.3292 825.119,-50.7604 608.127,-22.0071"/>
<polygon fill="midnightblue" stroke="midnightblue" points="608.518,-18.5284 598.142,-20.6691 607.589,-25.4664 608.518,-18.5284"/>
</g>
<!-- Node7 -->
<g id="node13" class="node"><title>Node7</title>
<polygon fill="white" stroke="#bfbfbf" points="616,-0.5 616,-21.5 724,-21.5 724,-0.5 616,-0.5"/>
<text text-anchor="middle" x="670" y="-8.5" font-family="Helvetica,sans-Serif" font-size="10.00">boost/variant/get.hpp</text>
</g>
<!-- Node1&#45;&gt;Node7 -->
<g id="edge12" class="edge"><title>Node1&#45;&gt;Node7</title>
<path fill="none" stroke="midnightblue" d="M1192.41,-64.3004C1089.84,-57.6205 903.319,-43.8558 734.328,-22.0864"/>
<polygon fill="midnightblue" stroke="midnightblue" points="734.619,-18.5948 724.251,-20.7759 733.716,-25.5363 734.619,-18.5948"/>
</g>
<!-- Node8 -->
<g id="node15" class="node"><title>Node8</title>
<polygon fill="white" stroke="#bfbfbf" points="741.5,-0.5 741.5,-21.5 870.5,-21.5 870.5,-0.5 741.5,-0.5"/>
<text text-anchor="middle" x="806" y="-8.5" font-family="Helvetica,sans-Serif" font-size="10.00">boost/unordered_map.hpp</text>
</g>
<!-- Node1&#45;&gt;Node8 -->
<g id="edge14" class="edge"><title>Node1&#45;&gt;Node8</title>
<path fill="none" stroke="midnightblue" d="M1192.39,-60.3637C1115.67,-51.6682 994.664,-37.531 880.801,-22.2188"/>
<polygon fill="midnightblue" stroke="midnightblue" points="881.243,-18.7468 870.864,-20.877 880.306,-25.6838 881.243,-18.7468"/>
</g>
<!-- Node9 -->
<g id="node17" class="node"><title>Node9</title>
<polygon fill="white" stroke="#bfbfbf" points="888,-0.5 888,-21.5 1012,-21.5 1012,-0.5 888,-0.5"/>
<text text-anchor="middle" x="950" y="-8.5" font-family="Helvetica,sans-Serif" font-size="10.00">boost/unordered_set.hpp</text>
</g>
<!-- Node1&#45;&gt;Node9 -->
<g id="edge16" class="edge"><title>Node1&#45;&gt;Node9</title>
<path fill="none" stroke="midnightblue" d="M1212.05,-58.4966C1157.51,-48.6113 1075.82,-33.8046 1018.17,-23.356"/>
<polygon fill="midnightblue" stroke="midnightblue" points="1018.52,-19.8627 1008.06,-21.5231 1017.27,-26.7505 1018.52,-19.8627"/>
</g>
<!-- Node10 -->
<g id="node19" class="node"><title>Node10</title>
<polygon fill="white" stroke="#bfbfbf" points="1030,-0.5 1030,-21.5 1086,-21.5 1086,-0.5 1030,-0.5"/>
<text text-anchor="middle" x="1058" y="-8.5" font-family="Helvetica,sans-Serif" font-size="10.00">algorithm</text>
</g>
<!-- Node1&#45;&gt;Node10 -->
<g id="edge18" class="edge"><title>Node1&#45;&gt;Node10</title>
<path fill="none" stroke="midnightblue" d="M1229.6,-58.4762C1196.23,-49.7096 1147.37,-36.7091 1096.18,-22.2903"/>
<polygon fill="midnightblue" stroke="midnightblue" points="1096.83,-18.8375 1086.26,-19.4856 1094.93,-25.5736 1096.83,-18.8375"/>
</g>
<!-- Node11 -->
<g id="node21" class="node"><title>Node11</title>
<polygon fill="white" stroke="#bfbfbf" points="1103.5,-0.5 1103.5,-21.5 1162.5,-21.5 1162.5,-0.5 1103.5,-0.5"/>
<text text-anchor="middle" x="1133" y="-8.5" font-family="Helvetica,sans-Serif" font-size="10.00">exception</text>
</g>
<!-- Node1&#45;&gt;Node11 -->
<g id="edge20" class="edge"><title>Node1&#45;&gt;Node11</title>
<path fill="none" stroke="midnightblue" d="M1245.19,-58.4966C1223.5,-49.3154 1191.79,-35.8889 1167.61,-25.6516"/>
<polygon fill="midnightblue" stroke="midnightblue" points="1168.66,-22.2968 1158.09,-21.6212 1165.93,-28.7429 1168.66,-22.2968"/>
</g>
<!-- Node12 -->
<g id="node23" class="node"><title>Node12</title>
<polygon fill="white" stroke="#bfbfbf" points="1179.5,-0.5 1179.5,-21.5 1226.5,-21.5 1226.5,-0.5 1179.5,-0.5"/>
<text text-anchor="middle" x="1203" y="-8.5" font-family="Helvetica,sans-Serif" font-size="10.00">iterator</text>
</g>
<!-- Node1&#45;&gt;Node12 -->
<g id="edge22" class="edge"><title>Node1&#45;&gt;Node12</title>
<path fill="none" stroke="midnightblue" d="M1257.71,-58.3619C1247.98,-49.9408 1234.2,-38.0105 1222.9,-28.2308"/>
<polygon fill="midnightblue" stroke="midnightblue" points="1225.06,-25.4695 1215.21,-21.5707 1220.48,-30.7619 1225.06,-25.4695"/>
</g>
<!-- Node13 -->
<g id="node25" class="node"><title>Node13</title>
<polygon fill="white" stroke="#bfbfbf" points="1244,-0.5 1244,-21.5 1296,-21.5 1296,-0.5 1244,-0.5"/>
<text text-anchor="middle" x="1270" y="-8.5" font-family="Helvetica,sans-Serif" font-size="10.00">sstream</text>
</g>
<!-- Node1&#45;&gt;Node13 -->
<g id="edge24" class="edge"><title>Node1&#45;&gt;Node13</title>
<path fill="none" stroke="midnightblue" d="M1270,-58.3619C1270,-50.9219 1270,-40.7427 1270,-31.7276"/>
<polygon fill="midnightblue" stroke="midnightblue" points="1273.5,-31.5706 1270,-21.5707 1266.5,-31.5707 1273.5,-31.5706"/>
</g>
<!-- Node14 -->
<g id="node27" class="node"><title>Node14</title>
<polygon fill="white" stroke="#bfbfbf" points="1313.5,-0.5 1313.5,-21.5 1354.5,-21.5 1354.5,-0.5 1313.5,-0.5"/>
<text text-anchor="middle" x="1334" y="-8.5" font-family="Helvetica,sans-Serif" font-size="10.00">string</text>
</g>
<!-- Node1&#45;&gt;Node14 -->
<g id="edge26" class="edge"><title>Node1&#45;&gt;Node14</title>
<path fill="none" stroke="midnightblue" d="M1281.74,-58.3619C1290.94,-50.0226 1303.94,-38.2418 1314.67,-28.5162"/>
<polygon fill="midnightblue" stroke="midnightblue" points="1317.28,-30.8793 1322.34,-21.5707 1312.58,-25.6924 1317.28,-30.8793"/>
</g>
<!-- Node15 -->
<g id="node29" class="node"><title>Node15</title>
<polygon fill="white" stroke="#bfbfbf" points="1372,-0.5 1372,-21.5 1416,-21.5 1416,-0.5 1372,-0.5"/>
<text text-anchor="middle" x="1394" y="-8.5" font-family="Helvetica,sans-Serif" font-size="10.00">vector</text>
</g>
<!-- Node1&#45;&gt;Node15 -->
<g id="edge28" class="edge"><title>Node1&#45;&gt;Node15</title>
<path fill="none" stroke="midnightblue" d="M1292.46,-58.4966C1312.03,-49.3401 1340.63,-35.9612 1362.5,-25.7344"/>
<polygon fill="midnightblue" stroke="midnightblue" points="1364.14,-28.8325 1371.71,-21.4252 1361.17,-22.4918 1364.14,-28.8325"/>
</g>
<!-- Node16 -->
<g id="node31" class="node"><title>Node16</title>
<a xlink:href="../../d1/d07/token_8h.html" target="_top" xlink:title="json/token.h">
<polygon fill="white" stroke="black" points="1434,-0.5 1434,-21.5 1504,-21.5 1504,-0.5 1434,-0.5"/>
<text text-anchor="middle" x="1469" y="-8.5" font-family="Helvetica,sans-Serif" font-size="10.00">json/token.h</text>
</a>
</g>
<!-- Node1&#45;&gt;Node16 -->
<g id="edge30" class="edge"><title>Node1&#45;&gt;Node16</title>
<path fill="none" stroke="midnightblue" d="M1306.04,-58.4966C1339.21,-48.8288 1388.53,-34.4538 1424.22,-24.0518"/>
<polygon fill="midnightblue" stroke="midnightblue" points="1425.28,-27.3889 1433.9,-21.2305 1423.32,-20.6686 1425.28,-27.3889"/>
</g>
<!-- Node17 -->
<g id="node33" class="node"><title>Node17</title>
<a xlink:href="../../dd/d2d/exception_8h.html" target="_top" xlink:title="json/exception.h">
<polygon fill="white" stroke="black" points="1522,-0.5 1522,-21.5 1610,-21.5 1610,-0.5 1522,-0.5"/>
<text text-anchor="middle" x="1566" y="-8.5" font-family="Helvetica,sans-Serif" font-size="10.00">json/exception.h</text>
</a>
</g>
<!-- Node1&#45;&gt;Node17 -->
<g id="edge32" class="edge"><title>Node1&#45;&gt;Node17</title>
<path fill="none" stroke="midnightblue" d="M1325.54,-58.4808C1372.6,-49.5151 1442.16,-36.1475 1511.92,-22.1997"/>
<polygon fill="midnightblue" stroke="midnightblue" points="1512.64,-25.6241 1521.76,-20.2281 1511.27,-18.7604 1512.64,-25.6241"/>
</g>
<!-- Node18 -->
<g id="node35" class="node"><title>Node18</title>
<a xlink:href="../../de/d10/object_8h.html" target="_top" xlink:title="json/object.h">
<polygon fill="white" stroke="black" points="1628,-0.5 1628,-21.5 1700,-21.5 1700,-0.5 1628,-0.5"/>
<text text-anchor="middle" x="1664" y="-8.5" font-family="Helvetica,sans-Serif" font-size="10.00">json/object.h</text>
</a>
</g>
<!-- Node1&#45;&gt;Node18 -->
<g id="edge34" class="edge"><title>Node1&#45;&gt;Node18</title>
<path fill="none" stroke="midnightblue" d="M1347.66,-60.9281C1416.28,-53.2496 1519.22,-40.4026 1617.6,-22.1201"/>
<polygon fill="midnightblue" stroke="midnightblue" points="1618.54,-25.5053 1627.72,-20.2172 1617.25,-18.6259 1618.54,-25.5053"/>
</g>
<!-- Node19 -->
<g id="node37" class="node"><title>Node19</title>
<a xlink:href="../../db/d63/array_8h.html" target="_top" xlink:title="json/array.h">
<polygon fill="white" stroke="black" points="1718,-0.5 1718,-21.5 1786,-21.5 1786,-0.5 1718,-0.5"/>
<text text-anchor="middle" x="1752" y="-8.5" font-family="Helvetica,sans-Serif" font-size="10.00">json/array.h</text>
</a>
</g>
<!-- Node1&#45;&gt;Node19 -->
<g id="edge36" class="edge"><title>Node1&#45;&gt;Node19</title>
<path fill="none" stroke="midnightblue" d="M1347.8,-64.0653C1433.77,-57.8464 1576.42,-45.2658 1707.98,-21.9817"/>
<polygon fill="midnightblue" stroke="midnightblue" points="1708.61,-25.4247 1717.83,-20.2135 1707.37,-18.5347 1708.61,-25.4247"/>
</g>
<!-- Node20 -->
<g id="node39" class="node"><title>Node20</title>
<a xlink:href="../../d4/d3f/value_8h.html" target="_top" xlink:title="json/value.h">
<polygon fill="white" stroke="black" points="1803.5,-0.5 1803.5,-21.5 1872.5,-21.5 1872.5,-0.5 1803.5,-0.5"/>
<text text-anchor="middle" x="1838" y="-8.5" font-family="Helvetica,sans-Serif" font-size="10.00">json/value.h</text>
</a>
</g>
<!-- Node1&#45;&gt;Node20 -->
<g id="edge38" class="edge"><title>Node1&#45;&gt;Node20</title>
<path fill="none" stroke="midnightblue" d="M1347.9,-65.9503C1448.74,-61.1268 1629.99,-49.4851 1793.15,-22.1099"/>
<polygon fill="midnightblue" stroke="midnightblue" points="1794.1,-25.4981 1803.37,-20.3696 1792.92,-18.5974 1794.1,-25.4981"/>
</g>
<!-- Node21 -->
<g id="node41" class="node"><title>Node21</title>
<polygon fill="white" stroke="#bfbfbf" points="1890,-0.5 1890,-21.5 1962,-21.5 1962,-0.5 1890,-0.5"/>
<text text-anchor="middle" x="1926" y="-8.5" font-family="Helvetica,sans-Serif" font-size="10.00">json/json.tcc</text>
</g>
<!-- Node1&#45;&gt;Node21 -->
<g id="edge40" class="edge"><title>Node1&#45;&gt;Node21</title>
<path fill="none" stroke="midnightblue" d="M1347.64,-67.0759C1462.21,-63.34 1683.34,-52.7088 1879.82,-21.9716"/>
<polygon fill="midnightblue" stroke="midnightblue" points="1880.43,-25.4202 1889.75,-20.3976 1879.33,-18.5065 1880.43,-25.4202"/>
</g>
<!-- Node22 -->
<g id="node43" class="node"><title>Node22</title>
<polygon fill="white" stroke="#bfbfbf" points="1980,-0.5 1980,-21.5 2060,-21.5 2060,-0.5 1980,-0.5"/>
<text text-anchor="middle" x="2020" y="-8.5" font-family="Helvetica,sans-Serif" font-size="10.00">json/object.tcc</text>
</g>
<!-- Node1&#45;&gt;Node22 -->
<g id="edge42" class="edge"><title>Node1&#45;&gt;Node22</title>
<path fill="none" stroke="midnightblue" d="M1347.69,-67.6888C1475.6,-64.6721 1738.59,-54.8587 1970.03,-21.9432"/>
<polygon fill="midnightblue" stroke="midnightblue" points="1970.58,-25.3997 1979.98,-20.5105 1969.59,-18.4711 1970.58,-25.3997"/>
</g>
<!-- Node23 -->
<g id="node45" class="node"><title>Node23</title>
<polygon fill="white" stroke="#bfbfbf" points="2078,-0.5 2078,-21.5 2154,-21.5 2154,-0.5 2078,-0.5"/>
<text text-anchor="middle" x="2116" y="-8.5" font-family="Helvetica,sans-Serif" font-size="10.00">json/array.tcc</text>
</g>
<!-- Node1&#45;&gt;Node23 -->
<g id="edge44" class="edge"><title>Node1&#45;&gt;Node23</title>
<path fill="none" stroke="midnightblue" d="M1347.59,-66.1309C1516.27,-59.6235 1912.97,-42.7899 2067.61,-21.9397"/>
<polygon fill="midnightblue" stroke="midnightblue" points="2068.47,-25.354 2077.88,-20.4962 2067.5,-18.4221 2068.47,-25.354"/>
</g>
<!-- Node24 -->
<g id="node47" class="node"><title>Node24</title>
<polygon fill="white" stroke="#bfbfbf" points="2171.5,-0.5 2171.5,-21.5 2248.5,-21.5 2248.5,-0.5 2171.5,-0.5"/>
<text text-anchor="middle" x="2210" y="-8.5" font-family="Helvetica,sans-Serif" font-size="10.00">json/value.tcc</text>
</g>
<!-- Node1&#45;&gt;Node24 -->
<g id="edge46" class="edge"><title>Node1&#45;&gt;Node24</title>
<path fill="none" stroke="midnightblue" d="M1347.53,-66.6865C1530.91,-60.9348 1988.28,-44.8813 2161.37,-21.9887"/>
<polygon fill="midnightblue" stroke="midnightblue" points="2161.94,-25.4431 2171.37,-20.6125 2160.99,-18.5084 2161.94,-25.4431"/>
</g>
</g>
</svg>
        <g id="navigator" transform="translate(0 0)" fill="#404254">
                <rect fill="#f2f5e9" fill-opacity="0.5" stroke="#606060" stroke-width=".5" x="0" y="0" width="60" height="60"/>
                <use id="zoomplus" xlink:href="#zoomPlus" x="17" y="9" onmousedown="handleZoom(evt,'in')"/>
                <use id="zoomminus" xlink:href="#zoomMin" x="42" y="9" onmousedown="handleZoom(evt,'out')"/>
                <use id="reset" xlink:href="#resetDef" x="30" y="36" onmousedown="handleReset()"/>
                <g id="arrowUp" xlink:href="#dirArrow" transform="translate(30 24)" onmousedown="handlePan(0,-1)">
                  <use xlink:href="#rim" fill="#404040">
                        <set attributeName="fill" to="#808080" begin="arrowUp.mouseover" end="arrowUp.mouseout"/>
                  </use>
                  <path fill="none" stroke="white" stroke-width="1.5" d="M0,-3.0v7 M-2.5,-0.5L0,-3.0L2.5,-0.5"/>
                </g>
                <g id="arrowRight" xlink:href="#dirArrow" transform="rotate(90) translate(36 -43)" onmousedown="handlePan(1,0)">
                  <use xlink:href="#rim" fill="#404040">
                        <set attributeName="fill" to="#808080" begin="arrowRight.mouseover" end="arrowRight.mouseout"/>
                  </use>
                  <path fill="none" stroke="white" stroke-width="1.5" d="M0,-3.0v7 M-2.5,-0.5L0,-3.0L2.5,-0.5"/>
                </g>
                <g id="arrowDown" xlink:href="#dirArrow" transform="rotate(180) translate(-30 -48)" onmousedown="handlePan(0,1)">
                  <use xlink:href="#rim" fill="#404040">
                        <set attributeName="fill" to="#808080" begin="arrowDown.mouseover" end="arrowDown.mouseout"/>
                  </use>
                  <path fill="none" stroke="white" stroke-width="1.5" d="M0,-3.0v7 M-2.5,-0.5L0,-3.0L2.5,-0.5"/>
                </g>
                <g id="arrowLeft" xlink:href="#dirArrow" transform="rotate(270) translate(-36 17)" onmousedown="handlePan(-1,0)">
                  <use xlink:href="#rim" fill="#404040">
                        <set attributeName="fill" to="#808080" begin="arrowLeft.mouseover" end="arrowLeft.mouseout"/>
                  </use>
                  <path fill="none" stroke="white" stroke-width="1.5" d="M0,-3.0v7 M-2.5,-0.5L0,-3.0L2.5,-0.5"/>
                </g>
        </g>
</svg>
