<?xml version="1.0" encoding="UTF-8" standalone="no"?>
<!DOCTYPE svg PUBLIC "-//W3C//DTD SVG 1.1//EN"
 "http://www.w3.org/Graphics/SVG/1.1/DTD/svg11.dtd">
<!-- Generated by graphviz version 2.26.3 (20100126.1600)
 -->
<!-- Title: G Pages: 1 -->
<!--zoomable 146 -->
<svg id="main" version="1.1" xmlns="http://www.w3.org/2000/svg" xmlns:xlink="http://www.w3.org/1999/xlink" xml:space="preserve" onload="init(evt)">
        <defs>
                <circle id="rim" cx="0" cy="0" r="7"/>
                <circle id="rim2" cx="0" cy="0" r="3.5"/>
                <g id="zoomPlus">
                        <use xlink:href="#rim" fill="#404040">
                                <set attributeName="fill" to="#808080" begin="zoomplus.mouseover" end="zoomplus.mouseout"/>
                        </use>
                        <path d="M-4,0h8M0,-4v8" fill="none" stroke="white" stroke-width="1.5" pointer-events="none"/>
                </g>
                <g id="zoomMin">
                        <use xlink:href="#rim" fill="#404040">
                                <set attributeName="fill" to="#808080" begin="zoomminus.mouseover" end="zoomminus.mouseout"/>
                        </use>
                        <path d="M-4,0h8" fill="none" stroke="white" stroke-width="1.5" pointer-events="none"/>
                </g>
                <g id="dirArrow">
                        <path fill="none" stroke="white" stroke-width="1.5" d="M0,-3.0v7 M-2.5,-0.5L0,-3.0L2.5,-0.5"/>
                </g>
               <g id="resetDef">
                       <use xlink:href="#rim2" fill="#404040">
                               <set attributeName="fill" to="#808080" begin="reset.mouseover" end="reset.mouseout"/>
                       </use>
               </g>
        </defs>

<script type="text/javascript">
var viewWidth = 2574;
var viewHeight = 146;
var sectionId = 'dynsection-0';
</script>
<script xlink:href="../../svgpan.js"/>
<svg id="graph" class="graph">
<g id="viewport">
<title>G</title>
<polygon fill="white" stroke="white" points="-4,5 -4,-142 2571,-142 2571,5 -4,5"/>
<!-- Node1 -->
<g id="node1" class="node"><title>Node1</title>
<polygon fill="#bfbfbf" stroke="black" points="1762.5,-116.5 1762.5,-137.5 1865.5,-137.5 1865.5,-116.5 1762.5,-116.5"/>
<text text-anchor="middle" x="1814" y="-124.5" font-family="Helvetica,sans-Serif" font-size="10.00">src/api/ioformat.cpp</text>
</g>
<!-- Node2 -->
<g id="node3" class="node"><title>Node2</title>
<polygon fill="white" stroke="#bfbfbf" points="277.5,-58.5 277.5,-79.5 462.5,-79.5 462.5,-58.5 277.5,-58.5"/>
<text text-anchor="middle" x="370" y="-66.5" font-family="Helvetica,sans-Serif" font-size="10.00">../parsers/xml/pugixml/src/pugixml.hpp</text>
</g>
<!-- Node1&#45;&gt;Node2 -->
<g id="edge2" class="edge"><title>Node1&#45;&gt;Node2</title>
<path fill="none" stroke="midnightblue" d="M1762.39,-126.558C1584.65,-124.749 981.371,-116.21 472.825,-80.0878"/>
<polygon fill="midnightblue" stroke="midnightblue" points="472.938,-76.5871 462.714,-79.3651 472.439,-83.5693 472.938,-76.5871"/>
</g>
<!-- Node3 -->
<g id="node5" class="node"><title>Node3</title>
<polygon fill="white" stroke="#bfbfbf" points="479.5,-58.5 479.5,-79.5 1002.5,-79.5 1002.5,-58.5 479.5,-58.5"/>
<text text-anchor="middle" x="741" y="-66.5" font-family="Helvetica,sans-Serif" font-size="10.00">/home/ds3267/Documents/sdhaivat2011/columbia_courses/set/project_1/src/parsers/xml/pugixml/src/pugiconfig.hpp</text>
</g>
<!-- Node1&#45;&gt;Node3 -->
<g id="edge4" class="edge"><title>Node1&#45;&gt;Node3</title>
<path fill="none" stroke="midnightblue" d="M1762.25,-124.203C1616.99,-116.351 1199.56,-93.7872 945.59,-80.0589"/>
<polygon fill="midnightblue" stroke="midnightblue" points="945.674,-76.5584 935.499,-79.5135 945.296,-83.5482 945.674,-76.5584"/>
</g>
<!-- Node4 -->
<g id="node7" class="node"><title>Node4</title>
<polygon fill="white" stroke="#bfbfbf" points="1020,-58.5 1020,-79.5 1072,-79.5 1072,-58.5 1020,-58.5"/>
<text text-anchor="middle" x="1046" y="-66.5" font-family="Helvetica,sans-Serif" font-size="10.00">stddef.h</text>
</g>
<!-- Node1&#45;&gt;Node4 -->
<g id="edge6" class="edge"><title>Node1&#45;&gt;Node4</title>
<path fill="none" stroke="midnightblue" d="M1762.34,-125.036C1618.67,-119.356 1216.44,-101.911 1086,-80 1084.72,-79.7852 1083.43,-79.5463 1082.12,-79.2877"/>
<polygon fill="midnightblue" stroke="midnightblue" points="1082.61,-75.809 1072.08,-76.9927 1081.05,-82.633 1082.61,-75.809"/>
</g>
<!-- Node5 -->
<g id="node9" class="node"><title>Node5</title>
<polygon fill="white" stroke="#bfbfbf" points="-0.5,-0.5 -0.5,-21.5 58.5,-21.5 58.5,-0.5 -0.5,-0.5"/>
<text text-anchor="middle" x="29" y="-8.5" font-family="Helvetica,sans-Serif" font-size="10.00">exception</text>
</g>
<!-- Node1&#45;&gt;Node5 -->
<g id="edge8" class="edge"><title>Node1&#45;&gt;Node5</title>
<path fill="none" stroke="midnightblue" d="M1762.36,-125.07C1610.92,-119.195 1174.83,-100.669 1114,-80 1097.31,-74.3294 1097.78,-63.4066 1081,-58 869.432,10.1786 305.905,-55.6972 68.7291,-21.8714"/>
<polygon fill="midnightblue" stroke="midnightblue" points="69.125,-18.3915 58.713,-20.3514 68.0747,-25.3122 69.125,-18.3915"/>
</g>
<!-- Node6 -->
<g id="node11" class="node"><title>Node6</title>
<polygon fill="white" stroke="#bfbfbf" points="75.5,-0.5 75.5,-21.5 122.5,-21.5 122.5,-0.5 75.5,-0.5"/>
<text text-anchor="middle" x="99" y="-8.5" font-family="Helvetica,sans-Serif" font-size="10.00">iterator</text>
</g>
<!-- Node1&#45;&gt;Node6 -->
<g id="edge10" class="edge"><title>Node1&#45;&gt;Node6</title>
<path fill="none" stroke="midnightblue" d="M1762.08,-125.956C1627.6,-122.829 1270.59,-111.701 1157,-80 1136.32,-74.2293 1134.77,-63.4099 1114,-58 905.563,-3.71992 362.138,-60.2567 132.584,-21.7452"/>
<polygon fill="midnightblue" stroke="midnightblue" points="133.014,-18.2669 122.556,-19.9639 131.79,-25.159 133.014,-18.2669"/>
</g>
<!-- Node7 -->
<g id="node13" class="node"><title>Node7</title>
<polygon fill="white" stroke="#bfbfbf" points="1165.5,-58.5 1165.5,-79.5 1210.5,-79.5 1210.5,-58.5 1165.5,-58.5"/>
<text text-anchor="middle" x="1188" y="-66.5" font-family="Helvetica,sans-Serif" font-size="10.00">iosfwd</text>
</g>
<!-- Node1&#45;&gt;Node7 -->
<g id="edge12" class="edge"><title>Node1&#45;&gt;Node7</title>
<path fill="none" stroke="midnightblue" d="M1762.24,-124.322C1638.18,-117.67 1326.58,-99.5184 1224,-80 1222.91,-79.7923 1221.8,-79.5638 1220.69,-79.3179"/>
<polygon fill="midnightblue" stroke="midnightblue" points="1221.22,-75.8408 1210.67,-76.74 1219.48,-82.6203 1221.22,-75.8408"/>
</g>
<!-- Node8 -->
<g id="node15" class="node"><title>Node8</title>
<polygon fill="white" stroke="#bfbfbf" points="2145.5,-0.5 2145.5,-21.5 2186.5,-21.5 2186.5,-0.5 2145.5,-0.5"/>
<text text-anchor="middle" x="2166" y="-8.5" font-family="Helvetica,sans-Serif" font-size="10.00">string</text>
</g>
<!-- Node1&#45;&gt;Node8 -->
<g id="edge14" class="edge"><title>Node1&#45;&gt;Node8</title>
<path fill="none" stroke="midnightblue" d="M1806.99,-116.444C1798.05,-101.523 1785.37,-74.2722 1800,-58 1848.43,-4.12051 2047.73,-36.777 2135.42,-21.6174"/>
<polygon fill="midnightblue" stroke="midnightblue" points="2136.2,-25.0289 2145.29,-19.5835 2134.79,-18.1729 2136.2,-25.0289"/>
</g>
<!-- Node9 -->
<g id="node17" class="node"><title>Node9</title>
<a xlink:href="../../d4/d05/json_8h.html" target="_top" xlink:title="../parsers/json/cpp&#45;json/json.h">
<polygon fill="white" stroke="black" points="1266,-58.5 1266,-79.5 1414,-79.5 1414,-58.5 1266,-58.5"/>
<text text-anchor="middle" x="1340" y="-66.5" font-family="Helvetica,sans-Serif" font-size="10.00">../parsers/json/cpp&#45;json/json.h</text>
</a>
</g>
<!-- Node1&#45;&gt;Node9 -->
<g id="edge16" class="edge"><title>Node1&#45;&gt;Node9</title>
<path fill="none" stroke="midnightblue" d="M1762.37,-120.683C1681.03,-110.729 1522.24,-91.2991 1424.22,-79.305"/>
<polygon fill="midnightblue" stroke="midnightblue" points="1424.4,-75.8008 1414.04,-78.0603 1423.55,-82.749 1424.4,-75.8008"/>
</g>
<!-- Node11 -->
<g id="node21" class="node"><title>Node11</title>
<polygon fill="white" stroke="#bfbfbf" points="140,-0.5 140,-21.5 254,-21.5 254,-0.5 140,-0.5"/>
<text text-anchor="middle" x="197" y="-8.5" font-family="Helvetica,sans-Serif" font-size="10.00">boost/lexical_cast.hpp</text>
</g>
<!-- Node1&#45;&gt;Node11 -->
<g id="edge98" class="edge"><title>Node1&#45;&gt;Node11</title>
<path fill="none" stroke="midnightblue" d="M1762.14,-125.517C1642.52,-121.63 1350.39,-109.349 1257,-80 1238.38,-74.1493 1237.75,-63.4159 1219,-58 1017.85,0.107459 490.781,-42.1949 264.4,-21.9654"/>
<polygon fill="midnightblue" stroke="midnightblue" points="264.465,-18.4557 254.177,-20.9877 263.799,-25.4239 264.465,-18.4557"/>
</g>
<!-- Node18 -->
<g id="node35" class="node"><title>Node18</title>
<polygon fill="white" stroke="#bfbfbf" points="2072,-0.5 2072,-21.5 2128,-21.5 2128,-0.5 2072,-0.5"/>
<text text-anchor="middle" x="2100" y="-8.5" font-family="Helvetica,sans-Serif" font-size="10.00">algorithm</text>
</g>
<!-- Node1&#45;&gt;Node18 -->
<g id="edge90" class="edge"><title>Node1&#45;&gt;Node18</title>
<path fill="none" stroke="midnightblue" d="M1796.08,-116.305C1774.92,-102.382 1744.67,-77.5206 1762,-58 1804.8,-9.78116 1980.95,-33.3836 2061.58,-21.7041"/>
<polygon fill="midnightblue" stroke="midnightblue" points="2062.6,-25.0795 2071.84,-19.9078 2061.39,-18.1843 2062.6,-25.0795"/>
</g>
<!-- Node20 -->
<g id="node42" class="node"><title>Node20</title>
<polygon fill="white" stroke="#bfbfbf" points="2204,-0.5 2204,-21.5 2248,-21.5 2248,-0.5 2204,-0.5"/>
<text text-anchor="middle" x="2226" y="-8.5" font-family="Helvetica,sans-Serif" font-size="10.00">vector</text>
</g>
<!-- Node1&#45;&gt;Node20 -->
<g id="edge84" class="edge"><title>Node1&#45;&gt;Node20</title>
<path fill="none" stroke="midnightblue" d="M1813.51,-116.436C1813.43,-100.988 1815.81,-72.4984 1833,-58 1892.57,-7.76621 2100.32,-37.3182 2193.82,-21.558"/>
<polygon fill="midnightblue" stroke="midnightblue" points="2194.7,-24.9516 2203.84,-19.588 2193.35,-18.0831 2194.7,-24.9516"/>
</g>
<!-- Node30 -->
<g id="node62" class="node"><title>Node30</title>
<polygon fill="white" stroke="#bfbfbf" points="1842,-58.5 1842,-79.5 1888,-79.5 1888,-58.5 1842,-58.5"/>
<text text-anchor="middle" x="1865" y="-66.5" font-family="Helvetica,sans-Serif" font-size="10.00">stdio.h</text>
</g>
<!-- Node1&#45;&gt;Node30 -->
<g id="edge64" class="edge"><title>Node1&#45;&gt;Node30</title>
<path fill="none" stroke="midnightblue" d="M1823.35,-116.362C1830.54,-108.186 1840.64,-96.7025 1849.09,-87.0907"/>
<polygon fill="midnightblue" stroke="midnightblue" points="1851.73,-89.3916 1855.71,-79.5707 1846.47,-84.7692 1851.73,-89.3916"/>
</g>
<!-- Node31 -->
<g id="node64" class="node"><title>Node31</title>
<a xlink:href="../../de/dd3/sqlite3_8h.html" target="_top" xlink:title="../db/sqlite3/sqlite3.h">
<polygon fill="white" stroke="black" points="1983.5,-58.5 1983.5,-79.5 2090.5,-79.5 2090.5,-58.5 1983.5,-58.5"/>
<text text-anchor="middle" x="2037" y="-66.5" font-family="Helvetica,sans-Serif" font-size="10.00">../db/sqlite3/sqlite3.h</text>
</a>
</g>
<!-- Node1&#45;&gt;Node31 -->
<g id="edge66" class="edge"><title>Node1&#45;&gt;Node31</title>
<path fill="none" stroke="midnightblue" d="M1854.38,-116.497C1891.53,-106.836 1946.74,-92.4765 1986.72,-82.0765"/>
<polygon fill="midnightblue" stroke="midnightblue" points="1987.74,-85.4276 1996.54,-79.5231 1985.98,-78.653 1987.74,-85.4276"/>
</g>
<!-- Node33 -->
<g id="node68" class="node"><title>Node33</title>
<a xlink:href="../../d1/d6d/ioformat_8h.html" target="_top" xlink:title="ioformat.h">
<polygon fill="white" stroke="black" points="1906,-58.5 1906,-79.5 1966,-79.5 1966,-58.5 1906,-58.5"/>
<text text-anchor="middle" x="1936" y="-66.5" font-family="Helvetica,sans-Serif" font-size="10.00">ioformat.h</text>
</a>
</g>
<!-- Node1&#45;&gt;Node33 -->
<g id="edge70" class="edge"><title>Node1&#45;&gt;Node33</title>
<path fill="none" stroke="midnightblue" d="M1836.09,-116.497C1855.23,-107.397 1883.15,-94.1273 1904.61,-83.9253"/>
<polygon fill="midnightblue" stroke="midnightblue" points="1906.13,-87.0758 1913.66,-79.6212 1903.12,-80.7539 1906.13,-87.0758"/>
</g>
<!-- Node36 -->
<g id="node76" class="node"><title>Node36</title>
<polygon fill="white" stroke="#bfbfbf" points="2108,-58.5 2108,-79.5 2162,-79.5 2162,-58.5 2108,-58.5"/>
<text text-anchor="middle" x="2135" y="-66.5" font-family="Helvetica,sans-Serif" font-size="10.00">iostream</text>
</g>
<!-- Node1&#45;&gt;Node36 -->
<g id="edge80" class="edge"><title>Node1&#45;&gt;Node36</title>
<path fill="none" stroke="midnightblue" d="M1865.63,-120.591C1920.97,-113.253 2011.48,-99.9012 2098.24,-79.9502"/>
<polygon fill="midnightblue" stroke="midnightblue" points="2099.03,-83.3586 2107.98,-77.6786 2097.44,-76.5416 2099.03,-83.3586"/>
</g>
<!-- Node37 -->
<g id="node78" class="node"><title>Node37</title>
<polygon fill="white" stroke="#bfbfbf" points="2180,-58.5 2180,-79.5 2226,-79.5 2226,-58.5 2180,-58.5"/>
<text text-anchor="middle" x="2203" y="-66.5" font-family="Helvetica,sans-Serif" font-size="10.00">cstring</text>
</g>
<!-- Node1&#45;&gt;Node37 -->
<g id="edge82" class="edge"><title>Node1&#45;&gt;Node37</title>
<path fill="none" stroke="midnightblue" d="M1865.72,-123.455C1933.71,-118.079 2056.83,-105.872 2169.88,-79.9044"/>
<polygon fill="midnightblue" stroke="midnightblue" points="2170.8,-83.2843 2179.74,-77.5987 2169.21,-76.4682 2170.8,-83.2843"/>
</g>
<!-- Node38 -->
<g id="node81" class="node"><title>Node38</title>
<polygon fill="white" stroke="#bfbfbf" points="2243.5,-58.5 2243.5,-79.5 2292.5,-79.5 2292.5,-58.5 2243.5,-58.5"/>
<text text-anchor="middle" x="2268" y="-66.5" font-family="Helvetica,sans-Serif" font-size="10.00">dirent.h</text>
</g>
<!-- Node1&#45;&gt;Node38 -->
<g id="edge86" class="edge"><title>Node1&#45;&gt;Node38</title>
<path fill="none" stroke="midnightblue" d="M1865.77,-124.731C1943.9,-120.54 2096.54,-109.367 2233.46,-80.0035"/>
<polygon fill="midnightblue" stroke="midnightblue" points="2234.27,-83.41 2243.29,-77.8577 2232.77,-76.571 2234.27,-83.41"/>
</g>
<!-- Node39 -->
<g id="node83" class="node"><title>Node39</title>
<polygon fill="white" stroke="#bfbfbf" points="2310,-58.5 2310,-79.5 2358,-79.5 2358,-58.5 2310,-58.5"/>
<text text-anchor="middle" x="2334" y="-66.5" font-family="Helvetica,sans-Serif" font-size="10.00">stdlib.h</text>
</g>
<!-- Node1&#45;&gt;Node39 -->
<g id="edge88" class="edge"><title>Node1&#45;&gt;Node39</title>
<path fill="none" stroke="midnightblue" d="M1865.76,-125.826C1953.53,-123.007 2137.06,-113.53 2299.49,-79.9358"/>
<polygon fill="midnightblue" stroke="midnightblue" points="2300.6,-83.2791 2309.66,-77.7938 2299.15,-76.4292 2300.6,-83.2791"/>
</g>
<!-- Node40 -->
<g id="node86" class="node"><title>Node40</title>
<polygon fill="white" stroke="#bfbfbf" points="2375.5,-58.5 2375.5,-79.5 2426.5,-79.5 2426.5,-58.5 2375.5,-58.5"/>
<text text-anchor="middle" x="2401" y="-66.5" font-family="Helvetica,sans-Serif" font-size="10.00">unistd.h</text>
</g>
<!-- Node1&#45;&gt;Node40 -->
<g id="edge92" class="edge"><title>Node1&#45;&gt;Node40</title>
<path fill="none" stroke="midnightblue" d="M1865.58,-124.124C1980.29,-117.49 2254.56,-100.262 2365.29,-79.9396"/>
<polygon fill="midnightblue" stroke="midnightblue" points="2366.02,-83.3634 2375.17,-78.0275 2364.69,-76.4908 2366.02,-83.3634"/>
</g>
<!-- Node41 -->
<g id="node88" class="node"><title>Node41</title>
<polygon fill="white" stroke="#bfbfbf" points="2444,-58.5 2444,-79.5 2488,-79.5 2488,-58.5 2444,-58.5"/>
<text text-anchor="middle" x="2466" y="-66.5" font-family="Helvetica,sans-Serif" font-size="10.00">fcntl.h</text>
</g>
<!-- Node1&#45;&gt;Node41 -->
<g id="edge94" class="edge"><title>Node1&#45;&gt;Node41</title>
<path fill="none" stroke="midnightblue" d="M1865.68,-124.855C1990.87,-119.382 2308.68,-103.771 2433.77,-79.703"/>
<polygon fill="midnightblue" stroke="midnightblue" points="2434.75,-83.0752 2443.85,-77.6532 2433.36,-76.2154 2434.75,-83.0752"/>
</g>
<!-- Node42 -->
<g id="node90" class="node"><title>Node42</title>
<polygon fill="white" stroke="#bfbfbf" points="2506,-58.5 2506,-79.5 2566,-79.5 2566,-58.5 2506,-58.5"/>
<text text-anchor="middle" x="2536" y="-66.5" font-family="Helvetica,sans-Serif" font-size="10.00">sys/stat.h</text>
</g>
<!-- Node1&#45;&gt;Node42 -->
<g id="edge96" class="edge"><title>Node1&#45;&gt;Node42</title>
<path fill="none" stroke="midnightblue" d="M1865.67,-124.827C1999.78,-118.97 2357.6,-101.917 2495.94,-79.8184"/>
<polygon fill="midnightblue" stroke="midnightblue" points="2496.62,-83.253 2505.91,-78.1499 2495.47,-76.3491 2496.62,-83.253"/>
</g>
<!-- Node9&#45;&gt;Node5 -->
<g id="edge36" class="edge"><title>Node9&#45;&gt;Node5</title>
<path fill="none" stroke="midnightblue" d="M1265.82,-61.5546C1250.36,-60.1999 1234.16,-58.9251 1219,-58 966.596,-42.5969 336.267,-61.4316 68.8454,-21.9172"/>
<polygon fill="midnightblue" stroke="midnightblue" points="69.1259,-18.4194 58.7111,-20.3637 68.0653,-25.3385 69.1259,-18.4194"/>
</g>
<!-- Node9&#45;&gt;Node6 -->
<g id="edge38" class="edge"><title>Node9&#45;&gt;Node6</title>
<path fill="none" stroke="midnightblue" d="M1265.82,-61.5762C1250.36,-60.2199 1234.16,-58.939 1219,-58 980.736,-43.2402 384.895,-65.2118 132.485,-21.7508"/>
<polygon fill="midnightblue" stroke="midnightblue" points="133.015,-18.29 122.555,-19.9736 131.782,-25.1805 133.015,-18.29"/>
</g>
<!-- Node9&#45;&gt;Node8 -->
<g id="edge42" class="edge"><title>Node9&#45;&gt;Node8</title>
<path fill="none" stroke="midnightblue" d="M1414.1,-67.4954C1580.74,-63.6589 1981.8,-51.7782 2135.15,-21.8021"/>
<polygon fill="midnightblue" stroke="midnightblue" points="2136.23,-25.1525 2145.32,-19.7071 2134.82,-18.2964 2136.23,-25.1525"/>
</g>
<!-- Node10 -->
<g id="node19" class="node"><title>Node10</title>
<polygon fill="white" stroke="#bfbfbf" points="1104,-0.5 1104,-21.5 1196,-21.5 1196,-0.5 1104,-0.5"/>
<text text-anchor="middle" x="1150" y="-8.5" font-family="Helvetica,sans-Serif" font-size="10.00">boost/cstdint.hpp</text>
</g>
<!-- Node9&#45;&gt;Node10 -->
<g id="edge18" class="edge"><title>Node9&#45;&gt;Node10</title>
<path fill="none" stroke="midnightblue" d="M1305.59,-58.4966C1274.35,-48.9592 1228.1,-34.8408 1194.14,-24.475"/>
<polygon fill="midnightblue" stroke="midnightblue" points="1195.06,-21.0953 1184.47,-21.5231 1193.01,-27.7903 1195.06,-21.0953"/>
</g>
<!-- Node9&#45;&gt;Node11 -->
<g id="edge20" class="edge"><title>Node9&#45;&gt;Node11</title>
<path fill="none" stroke="midnightblue" d="M1265.63,-59.2371C1261.02,-58.7769 1256.45,-58.3585 1252,-58 816.891,-22.955 702.344,-65.592 264.256,-22.0045"/>
<polygon fill="midnightblue" stroke="midnightblue" points="264.477,-18.5091 254.177,-20.9922 263.777,-25.4741 264.477,-18.5091"/>
</g>
<!-- Node12 -->
<g id="node23" class="node"><title>Node12</title>
<polygon fill="white" stroke="#bfbfbf" points="1213.5,-0.5 1213.5,-21.5 1334.5,-21.5 1334.5,-0.5 1213.5,-0.5"/>
<text text-anchor="middle" x="1274" y="-8.5" font-family="Helvetica,sans-Serif" font-size="10.00">boost/make_shared.hpp</text>
</g>
<!-- Node9&#45;&gt;Node12 -->
<g id="edge22" class="edge"><title>Node9&#45;&gt;Node12</title>
<path fill="none" stroke="midnightblue" d="M1327.89,-58.3619C1318.31,-49.9408 1304.74,-38.0105 1293.61,-28.2308"/>
<polygon fill="midnightblue" stroke="midnightblue" points="1295.85,-25.5427 1286.03,-21.5707 1291.23,-30.8009 1295.85,-25.5427"/>
</g>
<!-- Node13 -->
<g id="node25" class="node"><title>Node13</title>
<polygon fill="white" stroke="#bfbfbf" points="1352,-0.5 1352,-21.5 1460,-21.5 1460,-0.5 1352,-0.5"/>
<text text-anchor="middle" x="1406" y="-8.5" font-family="Helvetica,sans-Serif" font-size="10.00">boost/shared_ptr.hpp</text>
</g>
<!-- Node9&#45;&gt;Node13 -->
<g id="edge24" class="edge"><title>Node9&#45;&gt;Node13</title>
<path fill="none" stroke="midnightblue" d="M1352.11,-58.3619C1361.69,-49.9408 1375.26,-38.0105 1386.39,-28.2308"/>
<polygon fill="midnightblue" stroke="midnightblue" points="1388.77,-30.8009 1393.97,-21.5707 1384.15,-25.5427 1388.77,-30.8009"/>
</g>
<!-- Node14 -->
<g id="node27" class="node"><title>Node14</title>
<polygon fill="white" stroke="#bfbfbf" points="1478,-0.5 1478,-21.5 1570,-21.5 1570,-0.5 1478,-0.5"/>
<text text-anchor="middle" x="1524" y="-8.5" font-family="Helvetica,sans-Serif" font-size="10.00">boost/variant.hpp</text>
</g>
<!-- Node9&#45;&gt;Node14 -->
<g id="edge26" class="edge"><title>Node9&#45;&gt;Node14</title>
<path fill="none" stroke="midnightblue" d="M1373.32,-58.4966C1403.45,-49.0001 1447.98,-34.9619 1480.83,-24.6087"/>
<polygon fill="midnightblue" stroke="midnightblue" points="1482.13,-27.8676 1490.62,-21.5231 1480.03,-21.1914 1482.13,-27.8676"/>
</g>
<!-- Node15 -->
<g id="node29" class="node"><title>Node15</title>
<polygon fill="white" stroke="#bfbfbf" points="1588,-0.5 1588,-21.5 1696,-21.5 1696,-0.5 1588,-0.5"/>
<text text-anchor="middle" x="1642" y="-8.5" font-family="Helvetica,sans-Serif" font-size="10.00">boost/variant/get.hpp</text>
</g>
<!-- Node9&#45;&gt;Node15 -->
<g id="edge28" class="edge"><title>Node9&#45;&gt;Node15</title>
<path fill="none" stroke="midnightblue" d="M1394.69,-58.4966C1446.3,-48.5856 1523.66,-33.7278 1578.09,-23.2748"/>
<polygon fill="midnightblue" stroke="midnightblue" points="1578.81,-26.6998 1587.97,-21.3764 1577.49,-19.8254 1578.81,-26.6998"/>
</g>
<!-- Node16 -->
<g id="node31" class="node"><title>Node16</title>
<polygon fill="white" stroke="#bfbfbf" points="1713.5,-0.5 1713.5,-21.5 1842.5,-21.5 1842.5,-0.5 1713.5,-0.5"/>
<text text-anchor="middle" x="1778" y="-8.5" font-family="Helvetica,sans-Serif" font-size="10.00">boost/unordered_map.hpp</text>
</g>
<!-- Node9&#45;&gt;Node16 -->
<g id="edge30" class="edge"><title>Node9&#45;&gt;Node16</title>
<path fill="none" stroke="midnightblue" d="M1414.16,-59.9243C1485.65,-51.0682 1597.15,-36.9711 1702.92,-22.2728"/>
<polygon fill="midnightblue" stroke="midnightblue" points="1703.71,-25.6959 1713.13,-20.8486 1702.74,-18.763 1703.71,-25.6959"/>
</g>
<!-- Node17 -->
<g id="node33" class="node"><title>Node17</title>
<polygon fill="white" stroke="#bfbfbf" points="1860,-0.5 1860,-21.5 1984,-21.5 1984,-0.5 1860,-0.5"/>
<text text-anchor="middle" x="1922" y="-8.5" font-family="Helvetica,sans-Serif" font-size="10.00">boost/unordered_set.hpp</text>
</g>
<!-- Node9&#45;&gt;Node17 -->
<g id="edge32" class="edge"><title>Node9&#45;&gt;Node17</title>
<path fill="none" stroke="midnightblue" d="M1414.2,-63.6256C1511.73,-56.237 1688.6,-41.722 1849.6,-22.1151"/>
<polygon fill="midnightblue" stroke="midnightblue" points="1850.19,-25.5688 1859.69,-20.8769 1849.34,-18.621 1850.19,-25.5688"/>
</g>
<!-- Node9&#45;&gt;Node18 -->
<g id="edge34" class="edge"><title>Node9&#45;&gt;Node18</title>
<path fill="none" stroke="midnightblue" d="M1414.14,-66.2893C1568.77,-60.2997 1922.22,-44.7722 2061.8,-21.8071"/>
<polygon fill="midnightblue" stroke="midnightblue" points="2062.62,-25.2187 2071.88,-20.069 2061.43,-18.3207 2062.62,-25.2187"/>
</g>
<!-- Node19 -->
<g id="node39" class="node"><title>Node19</title>
<polygon fill="white" stroke="#bfbfbf" points="2002,-0.5 2002,-21.5 2054,-21.5 2054,-0.5 2002,-0.5"/>
<text text-anchor="middle" x="2028" y="-8.5" font-family="Helvetica,sans-Serif" font-size="10.00">sstream</text>
</g>
<!-- Node9&#45;&gt;Node19 -->
<g id="edge40" class="edge"><title>Node9&#45;&gt;Node19</title>
<path fill="none" stroke="midnightblue" d="M1414.17,-65.8355C1556.99,-59.3941 1866.4,-43.663 1991.67,-21.8129"/>
<polygon fill="midnightblue" stroke="midnightblue" points="1992.59,-25.2031 2001.79,-19.9557 1991.33,-18.3181 1992.59,-25.2031"/>
</g>
<!-- Node9&#45;&gt;Node20 -->
<g id="edge44" class="edge"><title>Node9&#45;&gt;Node20</title>
<path fill="none" stroke="midnightblue" d="M1414.08,-67.6408C1589.66,-63.9916 2028.12,-52.26 2193.82,-21.6574"/>
<polygon fill="midnightblue" stroke="midnightblue" points="2194.71,-25.0496 2203.86,-19.7103 2193.38,-18.1775 2194.71,-25.0496"/>
</g>
<!-- Node21 -->
<g id="node44" class="node"><title>Node21</title>
<a xlink:href="../../d1/d07/token_8h.html" target="_top" xlink:title="json/token.h">
<polygon fill="white" stroke="black" points="272,-0.5 272,-21.5 342,-21.5 342,-0.5 272,-0.5"/>
<text text-anchor="middle" x="307" y="-8.5" font-family="Helvetica,sans-Serif" font-size="10.00">json/token.h</text>
</a>
</g>
<!-- Node9&#45;&gt;Node21 -->
<g id="edge46" class="edge"><title>Node9&#45;&gt;Node21</title>
<path fill="none" stroke="midnightblue" d="M1265.63,-59.2557C1261.02,-58.7909 1256.45,-58.3664 1252,-58 855.903,-25.3893 749.466,-78.0116 352.448,-21.9477"/>
<polygon fill="midnightblue" stroke="midnightblue" points="352.812,-18.4642 342.418,-20.5169 351.823,-25.394 352.812,-18.4642"/>
</g>
<!-- Node22 -->
<g id="node46" class="node"><title>Node22</title>
<a xlink:href="../../dd/d2d/exception_8h.html" target="_top" xlink:title="json/exception.h">
<polygon fill="white" stroke="black" points="360,-0.5 360,-21.5 448,-21.5 448,-0.5 360,-0.5"/>
<text text-anchor="middle" x="404" y="-8.5" font-family="Helvetica,sans-Serif" font-size="10.00">json/exception.h</text>
</a>
</g>
<!-- Node9&#45;&gt;Node22 -->
<g id="edge48" class="edge"><title>Node9&#45;&gt;Node22</title>
<path fill="none" stroke="midnightblue" d="M1265.63,-59.2836C1261.02,-58.8119 1256.45,-58.3782 1252,-58 902.845,-28.3192 809.661,-65.3784 458.103,-21.955"/>
<polygon fill="midnightblue" stroke="midnightblue" points="458.515,-18.4793 448.158,-20.7138 457.648,-25.4254 458.515,-18.4793"/>
</g>
<!-- Node23 -->
<g id="node48" class="node"><title>Node23</title>
<a xlink:href="../../de/d10/object_8h.html" target="_top" xlink:title="json/object.h">
<polygon fill="white" stroke="black" points="466,-0.5 466,-21.5 538,-21.5 538,-0.5 466,-0.5"/>
<text text-anchor="middle" x="502" y="-8.5" font-family="Helvetica,sans-Serif" font-size="10.00">json/object.h</text>
</a>
</g>
<!-- Node9&#45;&gt;Node23 -->
<g id="edge50" class="edge"><title>Node9&#45;&gt;Node23</title>
<path fill="none" stroke="midnightblue" d="M1265.62,-59.3138C1261.02,-58.8346 1256.45,-58.391 1252,-58 942.821,-30.8193 859.221,-66.6657 548.439,-21.9642"/>
<polygon fill="midnightblue" stroke="midnightblue" points="548.633,-18.4557 538.233,-20.4793 547.625,-25.3828 548.633,-18.4557"/>
</g>
<!-- Node24 -->
<g id="node50" class="node"><title>Node24</title>
<a xlink:href="../../db/d63/array_8h.html" target="_top" xlink:title="json/array.h">
<polygon fill="white" stroke="black" points="556,-0.5 556,-21.5 624,-21.5 624,-0.5 556,-0.5"/>
<text text-anchor="middle" x="590" y="-8.5" font-family="Helvetica,sans-Serif" font-size="10.00">json/array.h</text>
</a>
</g>
<!-- Node9&#45;&gt;Node24 -->
<g id="edge52" class="edge"><title>Node9&#45;&gt;Node24</title>
<path fill="none" stroke="midnightblue" d="M1265.62,-59.3509C1261.01,-58.8625 1256.45,-58.4068 1252,-58 980.92,-33.2022 907.098,-63.5848 634.348,-21.9431"/>
<polygon fill="midnightblue" stroke="midnightblue" points="634.562,-18.4346 624.144,-20.366 633.492,-25.3525 634.562,-18.4346"/>
</g>
<!-- Node25 -->
<g id="node52" class="node"><title>Node25</title>
<a xlink:href="../../d4/d3f/value_8h.html" target="_top" xlink:title="json/value.h">
<polygon fill="white" stroke="black" points="641.5,-0.5 641.5,-21.5 710.5,-21.5 710.5,-0.5 641.5,-0.5"/>
<text text-anchor="middle" x="676" y="-8.5" font-family="Helvetica,sans-Serif" font-size="10.00">json/value.h</text>
</a>
</g>
<!-- Node9&#45;&gt;Node25 -->
<g id="edge54" class="edge"><title>Node9&#45;&gt;Node25</title>
<path fill="none" stroke="midnightblue" d="M1265.62,-59.4C1261.01,-58.8994 1256.44,-58.4275 1252,-58 1019.01,-35.588 955.233,-58.8995 720.827,-22.0608"/>
<polygon fill="midnightblue" stroke="midnightblue" points="721.045,-18.5516 710.619,-20.4358 719.945,-25.4645 721.045,-18.5516"/>
</g>
<!-- Node26 -->
<g id="node54" class="node"><title>Node26</title>
<polygon fill="white" stroke="#bfbfbf" points="728,-0.5 728,-21.5 800,-21.5 800,-0.5 728,-0.5"/>
<text text-anchor="middle" x="764" y="-8.5" font-family="Helvetica,sans-Serif" font-size="10.00">json/json.tcc</text>
</g>
<!-- Node9&#45;&gt;Node26 -->
<g id="edge56" class="edge"><title>Node9&#45;&gt;Node26</title>
<path fill="none" stroke="midnightblue" d="M1265.61,-59.4715C1261.01,-58.9531 1256.44,-58.4578 1252,-58 1058.77,-38.0808 1005.75,-53.0373 810.272,-21.9958"/>
<polygon fill="midnightblue" stroke="midnightblue" points="810.677,-18.5161 800.248,-20.384 809.566,-25.4273 810.677,-18.5161"/>
</g>
<!-- Node27 -->
<g id="node56" class="node"><title>Node27</title>
<polygon fill="white" stroke="#bfbfbf" points="818,-0.5 818,-21.5 898,-21.5 898,-0.5 818,-0.5"/>
<text text-anchor="middle" x="858" y="-8.5" font-family="Helvetica,sans-Serif" font-size="10.00">json/object.tcc</text>
</g>
<!-- Node9&#45;&gt;Node27 -->
<g id="edge58" class="edge"><title>Node9&#45;&gt;Node27</title>
<path fill="none" stroke="midnightblue" d="M1265.6,-59.5913C1261,-59.0432 1256.44,-58.5086 1252,-58 1102.13,-40.8154 1060.9,-46.659 908.255,-22.0535"/>
<polygon fill="midnightblue" stroke="midnightblue" points="908.47,-18.5424 898.037,-20.3881 907.344,-25.4513 908.47,-18.5424"/>
</g>
<!-- Node28 -->
<g id="node58" class="node"><title>Node28</title>
<polygon fill="white" stroke="#bfbfbf" points="916,-0.5 916,-21.5 992,-21.5 992,-0.5 916,-0.5"/>
<text text-anchor="middle" x="954" y="-8.5" font-family="Helvetica,sans-Serif" font-size="10.00">json/array.tcc</text>
</g>
<!-- Node9&#45;&gt;Node28 -->
<g id="edge60" class="edge"><title>Node9&#45;&gt;Node28</title>
<path fill="none" stroke="midnightblue" d="M1265.88,-59.5366C1186.49,-49.2635 1064.54,-33.0591 1002.33,-22.0897"/>
<polygon fill="midnightblue" stroke="midnightblue" points="1002.62,-18.5848 992.157,-20.2406 1001.37,-25.472 1002.62,-18.5848"/>
</g>
<!-- Node29 -->
<g id="node60" class="node"><title>Node29</title>
<polygon fill="white" stroke="#bfbfbf" points="1009.5,-0.5 1009.5,-21.5 1086.5,-21.5 1086.5,-0.5 1009.5,-0.5"/>
<text text-anchor="middle" x="1048" y="-8.5" font-family="Helvetica,sans-Serif" font-size="10.00">json/value.tcc</text>
</g>
<!-- Node9&#45;&gt;Node29 -->
<g id="edge62" class="edge"><title>Node9&#45;&gt;Node29</title>
<path fill="none" stroke="midnightblue" d="M1281.45,-58.4554C1234.07,-49.7639 1165.35,-36.8094 1096.81,-22.3345"/>
<polygon fill="midnightblue" stroke="midnightblue" points="1097.21,-18.8415 1086.7,-20.1882 1095.76,-25.6888 1097.21,-18.8415"/>
</g>
<!-- Node32 -->
<g id="node66" class="node"><title>Node32</title>
<polygon fill="white" stroke="#bfbfbf" points="2376,-0.5 2376,-21.5 2428,-21.5 2428,-0.5 2376,-0.5"/>
<text text-anchor="middle" x="2402" y="-8.5" font-family="Helvetica,sans-Serif" font-size="10.00">stdarg.h</text>
</g>
<!-- Node31&#45;&gt;Node32 -->
<g id="edge68" class="edge"><title>Node31&#45;&gt;Node32</title>
<path fill="none" stroke="midnightblue" d="M2090.75,-59.3219C2093.54,-58.8642 2096.3,-58.4207 2099,-58 2214.62,-39.9865 2247.95,-47.6767 2365.98,-21.9425"/>
<polygon fill="midnightblue" stroke="midnightblue" points="2366.75,-25.3563 2375.76,-19.777 2365.24,-18.5219 2366.75,-25.3563"/>
</g>
<!-- Node33&#45;&gt;Node8 -->
<g id="edge74" class="edge"><title>Node33&#45;&gt;Node8</title>
<path fill="none" stroke="midnightblue" d="M1966.19,-60.3043C1969.16,-59.5029 1972.13,-58.7218 1975,-58 2043.45,-40.7561 2064.54,-42.9019 2135.36,-22.2217"/>
<polygon fill="midnightblue" stroke="midnightblue" points="2136.63,-25.4983 2145.21,-19.2944 2134.63,-18.7884 2136.63,-25.4983"/>
</g>
<!-- Node33&#45;&gt;Node20 -->
<g id="edge72" class="edge"><title>Node33&#45;&gt;Node20</title>
<path fill="none" stroke="midnightblue" d="M1966.15,-60.1341C1969.13,-59.3671 1972.12,-58.6406 1975,-58 2068.6,-37.2103 2097.21,-46.0437 2193.91,-21.9349"/>
<polygon fill="midnightblue" stroke="midnightblue" points="2194.97,-25.2753 2203.8,-19.4145 2193.24,-18.4921 2194.97,-25.2753"/>
</g>
<!-- Node34 -->
<g id="node72" class="node"><title>Node34</title>
<polygon fill="white" stroke="#bfbfbf" points="2265.5,-0.5 2265.5,-21.5 2300.5,-21.5 2300.5,-0.5 2265.5,-0.5"/>
<text text-anchor="middle" x="2283" y="-8.5" font-family="Helvetica,sans-Serif" font-size="10.00">map</text>
</g>
<!-- Node33&#45;&gt;Node34 -->
<g id="edge76" class="edge"><title>Node33&#45;&gt;Node34</title>
<path fill="none" stroke="midnightblue" d="M1966.13,-60.0274C1969.11,-59.282 1972.1,-58.5897 1975,-58 2095.66,-33.4218 2133.12,-53.8286 2255.58,-21.8411"/>
<polygon fill="midnightblue" stroke="midnightblue" points="2256.57,-25.1989 2265.32,-19.2326 2254.76,-18.4369 2256.57,-25.1989"/>
</g>
<!-- Node35 -->
<g id="node74" class="node"><title>Node35</title>
<polygon fill="white" stroke="#bfbfbf" points="2318,-0.5 2318,-21.5 2358,-21.5 2358,-0.5 2318,-0.5"/>
<text text-anchor="middle" x="2338" y="-8.5" font-family="Helvetica,sans-Serif" font-size="10.00">utility</text>
</g>
<!-- Node33&#45;&gt;Node35 -->
<g id="edge78" class="edge"><title>Node33&#45;&gt;Node35</title>
<path fill="none" stroke="midnightblue" d="M1966.11,-59.9678C1969.1,-59.2346 1972.1,-58.5613 1975,-58 2118.44,-30.2449 2161.94,-55.6184 2308.14,-21.6877"/>
<polygon fill="midnightblue" stroke="midnightblue" points="2309,-25.0809 2317.93,-19.3658 2307.39,-18.2702 2309,-25.0809"/>
</g>
</g>
</svg>
        <g id="navigator" transform="translate(0 0)" fill="#404254">
                <rect fill="#f2f5e9" fill-opacity="0.5" stroke="#606060" stroke-width=".5" x="0" y="0" width="60" height="60"/>
                <use id="zoomplus" xlink:href="#zoomPlus" x="17" y="9" onmousedown="handleZoom(evt,'in')"/>
                <use id="zoomminus" xlink:href="#zoomMin" x="42" y="9" onmousedown="handleZoom(evt,'out')"/>
                <use id="reset" xlink:href="#resetDef" x="30" y="36" onmousedown="handleReset()"/>
                <g id="arrowUp" xlink:href="#dirArrow" transform="translate(30 24)" onmousedown="handlePan(0,-1)">
                  <use xlink:href="#rim" fill="#404040">
                        <set attributeName="fill" to="#808080" begin="arrowUp.mouseover" end="arrowUp.mouseout"/>
                  </use>
                  <path fill="none" stroke="white" stroke-width="1.5" d="M0,-3.0v7 M-2.5,-0.5L0,-3.0L2.5,-0.5"/>
                </g>
                <g id="arrowRight" xlink:href="#dirArrow" transform="rotate(90) translate(36 -43)" onmousedown="handlePan(1,0)">
                  <use xlink:href="#rim" fill="#404040">
                        <set attributeName="fill" to="#808080" begin="arrowRight.mouseover" end="arrowRight.mouseout"/>
                  </use>
                  <path fill="none" stroke="white" stroke-width="1.5" d="M0,-3.0v7 M-2.5,-0.5L0,-3.0L2.5,-0.5"/>
                </g>
                <g id="arrowDown" xlink:href="#dirArrow" transform="rotate(180) translate(-30 -48)" onmousedown="handlePan(0,1)">
                  <use xlink:href="#rim" fill="#404040">
                        <set attributeName="fill" to="#808080" begin="arrowDown.mouseover" end="arrowDown.mouseout"/>
                  </use>
                  <path fill="none" stroke="white" stroke-width="1.5" d="M0,-3.0v7 M-2.5,-0.5L0,-3.0L2.5,-0.5"/>
                </g>
                <g id="arrowLeft" xlink:href="#dirArrow" transform="rotate(270) translate(-36 17)" onmousedown="handlePan(-1,0)">
                  <use xlink:href="#rim" fill="#404040">
                        <set attributeName="fill" to="#808080" begin="arrowLeft.mouseover" end="arrowLeft.mouseout"/>
                  </use>
                  <path fill="none" stroke="white" stroke-width="1.5" d="M0,-3.0v7 M-2.5,-0.5L0,-3.0L2.5,-0.5"/>
                </g>
        </g>
</svg>
