<?xml version="1.0" encoding="UTF-8" standalone="no"?>
<!DOCTYPE svg PUBLIC "-//W3C//DTD SVG 1.1//EN"
 "http://www.w3.org/Graphics/SVG/1.1/DTD/svg11.dtd">
<!-- Generated by graphviz version 2.26.3 (20100126.1600)
 -->
<!-- Title: G Pages: 1 -->
<svg width="134pt" height="102pt"
 viewBox="0.00 0.00 134.00 102.00" xmlns="http://www.w3.org/2000/svg" xmlns:xlink="http://www.w3.org/1999/xlink">
<g id="graph1" class="graph" transform="scale(1 1) rotate(0) translate(4 98)">
<title>G</title>
<polygon fill="white" stroke="white" points="-4,5 -4,-98 131,-98 131,5 -4,5"/>
<!-- Node1 -->
<g id="node1" class="node"><title>Node1</title>
<polygon fill="#bfbfbf" stroke="black" points="8.5,-0.5 8.5,-21.5 69.5,-21.5 69.5,-0.5 8.5,-0.5"/>
<text text-anchor="middle" x="39" y="-8.5" font-family="Helvetica,sans-Serif" font-size="10.00">Lookaside</text>
</g>
<!-- Node2 -->
<g id="node2" class="node"><title>Node2</title>
<a xlink:href="../../dd/d17/struct_lookaside_slot.html" target="_top" xlink:title="LookasideSlot">
<polygon fill="white" stroke="black" points="0,-72.5 0,-93.5 78,-93.5 78,-72.5 0,-72.5"/>
<text text-anchor="middle" x="39" y="-80.5" font-family="Helvetica,sans-Serif" font-size="10.00">LookasideSlot</text>
</a>
</g>
<!-- Node2&#45;&gt;Node1 -->
<g id="edge2" class="edge"><title>Node2&#45;&gt;Node1</title>
<path fill="none" stroke="#9a32cd" stroke-dasharray="5,2" d="M39,-62.2348C39,-48.969 39,-32.3188 39,-21.6674"/>
<polygon fill="#9a32cd" stroke="#9a32cd" points="35.5001,-62.3761 39,-72.3762 42.5001,-62.3762 35.5001,-62.3761"/>
<text text-anchor="middle" x="53" y="-44.5" font-family="Helvetica,sans-Serif" font-size="10.00"> pFree</text>
</g>
<!-- Node2&#45;&gt;Node2 -->
<g id="edge4" class="edge"><title>Node2&#45;&gt;Node2</title>
<path fill="none" stroke="#9a32cd" stroke-dasharray="5,2" d="M88.2752,-88.4522C93.0046,-87.3443 96,-85.5269 96,-83 96,-78.957 88.3317,-76.7302 78.1622,-76.3196"/>
<polygon fill="#9a32cd" stroke="#9a32cd" points="87.6673,-85.0003 78.1622,-89.6804 88.5112,-91.9492 87.6673,-85.0003"/>
<text text-anchor="middle" x="111" y="-80.5" font-family="Helvetica,sans-Serif" font-size="10.00"> pNext</text>
</g>
</g>
</svg>
