<?xml version="1.0" encoding="UTF-8" standalone="no"?>
<!DOCTYPE svg PUBLIC "-//W3C//DTD SVG 1.1//EN"
 "http://www.w3.org/Graphics/SVG/1.1/DTD/svg11.dtd">
<!-- Generated by graphviz version 2.26.3 (20100126.1600)
 -->
<!-- Title: G Pages: 1 -->
<svg width="231pt" height="250pt"
 viewBox="0.00 0.00 231.00 250.00" xmlns="http://www.w3.org/2000/svg" xmlns:xlink="http://www.w3.org/1999/xlink">
<g id="graph1" class="graph" transform="scale(1 1) rotate(0) translate(4 246)">
<title>G</title>
<polygon fill="white" stroke="white" points="-4,5 -4,-246 228,-246 228,5 -4,5"/>
<!-- Node1 -->
<g id="node1" class="node"><title>Node1</title>
<polygon fill="#bfbfbf" stroke="black" points="101.5,-146.5 101.5,-167.5 176.5,-167.5 176.5,-146.5 101.5,-146.5"/>
<text text-anchor="middle" x="139" y="-154.5" font-family="Helvetica,sans-Serif" font-size="10.00">unixInodeInfo</text>
</g>
<!-- Node1&#45;&gt;Node1 -->
<g id="edge6" class="edge"><title>Node1&#45;&gt;Node1</title>
<path fill="none" stroke="#9a32cd" stroke-dasharray="5,2" d="M186.771,-162.697C191.204,-161.522 194,-159.623 194,-157 194,-152.695 186.472,-150.341 176.532,-149.938"/>
<polygon fill="#9a32cd" stroke="#9a32cd" points="185.981,-159.271 176.532,-164.062 186.907,-166.209 185.981,-159.271"/>
<text text-anchor="middle" x="208.5" y="-161" font-family="Helvetica,sans-Serif" font-size="10.00"> pPrev</text>
<text text-anchor="middle" x="208.5" y="-148" font-family="Helvetica,sans-Serif" font-size="10.00">pNext</text>
</g>
<!-- Node4 -->
<g id="node8" class="node"><title>Node4</title>
<a xlink:href="../../d4/db1/structunix_shm_node.html" target="_top" xlink:title="unixShmNode">
<polygon fill="white" stroke="black" points="53,-72.5 53,-93.5 131,-93.5 131,-72.5 53,-72.5"/>
<text text-anchor="middle" x="92" y="-80.5" font-family="Helvetica,sans-Serif" font-size="10.00">unixShmNode</text>
</a>
</g>
<!-- Node1&#45;&gt;Node4 -->
<g id="edge20" class="edge"><title>Node1&#45;&gt;Node4</title>
<path fill="none" stroke="#9a32cd" stroke-dasharray="5,2" d="M102.971,-141.07C97.367,-136.98 92.3374,-131.996 89,-126 83.4679,-116.061 85.5628,-102.765 88.1779,-93.603"/>
<polygon fill="#9a32cd" stroke="#9a32cd" points="101.138,-144.052 111.461,-146.437 104.878,-138.135 101.138,-144.052"/>
<text text-anchor="middle" x="105.5" y="-116.5" font-family="Helvetica,sans-Serif" font-size="10.00"> pInode</text>
</g>
<!-- Node2 -->
<g id="node2" class="node"><title>Node2</title>
<a xlink:href="../../dd/d77/struct_unix_unused_fd.html" target="_top" xlink:title="UnixUnusedFd">
<polygon fill="white" stroke="black" points="12,-220.5 12,-241.5 94,-241.5 94,-220.5 12,-220.5"/>
<text text-anchor="middle" x="53" y="-228.5" font-family="Helvetica,sans-Serif" font-size="10.00">UnixUnusedFd</text>
</a>
</g>
<!-- Node2&#45;&gt;Node1 -->
<g id="edge2" class="edge"><title>Node2&#45;&gt;Node1</title>
<path fill="none" stroke="#9a32cd" stroke-dasharray="5,2" d="M73.3372,-213.501C89.9165,-199.235 112.789,-179.554 126.701,-167.583"/>
<polygon fill="#9a32cd" stroke="#9a32cd" points="70.619,-211.222 65.3217,-220.398 75.1847,-216.528 70.619,-211.222"/>
<text text-anchor="middle" x="122.5" y="-192.5" font-family="Helvetica,sans-Serif" font-size="10.00"> pUnused</text>
</g>
<!-- Node2&#45;&gt;Node2 -->
<g id="edge4" class="edge"><title>Node2&#45;&gt;Node2</title>
<path fill="none" stroke="#9a32cd" stroke-dasharray="5,2" d="M104.258,-236.394C109.006,-235.281 112,-233.483 112,-231 112,-227.027 104.336,-224.808 94.0831,-224.343"/>
<polygon fill="#9a32cd" stroke="#9a32cd" points="103.576,-232.952 94.0831,-237.657 104.438,-239.898 103.576,-232.952"/>
<text text-anchor="middle" x="127" y="-228.5" font-family="Helvetica,sans-Serif" font-size="10.00"> pNext</text>
</g>
<!-- Node3 -->
<g id="node6" class="node"><title>Node3</title>
<a xlink:href="../../d2/d56/structunix_file_id.html" target="_top" xlink:title="unixFileId">
<polygon fill="white" stroke="black" points="159.5,-220.5 159.5,-241.5 218.5,-241.5 218.5,-220.5 159.5,-220.5"/>
<text text-anchor="middle" x="189" y="-228.5" font-family="Helvetica,sans-Serif" font-size="10.00">unixFileId</text>
</a>
</g>
<!-- Node3&#45;&gt;Node1 -->
<g id="edge8" class="edge"><title>Node3&#45;&gt;Node1</title>
<path fill="none" stroke="#9a32cd" stroke-dasharray="5,2" d="M176.101,-211.909C166.568,-197.801 153.942,-179.114 146.15,-167.583"/>
<polygon fill="#9a32cd" stroke="#9a32cd" points="173.338,-214.071 181.836,-220.398 179.138,-210.152 173.338,-214.071"/>
<text text-anchor="middle" x="180.5" y="-192.5" font-family="Helvetica,sans-Serif" font-size="10.00"> fileId</text>
</g>
<!-- Node4&#45;&gt;Node1 -->
<g id="edge10" class="edge"><title>Node4&#45;&gt;Node1</title>
<path fill="none" stroke="#9a32cd" stroke-dasharray="5,2" d="M115.918,-100.213C119.695,-103.769 123.253,-107.742 126,-112 132.789,-122.524 136.114,-136.67 137.686,-146.273"/>
<polygon fill="#9a32cd" stroke="#9a32cd" points="117.939,-97.3379 108.048,-93.5408 113.412,-102.677 117.939,-97.3379"/>
<text text-anchor="middle" x="158" y="-116.5" font-family="Helvetica,sans-Serif" font-size="10.00"> pShmNode</text>
</g>
<!-- Node6 -->
<g id="node12" class="node"><title>Node6</title>
<a xlink:href="../../d6/d7e/structunix_shm.html" target="_top" xlink:title="unixShm">
<polygon fill="white" stroke="black" points="64.5,-0.5 64.5,-21.5 119.5,-21.5 119.5,-0.5 64.5,-0.5"/>
<text text-anchor="middle" x="92" y="-8.5" font-family="Helvetica,sans-Serif" font-size="10.00">unixShm</text>
</a>
</g>
<!-- Node4&#45;&gt;Node6 -->
<g id="edge18" class="edge"><title>Node4&#45;&gt;Node6</title>
<path fill="none" stroke="#9a32cd" stroke-dasharray="5,2" d="M61.8576,-66.257C57.8863,-62.7386 54.3753,-58.656 52,-54 45.5132,-41.2849 58.0842,-29.6168 70.8086,-21.6533"/>
<polygon fill="#9a32cd" stroke="#9a32cd" points="59.798,-69.0876 69.8846,-72.3299 64.0215,-63.5052 59.798,-69.0876"/>
<text text-anchor="middle" x="78" y="-44.5" font-family="Helvetica,sans-Serif" font-size="10.00"> pShmNode</text>
</g>
<!-- Node5 -->
<g id="node10" class="node"><title>Node5</title>
<a xlink:href="../../d5/d3c/structsqlite3__mutex.html" target="_top" xlink:title="sqlite3_mutex">
<polygon fill="white" stroke="black" points="-0.5,-146.5 -0.5,-167.5 76.5,-167.5 76.5,-146.5 -0.5,-146.5"/>
<text text-anchor="middle" x="38" y="-154.5" font-family="Helvetica,sans-Serif" font-size="10.00">sqlite3_mutex</text>
</a>
</g>
<!-- Node5&#45;&gt;Node4 -->
<g id="edge12" class="edge"><title>Node5&#45;&gt;Node4</title>
<path fill="none" stroke="#9a32cd" stroke-dasharray="5,2" d="M40.8827,-136.552C42.7739,-128.364 45.8878,-119.188 51,-112 56.2552,-104.611 64.0072,-98.4392 71.36,-93.7154"/>
<polygon fill="#9a32cd" stroke="#9a32cd" points="37.4205,-136.026 39.0356,-146.497 44.3028,-137.305 37.4205,-136.026"/>
<text text-anchor="middle" x="66.5" y="-116.5" font-family="Helvetica,sans-Serif" font-size="10.00"> mutex</text>
</g>
<!-- Node6&#45;&gt;Node4 -->
<g id="edge14" class="edge"><title>Node6&#45;&gt;Node4</title>
<path fill="none" stroke="#9a32cd" stroke-dasharray="5,2" d="M104.553,-30.704C105.971,-33.7189 107.194,-36.8712 108,-40 109.552,-46.0256 109.552,-47.9744 108,-54 106.336,-60.4594 102.895,-67.0193 99.629,-72.2624"/>
<polygon fill="#9a32cd" stroke="#9a32cd" points="107.511,-28.818 99.629,-21.7376 101.375,-32.1876 107.511,-28.818"/>
<text text-anchor="middle" x="123" y="-44.5" font-family="Helvetica,sans-Serif" font-size="10.00"> pFirst</text>
</g>
<!-- Node6&#45;&gt;Node6 -->
<g id="edge16" class="edge"><title>Node6&#45;&gt;Node6</title>
<path fill="none" stroke="#9a32cd" stroke-dasharray="5,2" d="M129.715,-16.7696C134.127,-15.7082 137,-13.785 137,-11 137,-6.42969 129.264,-4.18024 119.684,-4.25165"/>
<polygon fill="#9a32cd" stroke="#9a32cd" points="129.297,-13.2937 119.684,-17.7484 129.977,-20.2606 129.297,-13.2937"/>
<text text-anchor="middle" x="152" y="-8.5" font-family="Helvetica,sans-Serif" font-size="10.00"> pNext</text>
</g>
</g>
</svg>
