<?xml version="1.0" encoding="UTF-8" standalone="no"?>
<!DOCTYPE svg PUBLIC "-//W3C//DTD SVG 1.1//EN"
 "http://www.w3.org/Graphics/SVG/1.1/DTD/svg11.dtd">
<!-- Generated by graphviz version 2.26.3 (20100126.1600)
 -->
<!-- Title: G Pages: 1 -->
<svg width="102pt" height="174pt"
 viewBox="0.00 0.00 102.00 174.00" xmlns="http://www.w3.org/2000/svg" xmlns:xlink="http://www.w3.org/1999/xlink">
<g id="graph1" class="graph" transform="scale(1 1) rotate(0) translate(4 170)">
<title>G</title>
<polygon fill="white" stroke="white" points="-4,5 -4,-170 99,-170 99,5 -4,5"/>
<!-- Node1 -->
<g id="node1" class="node"><title>Node1</title>
<polygon fill="#bfbfbf" stroke="black" points="17.5,-0.5 17.5,-21.5 76.5,-21.5 76.5,-0.5 17.5,-0.5"/>
<text text-anchor="middle" x="47" y="-8.5" font-family="Helvetica,sans-Serif" font-size="10.00">TrigEvent</text>
</g>
<!-- Node2 -->
<g id="node2" class="node"><title>Node2</title>
<a xlink:href="../../d6/d05/struct_id_list.html" target="_top" xlink:title="IdList">
<polygon fill="white" stroke="black" points="26.5,-72.5 26.5,-93.5 67.5,-93.5 67.5,-72.5 26.5,-72.5"/>
<text text-anchor="middle" x="47" y="-80.5" font-family="Helvetica,sans-Serif" font-size="10.00">IdList</text>
</a>
</g>
<!-- Node2&#45;&gt;Node1 -->
<g id="edge2" class="edge"><title>Node2&#45;&gt;Node1</title>
<path fill="none" stroke="#9a32cd" stroke-dasharray="5,2" d="M47,-62.2348C47,-48.969 47,-32.3188 47,-21.6674"/>
<polygon fill="#9a32cd" stroke="#9a32cd" points="43.5001,-62.3761 47,-72.3762 50.5001,-62.3762 43.5001,-62.3761"/>
<text text-anchor="middle" x="51.5" y="-44.5" font-family="Helvetica,sans-Serif" font-size="10.00"> b</text>
</g>
<!-- Node3 -->
<g id="node4" class="node"><title>Node3</title>
<a xlink:href="../../d2/d66/struct_id_list_1_1_id_list__item.html" target="_top" xlink:title="IdList::IdList_item">
<polygon fill="white" stroke="black" points="-0.5,-144.5 -0.5,-165.5 94.5,-165.5 94.5,-144.5 -0.5,-144.5"/>
<text text-anchor="middle" x="47" y="-152.5" font-family="Helvetica,sans-Serif" font-size="10.00">IdList::IdList_item</text>
</a>
</g>
<!-- Node3&#45;&gt;Node2 -->
<g id="edge4" class="edge"><title>Node3&#45;&gt;Node2</title>
<path fill="none" stroke="#9a32cd" stroke-dasharray="5,2" d="M47,-134.235C47,-120.969 47,-104.319 47,-93.6674"/>
<polygon fill="#9a32cd" stroke="#9a32cd" points="43.5001,-134.376 47,-144.376 50.5001,-134.376 43.5001,-134.376"/>
<text text-anchor="middle" x="51.5" y="-116.5" font-family="Helvetica,sans-Serif" font-size="10.00"> a</text>
</g>
</g>
</svg>
