<?xml version="1.0" encoding="UTF-8" standalone="no"?>
<!DOCTYPE svg PUBLIC "-//W3C//DTD SVG 1.1//EN"
 "http://www.w3.org/Graphics/SVG/1.1/DTD/svg11.dtd">
<!-- Generated by graphviz version 2.26.3 (20100126.1600)
 -->
<!-- Title: G Pages: 1 -->
<svg width="164pt" height="106pt"
 viewBox="0.00 0.00 164.00 106.00" xmlns="http://www.w3.org/2000/svg" xmlns:xlink="http://www.w3.org/1999/xlink">
<g id="graph1" class="graph" transform="scale(1 1) rotate(0) translate(4 102)">
<title>G</title>
<polygon fill="white" stroke="white" points="-4,5 -4,-102 161,-102 161,5 -4,5"/>
<!-- Node1 -->
<g id="node1" class="node"><title>Node1</title>
<polygon fill="#bfbfbf" stroke="black" points="0,-0.5 0,-21.5 80,-21.5 80,-0.5 0,-0.5"/>
<text text-anchor="middle" x="40" y="-8.5" font-family="Helvetica,sans-Serif" font-size="10.00">RowSetChunk</text>
</g>
<!-- Node1&#45;&gt;Node1 -->
<g id="edge2" class="edge"><title>Node1&#45;&gt;Node1</title>
<path fill="none" stroke="#9a32cd" stroke-dasharray="5,2" d="M90.2648,-16.4232C95.0048,-15.3126 98,-13.5049 98,-11 98,-6.99219 90.3323,-4.7691 80.1186,-4.33075"/>
<polygon fill="#9a32cd" stroke="#9a32cd" points="89.6174,-12.9763 80.1186,-17.6693 90.4707,-19.9241 89.6174,-12.9763"/>
<text text-anchor="middle" x="127" y="-8.5" font-family="Helvetica,sans-Serif" font-size="10.00"> pNextChunk</text>
</g>
<!-- Node2 -->
<g id="node3" class="node"><title>Node2</title>
<a xlink:href="../../da/d66/struct_row_set_entry.html" target="_top" xlink:title="RowSetEntry">
<polygon fill="white" stroke="black" points="2.5,-74.5 2.5,-95.5 77.5,-95.5 77.5,-74.5 2.5,-74.5"/>
<text text-anchor="middle" x="40" y="-82.5" font-family="Helvetica,sans-Serif" font-size="10.00">RowSetEntry</text>
</a>
</g>
<!-- Node2&#45;&gt;Node1 -->
<g id="edge4" class="edge"><title>Node2&#45;&gt;Node1</title>
<path fill="none" stroke="#9a32cd" stroke-dasharray="5,2" d="M40,-64.2771C40,-50.3872 40,-32.675 40,-21.5827"/>
<polygon fill="#9a32cd" stroke="#9a32cd" points="36.5001,-64.3976 40,-74.3976 43.5001,-64.3976 36.5001,-64.3976"/>
<text text-anchor="middle" x="56" y="-44.5" font-family="Helvetica,sans-Serif" font-size="10.00"> aEntry</text>
</g>
<!-- Node2&#45;&gt;Node2 -->
<g id="edge6" class="edge"><title>Node2&#45;&gt;Node2</title>
<path fill="none" stroke="#9a32cd" stroke-dasharray="5,2" d="M87.7711,-90.6966C92.2044,-89.522 95,-87.6232 95,-85 95,-80.6953 87.4715,-78.3412 77.5316,-77.9376"/>
<polygon fill="#9a32cd" stroke="#9a32cd" points="86.981,-87.2709 77.5316,-92.0624 87.9066,-94.2094 86.981,-87.2709"/>
<text text-anchor="middle" x="111" y="-89" font-family="Helvetica,sans-Serif" font-size="10.00"> pRight</text>
<text text-anchor="middle" x="111" y="-76" font-family="Helvetica,sans-Serif" font-size="10.00">pLeft</text>
</g>
</g>
</svg>
