<?xml version="1.0" encoding="UTF-8" standalone="no"?>
<!DOCTYPE svg PUBLIC "-//W3C//DTD SVG 1.1//EN"
 "http://www.w3.org/Graphics/SVG/1.1/DTD/svg11.dtd">
<!-- Generated by graphviz version 2.26.3 (20100126.1600)
 -->
<!-- Title: G Pages: 1 -->
<svg width="476pt" height="178pt"
 viewBox="0.00 0.00 476.00 178.00" xmlns="http://www.w3.org/2000/svg" xmlns:xlink="http://www.w3.org/1999/xlink">
<g id="graph1" class="graph" transform="scale(1 1) rotate(0) translate(4 174)">
<title>G</title>
<polygon fill="white" stroke="white" points="-4,5 -4,-174 473,-174 473,5 -4,5"/>
<!-- Node1 -->
<g id="node1" class="node"><title>Node1</title>
<polygon fill="#bfbfbf" stroke="black" points="289,-76.5 289,-97.5 367,-97.5 367,-76.5 289,-76.5"/>
<text text-anchor="middle" x="328" y="-84.5" font-family="Helvetica,sans-Serif" font-size="10.00">unixShmNode</text>
</g>
<!-- Node3 -->
<g id="node4" class="node"><title>Node3</title>
<a xlink:href="../../d6/d7e/structunix_shm.html" target="_top" xlink:title="unixShm">
<polygon fill="white" stroke="black" points="365.5,-2.5 365.5,-23.5 420.5,-23.5 420.5,-2.5 365.5,-2.5"/>
<text text-anchor="middle" x="393" y="-10.5" font-family="Helvetica,sans-Serif" font-size="10.00">unixShm</text>
</a>
</g>
<!-- Node1&#45;&gt;Node3 -->
<g id="edge8" class="edge"><title>Node1&#45;&gt;Node3</title>
<path fill="none" stroke="#9a32cd" stroke-dasharray="5,2" d="M337.378,-67.2949C341.561,-59.5847 346.921,-50.9441 353,-44 359.829,-36.1994 368.861,-29.0036 376.614,-23.5124"/>
<polygon fill="#9a32cd" stroke="#9a32cd" points="334.177,-65.8682 332.745,-76.3658 340.411,-69.0523 334.177,-65.8682"/>
<text text-anchor="middle" x="379" y="-48.5" font-family="Helvetica,sans-Serif" font-size="10.00"> pShmNode</text>
</g>
<!-- Node4 -->
<g id="node8" class="node"><title>Node4</title>
<a xlink:href="../../d0/d86/structunix_inode_info.html" target="_top" xlink:title="unixInodeInfo">
<polygon fill="white" stroke="black" points="163.5,-2.5 163.5,-23.5 238.5,-23.5 238.5,-2.5 163.5,-2.5"/>
<text text-anchor="middle" x="201" y="-10.5" font-family="Helvetica,sans-Serif" font-size="10.00">unixInodeInfo</text>
</a>
</g>
<!-- Node1&#45;&gt;Node4 -->
<g id="edge20" class="edge"><title>Node1&#45;&gt;Node4</title>
<path fill="none" stroke="#9a32cd" stroke-dasharray="5,2" d="M279.124,-77.7681C255.765,-72.5475 230.965,-65.5606 222,-58 211.587,-49.2183 206.028,-34.1351 203.298,-23.8739"/>
<polygon fill="#9a32cd" stroke="#9a32cd" points="278.483,-81.2103 288.996,-79.8939 279.957,-74.3672 278.483,-81.2103"/>
<text text-anchor="middle" x="248" y="-48.5" font-family="Helvetica,sans-Serif" font-size="10.00"> pShmNode</text>
</g>
<!-- Node2 -->
<g id="node2" class="node"><title>Node2</title>
<a xlink:href="../../d5/d3c/structsqlite3__mutex.html" target="_top" xlink:title="sqlite3_mutex">
<polygon fill="white" stroke="black" points="289.5,-148.5 289.5,-169.5 366.5,-169.5 366.5,-148.5 289.5,-148.5"/>
<text text-anchor="middle" x="328" y="-156.5" font-family="Helvetica,sans-Serif" font-size="10.00">sqlite3_mutex</text>
</a>
</g>
<!-- Node2&#45;&gt;Node1 -->
<g id="edge2" class="edge"><title>Node2&#45;&gt;Node1</title>
<path fill="none" stroke="#9a32cd" stroke-dasharray="5,2" d="M328,-138.235C328,-124.969 328,-108.319 328,-97.6674"/>
<polygon fill="#9a32cd" stroke="#9a32cd" points="324.5,-138.376 328,-148.376 331.5,-138.376 324.5,-138.376"/>
<text text-anchor="middle" x="343.5" y="-120.5" font-family="Helvetica,sans-Serif" font-size="10.00"> mutex</text>
</g>
<!-- Node3&#45;&gt;Node1 -->
<g id="edge4" class="edge"><title>Node3&#45;&gt;Node1</title>
<path fill="none" stroke="#9a32cd" stroke-dasharray="5,2" d="M407.438,-32.2448C411.905,-40.6575 414.399,-50.3327 409,-58 403.754,-65.4498 385.112,-72.3852 367.034,-77.6047"/>
<polygon fill="#9a32cd" stroke="#9a32cd" points="410.389,-30.362 402.097,-23.7664 404.466,-34.0931 410.389,-30.362"/>
<text text-anchor="middle" x="426" y="-48.5" font-family="Helvetica,sans-Serif" font-size="10.00"> pFirst</text>
</g>
<!-- Node3&#45;&gt;Node3 -->
<g id="edge6" class="edge"><title>Node3&#45;&gt;Node3</title>
<path fill="none" stroke="#9a32cd" stroke-dasharray="5,2" d="M430.715,-19.0902C435.127,-17.9698 438,-15.9398 438,-13 438,-8.17578 430.264,-5.80136 420.684,-5.87674"/>
<polygon fill="#9a32cd" stroke="#9a32cd" points="430.273,-15.6171 420.684,-20.1233 430.99,-22.5803 430.273,-15.6171"/>
<text text-anchor="middle" x="453" y="-10.5" font-family="Helvetica,sans-Serif" font-size="10.00"> pNext</text>
</g>
<!-- Node4&#45;&gt;Node1 -->
<g id="edge10" class="edge"><title>Node4&#45;&gt;Node1</title>
<path fill="none" stroke="#9a32cd" stroke-dasharray="5,2" d="M243.474,-27.2188C255.044,-31.8535 267.323,-37.5053 278,-44 293.064,-53.1633 308.098,-66.8627 317.687,-76.3248"/>
<polygon fill="#9a32cd" stroke="#9a32cd" points="244.562,-23.8875 233.972,-23.5687 242.052,-30.422 244.562,-23.8875"/>
<text text-anchor="middle" x="313.5" y="-48.5" font-family="Helvetica,sans-Serif" font-size="10.00"> pInode</text>
</g>
<!-- Node4&#45;&gt;Node4 -->
<g id="edge16" class="edge"><title>Node4&#45;&gt;Node4</title>
<path fill="none" stroke="#9a32cd" stroke-dasharray="5,2" d="M248.771,-18.6966C253.204,-17.522 256,-15.6232 256,-13 256,-8.69531 248.472,-6.34119 238.532,-5.93762"/>
<polygon fill="#9a32cd" stroke="#9a32cd" points="247.981,-15.2709 238.532,-20.0624 248.907,-22.2094 247.981,-15.2709"/>
<text text-anchor="middle" x="270.5" y="-17" font-family="Helvetica,sans-Serif" font-size="10.00"> pPrev</text>
<text text-anchor="middle" x="270.5" y="-4" font-family="Helvetica,sans-Serif" font-size="10.00">pNext</text>
</g>
<!-- Node5 -->
<g id="node10" class="node"><title>Node5</title>
<a xlink:href="../../dd/d77/struct_unix_unused_fd.html" target="_top" xlink:title="UnixUnusedFd">
<polygon fill="white" stroke="black" points="0,-76.5 0,-97.5 82,-97.5 82,-76.5 0,-76.5"/>
<text text-anchor="middle" x="41" y="-84.5" font-family="Helvetica,sans-Serif" font-size="10.00">UnixUnusedFd</text>
</a>
</g>
<!-- Node5&#45;&gt;Node4 -->
<g id="edge12" class="edge"><title>Node5&#45;&gt;Node4</title>
<path fill="none" stroke="#9a32cd" stroke-dasharray="5,2" d="M70.8367,-71.7245C87.536,-63.3087 108.8,-52.8129 128,-44 143.517,-36.8777 161.129,-29.3819 175.166,-23.5455"/>
<polygon fill="#9a32cd" stroke="#9a32cd" points="68.9222,-68.7708 61.5819,-76.4108 72.0845,-75.0158 68.9222,-68.7708"/>
<text text-anchor="middle" x="149.5" y="-48.5" font-family="Helvetica,sans-Serif" font-size="10.00"> pUnused</text>
</g>
<!-- Node5&#45;&gt;Node5 -->
<g id="edge14" class="edge"><title>Node5&#45;&gt;Node5</title>
<path fill="none" stroke="#9a32cd" stroke-dasharray="5,2" d="M92.2579,-92.3938C97.0064,-91.2808 100,-89.4829 100,-87 100,-83.0273 92.3363,-80.8082 82.0831,-80.3427"/>
<polygon fill="#9a32cd" stroke="#9a32cd" points="91.5756,-88.9515 82.0831,-93.6573 92.4383,-95.8982 91.5756,-88.9515"/>
<text text-anchor="middle" x="115" y="-84.5" font-family="Helvetica,sans-Serif" font-size="10.00"> pNext</text>
</g>
<!-- Node6 -->
<g id="node14" class="node"><title>Node6</title>
<a xlink:href="../../d2/d56/structunix_file_id.html" target="_top" xlink:title="unixFileId">
<polygon fill="white" stroke="black" points="147.5,-76.5 147.5,-97.5 206.5,-97.5 206.5,-76.5 147.5,-76.5"/>
<text text-anchor="middle" x="177" y="-84.5" font-family="Helvetica,sans-Serif" font-size="10.00">unixFileId</text>
</a>
</g>
<!-- Node6&#45;&gt;Node4 -->
<g id="edge18" class="edge"><title>Node6&#45;&gt;Node4</title>
<path fill="none" stroke="#9a32cd" stroke-dasharray="5,2" d="M174.959,-66.3405C174.897,-59.1054 175.584,-51.0349 178,-44 180.612,-36.3942 185.829,-29.1073 190.635,-23.5115"/>
<polygon fill="#9a32cd" stroke="#9a32cd" points="171.47,-66.6393 175.501,-76.4372 178.46,-66.2638 171.47,-66.6393"/>
<text text-anchor="middle" x="190.5" y="-48.5" font-family="Helvetica,sans-Serif" font-size="10.00"> fileId</text>
</g>
</g>
</svg>
