<?xml version="1.0" encoding="UTF-8" standalone="no"?>
<!DOCTYPE svg PUBLIC "-//W3C//DTD SVG 1.1//EN"
 "http://www.w3.org/Graphics/SVG/1.1/DTD/svg11.dtd">
<!-- Generated by graphviz version 2.26.3 (20100126.1600)
 -->
<!-- Title: G Pages: 1 -->
<svg width="110pt" height="178pt"
 viewBox="0.00 0.00 110.00 178.00" xmlns="http://www.w3.org/2000/svg" xmlns:xlink="http://www.w3.org/1999/xlink">
<g id="graph1" class="graph" transform="scale(1 1) rotate(0) translate(4 174)">
<title>G</title>
<polygon fill="white" stroke="white" points="-4,5 -4,-174 107,-174 107,5 -4,5"/>
<!-- Node1 -->
<g id="node1" class="node"><title>Node1</title>
<polygon fill="#bfbfbf" stroke="black" points="11,-0.5 11,-21.5 51,-21.5 51,-0.5 11,-0.5"/>
<text text-anchor="middle" x="31" y="-8.5" font-family="Helvetica,sans-Serif" font-size="10.00">Hash</text>
</g>
<!-- Node2 -->
<g id="node2" class="node"><title>Node2</title>
<a xlink:href="../../dd/d00/struct_hash_1_1__ht.html" target="_top" xlink:title="Hash::_ht">
<polygon fill="white" stroke="black" points="43.5,-72.5 43.5,-93.5 102.5,-93.5 102.5,-72.5 43.5,-72.5"/>
<text text-anchor="middle" x="73" y="-80.5" font-family="Helvetica,sans-Serif" font-size="10.00">Hash::_ht</text>
</a>
</g>
<!-- Node2&#45;&gt;Node1 -->
<g id="edge2" class="edge"><title>Node2&#45;&gt;Node1</title>
<path fill="none" stroke="#9a32cd" stroke-dasharray="5,2" d="M61.578,-63.4193C53.7345,-49.9734 43.6224,-32.6384 37.2227,-21.6674"/>
<polygon fill="#9a32cd" stroke="#9a32cd" points="58.7408,-65.5019 66.8028,-72.3762 64.7872,-61.9748 58.7408,-65.5019"/>
<text text-anchor="middle" x="61" y="-44.5" font-family="Helvetica,sans-Serif" font-size="10.00"> ht</text>
</g>
<!-- Node3 -->
<g id="node4" class="node"><title>Node3</title>
<a xlink:href="../../df/d01/struct_hash_elem.html" target="_top" xlink:title="HashElem">
<polygon fill="white" stroke="black" points="0,-146.5 0,-167.5 62,-167.5 62,-146.5 0,-146.5"/>
<text text-anchor="middle" x="31" y="-154.5" font-family="Helvetica,sans-Serif" font-size="10.00">HashElem</text>
</a>
</g>
<!-- Node3&#45;&gt;Node1 -->
<g id="edge8" class="edge"><title>Node3&#45;&gt;Node1</title>
<path fill="none" stroke="#9a32cd" stroke-dasharray="5,2" d="M23.5484,-136.802C18.0986,-119.645 12.1211,-94.3229 15,-72 17.3246,-53.9747 23.3621,-33.6772 27.3198,-21.6334"/>
<polygon fill="#9a32cd" stroke="#9a32cd" points="20.2553,-137.989 26.7896,-146.329 26.8823,-135.734 20.2553,-137.989"/>
<text text-anchor="middle" x="25" y="-80.5" font-family="Helvetica,sans-Serif" font-size="10.00"> first</text>
</g>
<!-- Node3&#45;&gt;Node2 -->
<g id="edge4" class="edge"><title>Node3&#45;&gt;Node2</title>
<path fill="none" stroke="#9a32cd" stroke-dasharray="5,2" d="M42.065,-137.504C50.0446,-123.445 60.511,-105.004 66.9936,-93.5827"/>
<polygon fill="#9a32cd" stroke="#9a32cd" points="38.9098,-135.973 37.0176,-146.398 44.9976,-139.428 38.9098,-135.973"/>
<text text-anchor="middle" x="68.5" y="-116.5" font-family="Helvetica,sans-Serif" font-size="10.00"> chain</text>
</g>
<!-- Node3&#45;&gt;Node3 -->
<g id="edge6" class="edge"><title>Node3&#45;&gt;Node3</title>
<path fill="none" stroke="#9a32cd" stroke-dasharray="5,2" d="M72.1528,-163.07C76.9088,-161.946 80,-159.922 80,-157 80,-152.324 72.0865,-149.95 62.102,-149.877"/>
<polygon fill="#9a32cd" stroke="#9a32cd" points="71.6828,-159.6 62.102,-164.123 72.4123,-166.562 71.6828,-159.6"/>
<text text-anchor="middle" x="91" y="-161" font-family="Helvetica,sans-Serif" font-size="10.00"> prev</text>
<text text-anchor="middle" x="91" y="-148" font-family="Helvetica,sans-Serif" font-size="10.00">next</text>
</g>
</g>
</svg>
