<?xml version="1.0" encoding="UTF-8" standalone="no"?>
<!DOCTYPE svg PUBLIC "-//W3C//DTD SVG 1.1//EN"
 "http://www.w3.org/Graphics/SVG/1.1/DTD/svg11.dtd">
<!-- Generated by graphviz version 2.26.3 (20100126.1600)
 -->
<!-- Title: G Pages: 1 -->
<svg width="268pt" height="202pt"
 viewBox="0.00 0.00 268.00 202.00" xmlns="http://www.w3.org/2000/svg" xmlns:xlink="http://www.w3.org/1999/xlink">
<g id="graph1" class="graph" transform="scale(1 1) rotate(0) translate(4 198)">
<title>G</title>
<polygon fill="white" stroke="white" points="-4,5 -4,-198 265,-198 265,5 -4,5"/>
<!-- Node1 -->
<g id="node1" class="node"><title>Node1</title>
<polygon fill="#bfbfbf" stroke="black" points="-0.5,-172.5 -0.5,-193.5 56.5,-193.5 56.5,-172.5 -0.5,-172.5"/>
<text text-anchor="middle" x="28" y="-180.5" font-family="Helvetica,sans-Serif" font-size="10.00">PCache1</text>
</g>
<!-- Node3 -->
<g id="node4" class="node"><title>Node3</title>
<a xlink:href="../../da/d32/struct_pg_hdr1.html" target="_top" xlink:title="PgHdr1">
<polygon fill="white" stroke="black" points="55,-92.5 55,-113.5 105,-113.5 105,-92.5 55,-92.5"/>
<text text-anchor="middle" x="80" y="-100.5" font-family="Helvetica,sans-Serif" font-size="10.00">PgHdr1</text>
</a>
</g>
<!-- Node1&#45;&gt;Node3 -->
<g id="edge10" class="edge"><title>Node1&#45;&gt;Node3</title>
<path fill="none" stroke="#9a32cd" stroke-dasharray="5,2" d="M54.9358,-166.06C59.0982,-162.492 63.0024,-158.444 66,-154 74.3177,-141.669 77.7147,-124.521 79.0878,-113.591"/>
<polygon fill="#9a32cd" stroke="#9a32cd" points="52.5904,-163.448 46.7836,-172.31 56.8493,-169.003 52.5904,-163.448"/>
<text text-anchor="middle" x="90.5" y="-144.5" font-family="Helvetica,sans-Serif" font-size="10.00"> pCache</text>
</g>
<!-- Node2 -->
<g id="node2" class="node"><title>Node2</title>
<a xlink:href="../../d5/dfb/struct_p_group.html" target="_top" xlink:title="PGroup">
<polygon fill="white" stroke="black" points="55,-0.5 55,-21.5 105,-21.5 105,-0.5 55,-0.5"/>
<text text-anchor="middle" x="80" y="-8.5" font-family="Helvetica,sans-Serif" font-size="10.00">PGroup</text>
</a>
</g>
<!-- Node2&#45;&gt;Node1 -->
<g id="edge2" class="edge"><title>Node2&#45;&gt;Node1</title>
<path fill="none" stroke="#9a32cd" stroke-dasharray="5,2" d="M56.6553,-27.7882C40.4422,-40.9873 20.1671,-60.9562 11,-84 -1.18317,-114.625 13.8889,-153.991 22.6127,-172.499"/>
<polygon fill="#9a32cd" stroke="#9a32cd" points="58.9533,-30.4344 64.683,-21.5225 54.6464,-24.9162 58.9533,-30.4344"/>
<text text-anchor="middle" x="28.5" y="-100.5" font-family="Helvetica,sans-Serif" font-size="10.00"> pGroup</text>
</g>
<!-- Node3&#45;&gt;Node1 -->
<g id="edge14" class="edge"><title>Node3&#45;&gt;Node1</title>
<path fill="none" stroke="#9a32cd" stroke-dasharray="5,2" d="M46.0575,-118.421C37.6699,-123.964 29.7371,-131.104 25,-140 19.6537,-150.04 21.7137,-163.317 24.2699,-172.447"/>
<polygon fill="#9a32cd" stroke="#9a32cd" points="48.0274,-121.322 54.848,-113.214 44.4603,-115.299 48.0274,-121.322"/>
<text text-anchor="middle" x="43.5" y="-144.5" font-family="Helvetica,sans-Serif" font-size="10.00"> apHash</text>
</g>
<!-- Node3&#45;&gt;Node2 -->
<g id="edge4" class="edge"><title>Node3&#45;&gt;Node2</title>
<path fill="none" stroke="#9a32cd" stroke-dasharray="5,2" d="M80,-82.2228C80,-63.4239 80,-36.4894 80,-21.7139"/>
<polygon fill="#9a32cd" stroke="#9a32cd" points="76.5001,-82.4464 80,-92.4464 83.5001,-82.4465 76.5001,-82.4464"/>
<text text-anchor="middle" x="103" y="-57" font-family="Helvetica,sans-Serif" font-size="10.00"> pLruHead</text>
<text text-anchor="middle" x="103" y="-44" font-family="Helvetica,sans-Serif" font-size="10.00">pLruTail</text>
</g>
<!-- Node3&#45;&gt;Node3 -->
<g id="edge8" class="edge"><title>Node3&#45;&gt;Node3</title>
<path fill="none" stroke="#9a32cd" stroke-dasharray="5,2" d="M115.446,-110.225C119.996,-108.969 123,-106.561 123,-103 123,-97.1562 114.91,-94.417 105.176,-94.7822"/>
<polygon fill="#9a32cd" stroke="#9a32cd" points="114.792,-106.771 105.176,-111.218 115.466,-113.739 114.792,-106.771"/>
<text text-anchor="middle" x="144.5" y="-113.5" font-family="Helvetica,sans-Serif" font-size="10.00"> pLruNext</text>
<text text-anchor="middle" x="144.5" y="-100.5" font-family="Helvetica,sans-Serif" font-size="10.00">pLruPrev</text>
<text text-anchor="middle" x="144.5" y="-87.5" font-family="Helvetica,sans-Serif" font-size="10.00">pNext</text>
</g>
<!-- Node4 -->
<g id="node6" class="node"><title>Node4</title>
<a xlink:href="../../d8/d72/structsqlite3__pcache__page.html" target="_top" xlink:title="sqlite3_pcache_page">
<polygon fill="white" stroke="black" points="94,-172.5 94,-193.5 202,-193.5 202,-172.5 94,-172.5"/>
<text text-anchor="middle" x="148" y="-180.5" font-family="Helvetica,sans-Serif" font-size="10.00">sqlite3_pcache_page</text>
</a>
</g>
<!-- Node4&#45;&gt;Node3 -->
<g id="edge6" class="edge"><title>Node4&#45;&gt;Node3</title>
<path fill="none" stroke="#9a32cd" stroke-dasharray="5,2" d="M132.914,-164.09C126.806,-156.534 119.641,-147.793 113,-140 105.296,-130.959 96.3082,-120.914 89.6597,-113.574"/>
<polygon fill="#9a32cd" stroke="#9a32cd" points="130.509,-166.685 139.502,-172.287 135.965,-162.3 130.509,-166.685"/>
<text text-anchor="middle" x="135.5" y="-144.5" font-family="Helvetica,sans-Serif" font-size="10.00"> page</text>
</g>
<!-- Node5 -->
<g id="node10" class="node"><title>Node5</title>
<a xlink:href="../../d5/d3c/structsqlite3__mutex.html" target="_top" xlink:title="sqlite3_mutex">
<polygon fill="white" stroke="black" points="183.5,-92.5 183.5,-113.5 260.5,-113.5 260.5,-92.5 183.5,-92.5"/>
<text text-anchor="middle" x="222" y="-100.5" font-family="Helvetica,sans-Serif" font-size="10.00">sqlite3_mutex</text>
</a>
</g>
<!-- Node5&#45;&gt;Node2 -->
<g id="edge12" class="edge"><title>Node5&#45;&gt;Node2</title>
<path fill="none" stroke="#9a32cd" stroke-dasharray="5,2" d="M198.913,-86.4812C180.497,-73.4784 153.916,-55.0947 130,-40 119.986,-33.6799 108.581,-27.0247 99.1942,-21.6861"/>
<polygon fill="#9a32cd" stroke="#9a32cd" points="197.069,-89.4639 207.25,-92.3942 201.118,-83.7542 197.069,-89.4639"/>
<text text-anchor="middle" x="183.5" y="-50.5" font-family="Helvetica,sans-Serif" font-size="10.00"> mutex</text>
</g>
</g>
</svg>
