<?xml version="1.0" encoding="UTF-8" standalone="no"?>
<!DOCTYPE svg PUBLIC "-//W3C//DTD SVG 1.1//EN"
 "http://www.w3.org/Graphics/SVG/1.1/DTD/svg11.dtd">
<!-- Generated by graphviz version 2.26.3 (20100126.1600)
 -->
<!-- Title: G Pages: 1 -->
<!--zoomable 88 -->
<svg id="main" version="1.1" xmlns="http://www.w3.org/2000/svg" xmlns:xlink="http://www.w3.org/1999/xlink" xml:space="preserve" onload="init(evt)">
        <defs>
                <circle id="rim" cx="0" cy="0" r="7"/>
                <circle id="rim2" cx="0" cy="0" r="3.5"/>
                <g id="zoomPlus">
                        <use xlink:href="#rim" fill="#404040">
                                <set attributeName="fill" to="#808080" begin="zoomplus.mouseover" end="zoomplus.mouseout"/>
                        </use>
                        <path d="M-4,0h8M0,-4v8" fill="none" stroke="white" stroke-width="1.5" pointer-events="none"/>
                </g>
                <g id="zoomMin">
                        <use xlink:href="#rim" fill="#404040">
                                <set attributeName="fill" to="#808080" begin="zoomminus.mouseover" end="zoomminus.mouseout"/>
                        </use>
                        <path d="M-4,0h8" fill="none" stroke="white" stroke-width="1.5" pointer-events="none"/>
                </g>
                <g id="dirArrow">
                        <path fill="none" stroke="white" stroke-width="1.5" d="M0,-3.0v7 M-2.5,-0.5L0,-3.0L2.5,-0.5"/>
                </g>
               <g id="resetDef">
                       <use xlink:href="#rim2" fill="#404040">
                               <set attributeName="fill" to="#808080" begin="reset.mouseover" end="reset.mouseout"/>
                       </use>
               </g>
        </defs>

<script type="text/javascript">
var viewWidth = 1122;
var viewHeight = 88;
var sectionId = 'dynsection-0';
</script>
<script xlink:href="../../svgpan.js"/>
<svg id="graph" class="graph">
<g id="viewport">
<title>G</title>
<polygon fill="white" stroke="white" points="-4,5 -4,-84 1119,-84 1119,5 -4,5"/>
<!-- Node1 -->
<g id="node1" class="node"><title>Node1</title>
<polygon fill="#bfbfbf" stroke="black" points="478.5,-58.5 478.5,-79.5 593.5,-79.5 593.5,-58.5 478.5,-58.5"/>
<text text-anchor="middle" x="536" y="-66.5" font-family="Helvetica,sans-Serif" font-size="10.00">src/db/sqlite3/sqlite3.c</text>
</g>
<!-- Node2 -->
<g id="node3" class="node"><title>Node2</title>
<polygon fill="white" stroke="#bfbfbf" points="0,-0.5 0,-21.5 52,-21.5 52,-0.5 0,-0.5"/>
<text text-anchor="middle" x="26" y="-8.5" font-family="Helvetica,sans-Serif" font-size="10.00">stdarg.h</text>
</g>
<!-- Node1&#45;&gt;Node2 -->
<g id="edge2" class="edge"><title>Node1&#45;&gt;Node2</title>
<path fill="none" stroke="midnightblue" d="M478.4,-67.1206C390.394,-63.4137 217.223,-52.8291 62.3918,-21.942"/>
<polygon fill="midnightblue" stroke="midnightblue" points="62.7172,-18.4367 52.2209,-19.878 61.3251,-25.2969 62.7172,-18.4367"/>
</g>
<!-- Node3 -->
<g id="node5" class="node"><title>Node3</title>
<polygon fill="white" stroke="#bfbfbf" points="70,-0.5 70,-21.5 116,-21.5 116,-0.5 70,-0.5"/>
<text text-anchor="middle" x="93" y="-8.5" font-family="Helvetica,sans-Serif" font-size="10.00">stdio.h</text>
</g>
<!-- Node1&#45;&gt;Node3 -->
<g id="edge4" class="edge"><title>Node1&#45;&gt;Node3</title>
<path fill="none" stroke="midnightblue" d="M478.499,-66.3675C400.375,-61.9236 256.409,-50.6565 126.012,-21.8424"/>
<polygon fill="midnightblue" stroke="midnightblue" points="126.774,-18.4263 116.249,-19.6461 125.237,-25.2557 126.774,-18.4263"/>
</g>
<!-- Node4 -->
<g id="node7" class="node"><title>Node4</title>
<polygon fill="white" stroke="#bfbfbf" points="134,-0.5 134,-21.5 182,-21.5 182,-0.5 134,-0.5"/>
<text text-anchor="middle" x="158" y="-8.5" font-family="Helvetica,sans-Serif" font-size="10.00">stdlib.h</text>
</g>
<!-- Node1&#45;&gt;Node4 -->
<g id="edge6" class="edge"><title>Node1&#45;&gt;Node4</title>
<path fill="none" stroke="midnightblue" d="M478.328,-64.4528C411.423,-58.4427 297.789,-45.9676 191.895,-21.8672"/>
<polygon fill="midnightblue" stroke="midnightblue" points="192.534,-18.4226 182.002,-19.576 190.955,-25.2421 192.534,-18.4226"/>
</g>
<!-- Node5 -->
<g id="node9" class="node"><title>Node5</title>
<polygon fill="white" stroke="#bfbfbf" points="199.5,-0.5 199.5,-21.5 248.5,-21.5 248.5,-0.5 199.5,-0.5"/>
<text text-anchor="middle" x="224" y="-8.5" font-family="Helvetica,sans-Serif" font-size="10.00">string.h</text>
</g>
<!-- Node1&#45;&gt;Node5 -->
<g id="edge8" class="edge"><title>Node1&#45;&gt;Node5</title>
<path fill="none" stroke="midnightblue" d="M478.29,-61.9358C423.712,-54.658 339.443,-41.8809 258.586,-22.1468"/>
<polygon fill="midnightblue" stroke="midnightblue" points="259.294,-18.7162 248.745,-19.7056 257.608,-25.5103 259.294,-18.7162"/>
</g>
<!-- Node6 -->
<g id="node11" class="node"><title>Node6</title>
<polygon fill="white" stroke="#bfbfbf" points="266,-0.5 266,-21.5 318,-21.5 318,-0.5 266,-0.5"/>
<text text-anchor="middle" x="292" y="-8.5" font-family="Helvetica,sans-Serif" font-size="10.00">assert.h</text>
</g>
<!-- Node1&#45;&gt;Node6 -->
<g id="edge10" class="edge"><title>Node1&#45;&gt;Node6</title>
<path fill="none" stroke="midnightblue" d="M483.309,-58.42C443.107,-50.0595 386.183,-37.605 328.026,-22.1365"/>
<polygon fill="midnightblue" stroke="midnightblue" points="328.87,-18.7392 318.304,-19.5253 327.054,-25.4996 328.87,-18.7392"/>
</g>
<!-- Node7 -->
<g id="node13" class="node"><title>Node7</title>
<polygon fill="white" stroke="#bfbfbf" points="336,-0.5 336,-21.5 388,-21.5 388,-0.5 336,-0.5"/>
<text text-anchor="middle" x="362" y="-8.5" font-family="Helvetica,sans-Serif" font-size="10.00">stddef.h</text>
</g>
<!-- Node1&#45;&gt;Node7 -->
<g id="edge12" class="edge"><title>Node1&#45;&gt;Node7</title>
<path fill="none" stroke="midnightblue" d="M504.49,-58.4966C474.444,-48.4814 429.244,-33.4147 397.839,-22.9464"/>
<polygon fill="midnightblue" stroke="midnightblue" points="398.758,-19.5634 388.164,-19.7214 396.544,-26.2042 398.758,-19.5634"/>
</g>
<!-- Node8 -->
<g id="node15" class="node"><title>Node8</title>
<polygon fill="white" stroke="#bfbfbf" points="406,-0.5 406,-21.5 450,-21.5 450,-0.5 406,-0.5"/>
<text text-anchor="middle" x="428" y="-8.5" font-family="Helvetica,sans-Serif" font-size="10.00">time.h</text>
</g>
<!-- Node1&#45;&gt;Node8 -->
<g id="edge14" class="edge"><title>Node1&#45;&gt;Node8</title>
<path fill="none" stroke="midnightblue" d="M516.442,-58.4966C499.802,-49.5602 475.673,-36.602 456.82,-26.4772"/>
<polygon fill="midnightblue" stroke="midnightblue" points="458.243,-23.2691 447.777,-21.6212 454.931,-29.436 458.243,-23.2691"/>
</g>
<!-- Node9 -->
<g id="node17" class="node"><title>Node9</title>
<polygon fill="white" stroke="#bfbfbf" points="467.5,-0.5 467.5,-21.5 524.5,-21.5 524.5,-0.5 467.5,-0.5"/>
<text text-anchor="middle" x="496" y="-8.5" font-family="Helvetica,sans-Serif" font-size="10.00">pthread.h</text>
</g>
<!-- Node1&#45;&gt;Node9 -->
<g id="edge16" class="edge"><title>Node1&#45;&gt;Node9</title>
<path fill="none" stroke="midnightblue" d="M528.663,-58.3619C523.194,-50.4313 515.578,-39.3885 509.076,-29.9606"/>
<polygon fill="midnightblue" stroke="midnightblue" points="511.849,-27.8157 503.29,-21.5707 506.086,-31.7899 511.849,-27.8157"/>
</g>
<!-- Node10 -->
<g id="node19" class="node"><title>Node10</title>
<polygon fill="white" stroke="#bfbfbf" points="542,-0.5 542,-21.5 610,-21.5 610,-0.5 542,-0.5"/>
<text text-anchor="middle" x="576" y="-8.5" font-family="Helvetica,sans-Serif" font-size="10.00">sys/types.h</text>
</g>
<!-- Node1&#45;&gt;Node10 -->
<g id="edge18" class="edge"><title>Node1&#45;&gt;Node10</title>
<path fill="none" stroke="midnightblue" d="M543.337,-58.3619C548.806,-50.4313 556.422,-39.3885 562.924,-29.9606"/>
<polygon fill="midnightblue" stroke="midnightblue" points="565.914,-31.7899 568.71,-21.5707 560.151,-27.8157 565.914,-31.7899"/>
</g>
<!-- Node11 -->
<g id="node21" class="node"><title>Node11</title>
<polygon fill="white" stroke="#bfbfbf" points="628,-0.5 628,-21.5 688,-21.5 688,-0.5 628,-0.5"/>
<text text-anchor="middle" x="658" y="-8.5" font-family="Helvetica,sans-Serif" font-size="10.00">sys/stat.h</text>
</g>
<!-- Node1&#45;&gt;Node11 -->
<g id="edge20" class="edge"><title>Node1&#45;&gt;Node11</title>
<path fill="none" stroke="midnightblue" d="M558.093,-58.4966C577.234,-49.397 605.146,-36.1273 626.605,-25.9253"/>
<polygon fill="midnightblue" stroke="midnightblue" points="628.13,-29.0758 635.659,-21.6212 625.125,-22.7539 628.13,-29.0758"/>
</g>
<!-- Node12 -->
<g id="node23" class="node"><title>Node12</title>
<polygon fill="white" stroke="#bfbfbf" points="706,-0.5 706,-21.5 750,-21.5 750,-0.5 706,-0.5"/>
<text text-anchor="middle" x="728" y="-8.5" font-family="Helvetica,sans-Serif" font-size="10.00">fcntl.h</text>
</g>
<!-- Node1&#45;&gt;Node12 -->
<g id="edge22" class="edge"><title>Node1&#45;&gt;Node12</title>
<path fill="none" stroke="midnightblue" d="M574.247,-58.497C604.876,-49.9383 649.137,-37.242 695.985,-22.2207"/>
<polygon fill="midnightblue" stroke="midnightblue" points="697.26,-25.487 705.701,-19.0836 695.109,-18.8256 697.26,-25.487"/>
</g>
<!-- Node13 -->
<g id="node25" class="node"><title>Node13</title>
<polygon fill="white" stroke="#bfbfbf" points="767.5,-0.5 767.5,-21.5 818.5,-21.5 818.5,-0.5 767.5,-0.5"/>
<text text-anchor="middle" x="793" y="-8.5" font-family="Helvetica,sans-Serif" font-size="10.00">unistd.h</text>
</g>
<!-- Node1&#45;&gt;Node13 -->
<g id="edge24" class="edge"><title>Node1&#45;&gt;Node13</title>
<path fill="none" stroke="midnightblue" d="M593.683,-58.5711C636.642,-50.4104 696.877,-38.1415 757.701,-22.1737"/>
<polygon fill="midnightblue" stroke="midnightblue" points="758.7,-25.5299 767.466,-19.5793 756.902,-18.7647 758.7,-25.5299"/>
</g>
<!-- Node14 -->
<g id="node27" class="node"><title>Node14</title>
<polygon fill="white" stroke="#bfbfbf" points="836,-0.5 836,-21.5 898,-21.5 898,-0.5 836,-0.5"/>
<text text-anchor="middle" x="867" y="-8.5" font-family="Helvetica,sans-Serif" font-size="10.00">sys/time.h</text>
</g>
<!-- Node1&#45;&gt;Node14 -->
<g id="edge26" class="edge"><title>Node1&#45;&gt;Node14</title>
<path fill="none" stroke="midnightblue" d="M593.768,-61.5486C650.548,-53.8021 739.812,-40.4971 825.721,-22.1177"/>
<polygon fill="midnightblue" stroke="midnightblue" points="826.604,-25.5076 835.637,-19.9701 825.122,-18.6663 826.604,-25.5076"/>
</g>
<!-- Node15 -->
<g id="node29" class="node"><title>Node15</title>
<polygon fill="white" stroke="#bfbfbf" points="915.5,-0.5 915.5,-21.5 962.5,-21.5 962.5,-0.5 915.5,-0.5"/>
<text text-anchor="middle" x="939" y="-8.5" font-family="Helvetica,sans-Serif" font-size="10.00">errno.h</text>
</g>
<!-- Node1&#45;&gt;Node15 -->
<g id="edge28" class="edge"><title>Node1&#45;&gt;Node15</title>
<path fill="none" stroke="midnightblue" d="M593.527,-65.3836C664.931,-60.0838 790.4,-48.1148 905.368,-22.036"/>
<polygon fill="midnightblue" stroke="midnightblue" points="906.437,-25.3813 915.392,-19.7196 904.861,-18.561 906.437,-25.3813"/>
</g>
<!-- Node16 -->
<g id="node31" class="node"><title>Node16</title>
<polygon fill="white" stroke="#bfbfbf" points="979.5,-0.5 979.5,-21.5 1050.5,-21.5 1050.5,-0.5 979.5,-0.5"/>
<text text-anchor="middle" x="1015" y="-8.5" font-family="Helvetica,sans-Serif" font-size="10.00">sys/mman.h</text>
</g>
<!-- Node1&#45;&gt;Node16 -->
<g id="edge30" class="edge"><title>Node1&#45;&gt;Node16</title>
<path fill="none" stroke="midnightblue" d="M593.707,-65.2991C675.394,-59.5014 829.512,-46.5089 969.048,-22.1814"/>
<polygon fill="midnightblue" stroke="midnightblue" points="969.83,-25.5974 979.068,-20.4101 968.612,-18.7043 969.83,-25.5974"/>
</g>
<!-- Node17 -->
<g id="node33" class="node"><title>Node17</title>
<polygon fill="white" stroke="#bfbfbf" points="1068,-0.5 1068,-21.5 1114,-21.5 1114,-0.5 1068,-0.5"/>
<text text-anchor="middle" x="1091" y="-8.5" font-family="Helvetica,sans-Serif" font-size="10.00">dlfcn.h</text>
</g>
<!-- Node1&#45;&gt;Node17 -->
<g id="edge32" class="edge"><title>Node1&#45;&gt;Node17</title>
<path fill="none" stroke="midnightblue" d="M593.875,-65.5669C707.039,-58.5732 954.863,-41.8068 1057.96,-21.73"/>
<polygon fill="midnightblue" stroke="midnightblue" points="1058.68,-25.1559 1067.77,-19.7136 1057.27,-18.2993 1058.68,-25.1559"/>
</g>
</g>
</svg>
        <g id="navigator" transform="translate(0 0)" fill="#404254">
                <rect fill="#f2f5e9" fill-opacity="0.5" stroke="#606060" stroke-width=".5" x="0" y="0" width="60" height="60"/>
                <use id="zoomplus" xlink:href="#zoomPlus" x="17" y="9" onmousedown="handleZoom(evt,'in')"/>
                <use id="zoomminus" xlink:href="#zoomMin" x="42" y="9" onmousedown="handleZoom(evt,'out')"/>
                <use id="reset" xlink:href="#resetDef" x="30" y="36" onmousedown="handleReset()"/>
                <g id="arrowUp" xlink:href="#dirArrow" transform="translate(30 24)" onmousedown="handlePan(0,-1)">
                  <use xlink:href="#rim" fill="#404040">
                        <set attributeName="fill" to="#808080" begin="arrowUp.mouseover" end="arrowUp.mouseout"/>
                  </use>
                  <path fill="none" stroke="white" stroke-width="1.5" d="M0,-3.0v7 M-2.5,-0.5L0,-3.0L2.5,-0.5"/>
                </g>
                <g id="arrowRight" xlink:href="#dirArrow" transform="rotate(90) translate(36 -43)" onmousedown="handlePan(1,0)">
                  <use xlink:href="#rim" fill="#404040">
                        <set attributeName="fill" to="#808080" begin="arrowRight.mouseover" end="arrowRight.mouseout"/>
                  </use>
                  <path fill="none" stroke="white" stroke-width="1.5" d="M0,-3.0v7 M-2.5,-0.5L0,-3.0L2.5,-0.5"/>
                </g>
                <g id="arrowDown" xlink:href="#dirArrow" transform="rotate(180) translate(-30 -48)" onmousedown="handlePan(0,1)">
                  <use xlink:href="#rim" fill="#404040">
                        <set attributeName="fill" to="#808080" begin="arrowDown.mouseover" end="arrowDown.mouseout"/>
                  </use>
                  <path fill="none" stroke="white" stroke-width="1.5" d="M0,-3.0v7 M-2.5,-0.5L0,-3.0L2.5,-0.5"/>
                </g>
                <g id="arrowLeft" xlink:href="#dirArrow" transform="rotate(270) translate(-36 17)" onmousedown="handlePan(-1,0)">
                  <use xlink:href="#rim" fill="#404040">
                        <set attributeName="fill" to="#808080" begin="arrowLeft.mouseover" end="arrowLeft.mouseout"/>
                  </use>
                  <path fill="none" stroke="white" stroke-width="1.5" d="M0,-3.0v7 M-2.5,-0.5L0,-3.0L2.5,-0.5"/>
                </g>
        </g>
</svg>
