<?xml version="1.0" encoding="UTF-8" standalone="no"?>
<!DOCTYPE svg PUBLIC "-//W3C//DTD SVG 1.1//EN"
 "http://www.w3.org/Graphics/SVG/1.1/DTD/svg11.dtd">
<!-- Generated by graphviz version 2.26.3 (20100126.1600)
 -->
<!-- Title: G Pages: 1 -->
<svg width="322pt" height="174pt"
 viewBox="0.00 0.00 322.00 174.00" xmlns="http://www.w3.org/2000/svg" xmlns:xlink="http://www.w3.org/1999/xlink">
<g id="graph1" class="graph" transform="scale(1 1) rotate(0) translate(4 170)">
<title>G</title>
<polygon fill="white" stroke="white" points="-4,5 -4,-170 319,-170 319,5 -4,5"/>
<!-- Node1 -->
<g id="node1" class="node"><title>Node1</title>
<polygon fill="#bfbfbf" stroke="black" points="116.5,-0.5 116.5,-21.5 189.5,-21.5 189.5,-0.5 116.5,-0.5"/>
<text text-anchor="middle" x="153" y="-8.5" font-family="Helvetica,sans-Serif" font-size="10.00">xpath_parser</text>
</g>
<!-- Node2 -->
<g id="node2" class="node"><title>Node2</title>
<a xlink:href="../../d9/d51/classxpath__allocator.html" target="_top" xlink:title="xpath_allocator">
<polygon fill="white" stroke="black" points="39.5,-72.5 39.5,-93.5 122.5,-93.5 122.5,-72.5 39.5,-72.5"/>
<text text-anchor="middle" x="81" y="-80.5" font-family="Helvetica,sans-Serif" font-size="10.00">xpath_allocator</text>
</a>
</g>
<!-- Node2&#45;&gt;Node1 -->
<g id="edge2" class="edge"><title>Node2&#45;&gt;Node1</title>
<path fill="none" stroke="#9a32cd" stroke-dasharray="5,2" d="M99.0323,-64.9677C112.671,-51.3294 130.936,-33.0644 142.333,-21.6674"/>
<polygon fill="#9a32cd" stroke="#9a32cd" points="96.2201,-62.8302 91.6238,-72.3762 101.17,-67.7799 96.2201,-62.8302"/>
<text text-anchor="middle" x="138.5" y="-44.5" font-family="Helvetica,sans-Serif" font-size="10.00"> _alloc</text>
</g>
<!-- Node3 -->
<g id="node4" class="node"><title>Node3</title>
<a xlink:href="../../d0/d13/structxpath__memory__block.html" target="_top" xlink:title="xpath_memory_block">
<polygon fill="white" stroke="black" points="0,-144.5 0,-165.5 110,-165.5 110,-144.5 0,-144.5"/>
<text text-anchor="middle" x="55" y="-152.5" font-family="Helvetica,sans-Serif" font-size="10.00">xpath_memory_block</text>
</a>
</g>
<!-- Node3&#45;&gt;Node2 -->
<g id="edge4" class="edge"><title>Node3&#45;&gt;Node2</title>
<path fill="none" stroke="#9a32cd" stroke-dasharray="5,2" d="M62.3552,-134.632C67.1685,-121.303 73.2631,-104.425 77.1479,-93.6674"/>
<polygon fill="#9a32cd" stroke="#9a32cd" points="58.941,-133.782 58.8364,-144.376 65.5248,-136.159 58.941,-133.782"/>
<text text-anchor="middle" x="83.5" y="-116.5" font-family="Helvetica,sans-Serif" font-size="10.00"> _root</text>
</g>
<!-- Node3&#45;&gt;Node3 -->
<g id="edge6" class="edge"><title>Node3&#45;&gt;Node3</title>
<path fill="none" stroke="#9a32cd" stroke-dasharray="5,2" d="M120.001,-160.066C124.952,-158.941 128,-157.252 128,-155 128,-151.484 120.574,-149.342 110.073,-148.573"/>
<polygon fill="#9a32cd" stroke="#9a32cd" points="119.505,-156.601 110.073,-161.427 120.456,-163.536 119.505,-156.601"/>
<text text-anchor="middle" x="139" y="-152.5" font-family="Helvetica,sans-Serif" font-size="10.00"> next</text>
</g>
<!-- Node4 -->
<g id="node7" class="node"><title>Node4</title>
<a xlink:href="../../d5/d11/classxpath__lexer.html" target="_top" xlink:title="xpath_lexer">
<polygon fill="white" stroke="black" points="173.5,-72.5 173.5,-93.5 240.5,-93.5 240.5,-72.5 173.5,-72.5"/>
<text text-anchor="middle" x="207" y="-80.5" font-family="Helvetica,sans-Serif" font-size="10.00">xpath_lexer</text>
</a>
</g>
<!-- Node4&#45;&gt;Node1 -->
<g id="edge8" class="edge"><title>Node4&#45;&gt;Node1</title>
<path fill="none" stroke="#9a32cd" stroke-dasharray="5,2" d="M192.899,-64.1981C182.737,-50.649 169.389,-32.8514 161.001,-21.6674"/>
<polygon fill="#9a32cd" stroke="#9a32cd" points="190.232,-66.4761 199.032,-72.3762 195.832,-62.2761 190.232,-66.4761"/>
<text text-anchor="middle" x="199" y="-44.5" font-family="Helvetica,sans-Serif" font-size="10.00"> _lexer</text>
</g>
<!-- Node5 -->
<g id="node9" class="node"><title>Node5</title>
<a xlink:href="../../db/d4c/structxpath__lexer__string.html" target="_top" xlink:title="xpath_lexer_string">
<polygon fill="white" stroke="black" points="168,-144.5 168,-165.5 264,-165.5 264,-144.5 168,-144.5"/>
<text text-anchor="middle" x="216" y="-152.5" font-family="Helvetica,sans-Serif" font-size="10.00">xpath_lexer_string</text>
</a>
</g>
<!-- Node5&#45;&gt;Node4 -->
<g id="edge10" class="edge"><title>Node5&#45;&gt;Node4</title>
<path fill="none" stroke="#9a32cd" stroke-dasharray="5,2" d="M213.404,-134.235C211.746,-120.969 209.665,-104.319 208.333,-93.6674"/>
<polygon fill="#9a32cd" stroke="#9a32cd" points="209.959,-134.888 214.672,-144.376 216.905,-134.019 209.959,-134.888"/>
<text text-anchor="middle" x="263" y="-116.5" font-family="Helvetica,sans-Serif" font-size="10.00"> _cur_lexeme_contents</text>
</g>
</g>
</svg>
