<?xml version="1.0" encoding="UTF-8" standalone="no"?>
<!DOCTYPE svg PUBLIC "-//W3C//DTD SVG 1.1//EN"
 "http://www.w3.org/Graphics/SVG/1.1/DTD/svg11.dtd">
<!-- Generated by graphviz version 2.26.3 (20100126.1600)
 -->
<!-- Title: G Pages: 1 -->
<svg width="247pt" height="274pt"
 viewBox="0.00 0.00 247.00 274.00" xmlns="http://www.w3.org/2000/svg" xmlns:xlink="http://www.w3.org/1999/xlink">
<g id="graph1" class="graph" transform="scale(1 1) rotate(0) translate(4 270)">
<title>G</title>
<polygon fill="white" stroke="white" points="-4,5 -4,-270 244,-270 244,5 -4,5"/>
<!-- Node1 -->
<g id="node1" class="node"><title>Node1</title>
<polygon fill="#bfbfbf" stroke="black" points="128,-164.5 128,-185.5 178,-185.5 178,-164.5 128,-164.5"/>
<text text-anchor="middle" x="153" y="-172.5" font-family="Helvetica,sans-Serif" font-size="10.00">PgHdr1</text>
</g>
<!-- Node1&#45;&gt;Node1 -->
<g id="edge4" class="edge"><title>Node1&#45;&gt;Node1</title>
<path fill="none" stroke="#9a32cd" stroke-dasharray="5,2" d="M188.446,-182.225C192.996,-180.969 196,-178.561 196,-175 196,-169.156 187.91,-166.417 178.176,-166.782"/>
<polygon fill="#9a32cd" stroke="#9a32cd" points="187.792,-178.771 178.176,-183.218 188.466,-185.739 187.792,-178.771"/>
<text text-anchor="middle" x="217.5" y="-185.5" font-family="Helvetica,sans-Serif" font-size="10.00"> pLruNext</text>
<text text-anchor="middle" x="217.5" y="-172.5" font-family="Helvetica,sans-Serif" font-size="10.00">pLruPrev</text>
<text text-anchor="middle" x="217.5" y="-159.5" font-family="Helvetica,sans-Serif" font-size="10.00">pNext</text>
</g>
<!-- Node3 -->
<g id="node5" class="node"><title>Node3</title>
<a xlink:href="../../d7/df0/struct_p_cache1.html" target="_top" xlink:title="PCache1">
<polygon fill="white" stroke="black" points="124.5,-0.5 124.5,-21.5 181.5,-21.5 181.5,-0.5 124.5,-0.5"/>
<text text-anchor="middle" x="153" y="-8.5" font-family="Helvetica,sans-Serif" font-size="10.00">PCache1</text>
</a>
</g>
<!-- Node1&#45;&gt;Node3 -->
<g id="edge14" class="edge"><title>Node1&#45;&gt;Node3</title>
<path fill="none" stroke="#9a32cd" stroke-dasharray="5,2" d="M153,-154.082C153,-118.698 153,-48.2765 153,-21.5869"/>
<polygon fill="#9a32cd" stroke="#9a32cd" points="149.5,-154.239 153,-164.24 156.5,-154.24 149.5,-154.239"/>
<text text-anchor="middle" x="171.5" y="-80.5" font-family="Helvetica,sans-Serif" font-size="10.00"> apHash</text>
</g>
<!-- Node4 -->
<g id="node7" class="node"><title>Node4</title>
<a xlink:href="../../d5/dfb/struct_p_group.html" target="_top" xlink:title="PGroup">
<polygon fill="white" stroke="black" points="67,-72.5 67,-93.5 117,-93.5 117,-72.5 67,-72.5"/>
<text text-anchor="middle" x="92" y="-80.5" font-family="Helvetica,sans-Serif" font-size="10.00">PGroup</text>
</a>
</g>
<!-- Node1&#45;&gt;Node4 -->
<g id="edge10" class="edge"><title>Node1&#45;&gt;Node4</title>
<path fill="none" stroke="#9a32cd" stroke-dasharray="5,2" d="M118.71,-161.614C108.65,-155.913 98.8012,-148.175 93,-138 85.1476,-124.228 87.0583,-105.191 89.3723,-93.5072"/>
<polygon fill="#9a32cd" stroke="#9a32cd" points="117.398,-164.874 127.898,-166.289 120.573,-158.635 117.398,-164.874"/>
<text text-anchor="middle" x="116" y="-129" font-family="Helvetica,sans-Serif" font-size="10.00"> pLruHead</text>
<text text-anchor="middle" x="116" y="-116" font-family="Helvetica,sans-Serif" font-size="10.00">pLruTail</text>
</g>
<!-- Node2 -->
<g id="node2" class="node"><title>Node2</title>
<a xlink:href="../../d8/d72/structsqlite3__pcache__page.html" target="_top" xlink:title="sqlite3_pcache_page">
<polygon fill="white" stroke="black" points="99,-244.5 99,-265.5 207,-265.5 207,-244.5 99,-244.5"/>
<text text-anchor="middle" x="153" y="-252.5" font-family="Helvetica,sans-Serif" font-size="10.00">sqlite3_pcache_page</text>
</a>
</g>
<!-- Node2&#45;&gt;Node1 -->
<g id="edge2" class="edge"><title>Node2&#45;&gt;Node1</title>
<path fill="none" stroke="#9a32cd" stroke-dasharray="5,2" d="M153,-233.958C153,-218.413 153,-197.897 153,-185.618"/>
<polygon fill="#9a32cd" stroke="#9a32cd" points="149.5,-234.211 153,-244.211 156.5,-234.211 149.5,-234.211"/>
<text text-anchor="middle" x="165.5" y="-216.5" font-family="Helvetica,sans-Serif" font-size="10.00"> page</text>
</g>
<!-- Node3&#45;&gt;Node1 -->
<g id="edge6" class="edge"><title>Node3&#45;&gt;Node1</title>
<path fill="none" stroke="#9a32cd" stroke-dasharray="5,2" d="M169.696,-29.4927C178.812,-40.8662 189.197,-56.2433 194,-72 204.551,-106.611 177.494,-145.936 162.375,-164.385"/>
<polygon fill="#9a32cd" stroke="#9a32cd" points="172.202,-27.0346 163.086,-21.6356 166.846,-31.5411 172.202,-27.0346"/>
<text text-anchor="middle" x="214.5" y="-80.5" font-family="Helvetica,sans-Serif" font-size="10.00"> pCache</text>
</g>
<!-- Node4&#45;&gt;Node3 -->
<g id="edge8" class="edge"><title>Node4&#45;&gt;Node3</title>
<path fill="none" stroke="#9a32cd" stroke-dasharray="5,2" d="M94.4465,-62.4356C96.1568,-54.7992 99.0628,-46.4373 104,-40 109.956,-32.2347 118.633,-26.1383 127.036,-21.5815"/>
<polygon fill="#9a32cd" stroke="#9a32cd" points="90.966,-62.0256 92.7375,-72.4713 97.8667,-63.2008 90.966,-62.0256"/>
<text text-anchor="middle" x="121.5" y="-44.5" font-family="Helvetica,sans-Serif" font-size="10.00"> pGroup</text>
</g>
<!-- Node5 -->
<g id="node10" class="node"><title>Node5</title>
<a xlink:href="../../d5/d3c/structsqlite3__mutex.html" target="_top" xlink:title="sqlite3_mutex">
<polygon fill="white" stroke="black" points="-0.5,-164.5 -0.5,-185.5 76.5,-185.5 76.5,-164.5 -0.5,-164.5"/>
<text text-anchor="middle" x="38" y="-172.5" font-family="Helvetica,sans-Serif" font-size="10.00">sqlite3_mutex</text>
</a>
</g>
<!-- Node5&#45;&gt;Node4 -->
<g id="edge12" class="edge"><title>Node5&#45;&gt;Node4</title>
<path fill="none" stroke="#9a32cd" stroke-dasharray="5,2" d="M33.3196,-154.373C31.5076,-141.316 31.4049,-124.585 39,-112 45.1784,-101.763 56.3642,-94.8922 66.8725,-90.42"/>
<polygon fill="#9a32cd" stroke="#9a32cd" points="29.8917,-155.086 35.1122,-164.305 36.7804,-153.843 29.8917,-155.086"/>
<text text-anchor="middle" x="54.5" y="-122.5" font-family="Helvetica,sans-Serif" font-size="10.00"> mutex</text>
</g>
</g>
</svg>
