<?xml version="1.0" encoding="UTF-8" standalone="no"?>
<!DOCTYPE svg PUBLIC "-//W3C//DTD SVG 1.1//EN"
 "http://www.w3.org/Graphics/SVG/1.1/DTD/svg11.dtd">
<!-- Generated by graphviz version 2.26.3 (20100126.1600)
 -->
<!-- Title: G Pages: 1 -->
<svg width="146pt" height="106pt"
 viewBox="0.00 0.00 146.00 106.00" xmlns="http://www.w3.org/2000/svg" xmlns:xlink="http://www.w3.org/1999/xlink">
<g id="graph1" class="graph" transform="scale(1 1) rotate(0) translate(4 102)">
<title>G</title>
<polygon fill="white" stroke="white" points="-4,5 -4,-102 143,-102 143,5 -4,5"/>
<!-- Node1 -->
<g id="node1" class="node"><title>Node1</title>
<polygon fill="#bfbfbf" stroke="black" points="-0.5,-74.5 -0.5,-95.5 98.5,-95.5 98.5,-74.5 -0.5,-74.5"/>
<text text-anchor="middle" x="49" y="-82.5" font-family="Helvetica,sans-Serif" font-size="10.00">xml_memory_page</text>
</g>
<!-- Node1&#45;&gt;Node1 -->
<g id="edge2" class="edge"><title>Node1&#45;&gt;Node1</title>
<path fill="none" stroke="#9a32cd" stroke-dasharray="5,2" d="M108.592,-90.3646C113.176,-89.1771 116,-87.3889 116,-85 116,-81.1777 108.769,-78.8933 98.6718,-78.1468"/>
<polygon fill="#9a32cd" stroke="#9a32cd" points="108.042,-86.9079 98.6718,-91.8532 109.081,-93.8304 108.042,-86.9079"/>
<text text-anchor="middle" x="127" y="-89" font-family="Helvetica,sans-Serif" font-size="10.00"> prev</text>
<text text-anchor="middle" x="127" y="-76" font-family="Helvetica,sans-Serif" font-size="10.00">next</text>
</g>
<!-- Node2 -->
<g id="node3" class="node"><title>Node2</title>
<a xlink:href="../../d3/dae/structxml__allocator.html" target="_top" xlink:title="xml_allocator">
<polygon fill="white" stroke="black" points="12,-0.5 12,-21.5 86,-21.5 86,-0.5 12,-0.5"/>
<text text-anchor="middle" x="49" y="-8.5" font-family="Helvetica,sans-Serif" font-size="10.00">xml_allocator</text>
</a>
</g>
<!-- Node1&#45;&gt;Node2 -->
<g id="edge6" class="edge"><title>Node1&#45;&gt;Node2</title>
<path fill="none" stroke="#9a32cd" stroke-dasharray="5,2" d="M29.3304,-66.5922C26.3302,-62.7437 23.6783,-58.4824 22,-54 19.8181,-48.1729 19.7218,-45.7902 22,-40 24.7705,-32.9585 30.1451,-26.614 35.3745,-21.6675"/>
<polygon fill="#9a32cd" stroke="#9a32cd" points="26.9355,-69.1645 36.2118,-74.2831 32.1522,-64.4969 26.9355,-69.1645"/>
<text text-anchor="middle" x="34.5" y="-44.5" font-family="Helvetica,sans-Serif" font-size="10.00"> _root</text>
</g>
<!-- Node2&#45;&gt;Node1 -->
<g id="edge4" class="edge"><title>Node2&#45;&gt;Node1</title>
<path fill="none" stroke="#9a32cd" stroke-dasharray="5,2" d="M50.6093,-31.8216C50.7709,-34.5705 50.9088,-37.3521 51,-40 51.4038,-51.7234 50.6477,-65.1579 49.9524,-74.2735"/>
<polygon fill="#9a32cd" stroke="#9a32cd" points="54.0935,-31.4701 49.9171,-21.7331 47.1099,-31.9493 54.0935,-31.4701"/>
<text text-anchor="middle" x="71" y="-44.5" font-family="Helvetica,sans-Serif" font-size="10.00"> allocator</text>
</g>
</g>
</svg>
