<?xml version="1.0" encoding="UTF-8" standalone="no"?>
<!DOCTYPE svg PUBLIC "-//W3C//DTD SVG 1.1//EN"
 "http://www.w3.org/Graphics/SVG/1.1/DTD/svg11.dtd">
<!-- Generated by graphviz version 2.26.3 (20100126.1600)
 -->
<!-- Title: G Pages: 1 -->
<svg width="158pt" height="102pt"
 viewBox="0.00 0.00 158.00 102.00" xmlns="http://www.w3.org/2000/svg" xmlns:xlink="http://www.w3.org/1999/xlink">
<g id="graph1" class="graph" transform="scale(1 1) rotate(0) translate(4 98)">
<title>G</title>
<polygon fill="white" stroke="white" points="-4,5 -4,-98 155,-98 155,5 -4,5"/>
<!-- Node1 -->
<g id="node1" class="node"><title>Node1</title>
<polygon fill="#bfbfbf" stroke="black" points="13.5,-0.5 13.5,-21.5 96.5,-21.5 96.5,-0.5 13.5,-0.5"/>
<text text-anchor="middle" x="55" y="-8.5" font-family="Helvetica,sans-Serif" font-size="10.00">xpath_allocator</text>
</g>
<!-- Node2 -->
<g id="node2" class="node"><title>Node2</title>
<a xlink:href="../../d0/d13/structxpath__memory__block.html" target="_top" xlink:title="xpath_memory_block">
<polygon fill="white" stroke="black" points="0,-72.5 0,-93.5 110,-93.5 110,-72.5 0,-72.5"/>
<text text-anchor="middle" x="55" y="-80.5" font-family="Helvetica,sans-Serif" font-size="10.00">xpath_memory_block</text>
</a>
</g>
<!-- Node2&#45;&gt;Node1 -->
<g id="edge2" class="edge"><title>Node2&#45;&gt;Node1</title>
<path fill="none" stroke="#9a32cd" stroke-dasharray="5,2" d="M55,-62.2348C55,-48.969 55,-32.3188 55,-21.6674"/>
<polygon fill="#9a32cd" stroke="#9a32cd" points="51.5001,-62.3761 55,-72.3762 58.5001,-62.3762 51.5001,-62.3761"/>
<text text-anchor="middle" x="67.5" y="-44.5" font-family="Helvetica,sans-Serif" font-size="10.00"> _root</text>
</g>
<!-- Node2&#45;&gt;Node2 -->
<g id="edge4" class="edge"><title>Node2&#45;&gt;Node2</title>
<path fill="none" stroke="#9a32cd" stroke-dasharray="5,2" d="M120.001,-88.0658C124.952,-86.9408 128,-85.2522 128,-83 128,-79.4844 120.574,-77.342 110.073,-76.573"/>
<polygon fill="#9a32cd" stroke="#9a32cd" points="119.505,-84.601 110.073,-89.427 120.456,-91.5361 119.505,-84.601"/>
<text text-anchor="middle" x="139" y="-80.5" font-family="Helvetica,sans-Serif" font-size="10.00"> next</text>
</g>
</g>
</svg>
