<?xml version="1.0" encoding="UTF-8" standalone="no"?>
<!DOCTYPE svg PUBLIC "-//W3C//DTD SVG 1.1//EN"
 "http://www.w3.org/Graphics/SVG/1.1/DTD/svg11.dtd">
<!-- Generated by graphviz version 2.26.3 (20100126.1600)
 -->
<!-- Title: G Pages: 1 -->
<svg width="163pt" height="186pt"
 viewBox="0.00 0.00 163.00 186.00" xmlns="http://www.w3.org/2000/svg" xmlns:xlink="http://www.w3.org/1999/xlink">
<g id="graph1" class="graph" transform="scale(1 1) rotate(0) translate(4 182)">
<title>G</title>
<polygon fill="white" stroke="white" points="-4,5 -4,-182 160,-182 160,5 -4,5"/>
<!-- Node1 -->
<g id="node1" class="node"><title>Node1</title>
<polygon fill="#bfbfbf" stroke="black" points="0,-0.5 0,-21.5 120,-21.5 120,-0.5 0,-0.5"/>
<text text-anchor="middle" x="60" y="-8.5" font-family="Helvetica,sans-Serif" font-size="10.00">xpath_allocator_capture</text>
</g>
<!-- Node2 -->
<g id="node2" class="node"><title>Node2</title>
<a xlink:href="../../d9/d51/classxpath__allocator.html" target="_top" xlink:title="xpath_allocator">
<polygon fill="white" stroke="black" points="18.5,-84.5 18.5,-105.5 101.5,-105.5 101.5,-84.5 18.5,-84.5"/>
<text text-anchor="middle" x="60" y="-92.5" font-family="Helvetica,sans-Serif" font-size="10.00">xpath_allocator</text>
</a>
</g>
<!-- Node2&#45;&gt;Node1 -->
<g id="edge2" class="edge"><title>Node2&#45;&gt;Node1</title>
<path fill="none" stroke="#9a32cd" stroke-dasharray="5,2" d="M60,-73.9452C60,-57.2568 60,-34.6387 60,-21.5523"/>
<polygon fill="#9a32cd" stroke="#9a32cd" points="56.5001,-74.3613 60,-84.3613 63.5001,-74.3614 56.5001,-74.3613"/>
<text text-anchor="middle" x="75.5" y="-57" font-family="Helvetica,sans-Serif" font-size="10.00"> _state</text>
<text text-anchor="middle" x="75.5" y="-44" font-family="Helvetica,sans-Serif" font-size="10.00">_target</text>
</g>
<!-- Node3 -->
<g id="node4" class="node"><title>Node3</title>
<a xlink:href="../../d0/d13/structxpath__memory__block.html" target="_top" xlink:title="xpath_memory_block">
<polygon fill="white" stroke="black" points="5,-156.5 5,-177.5 115,-177.5 115,-156.5 5,-156.5"/>
<text text-anchor="middle" x="60" y="-164.5" font-family="Helvetica,sans-Serif" font-size="10.00">xpath_memory_block</text>
</a>
</g>
<!-- Node3&#45;&gt;Node2 -->
<g id="edge4" class="edge"><title>Node3&#45;&gt;Node2</title>
<path fill="none" stroke="#9a32cd" stroke-dasharray="5,2" d="M60,-146.235C60,-132.969 60,-116.319 60,-105.667"/>
<polygon fill="#9a32cd" stroke="#9a32cd" points="56.5001,-146.376 60,-156.376 63.5001,-146.376 56.5001,-146.376"/>
<text text-anchor="middle" x="72.5" y="-128.5" font-family="Helvetica,sans-Serif" font-size="10.00"> _root</text>
</g>
<!-- Node3&#45;&gt;Node3 -->
<g id="edge6" class="edge"><title>Node3&#45;&gt;Node3</title>
<path fill="none" stroke="#9a32cd" stroke-dasharray="5,2" d="M125.001,-172.066C129.952,-170.941 133,-169.252 133,-167 133,-163.484 125.574,-161.342 115.073,-160.573"/>
<polygon fill="#9a32cd" stroke="#9a32cd" points="124.505,-168.601 115.073,-173.427 125.456,-175.536 124.505,-168.601"/>
<text text-anchor="middle" x="144" y="-164.5" font-family="Helvetica,sans-Serif" font-size="10.00"> next</text>
</g>
</g>
</svg>
