<?xml version="1.0" encoding="UTF-8" standalone="no"?>
<!DOCTYPE svg PUBLIC "-//W3C//DTD SVG 1.1//EN"
 "http://www.w3.org/Graphics/SVG/1.1/DTD/svg11.dtd">
<!-- Generated by graphviz version 2.26.3 (20100126.1600)
 -->
<!-- Title: G Pages: 1 -->
<svg width="110pt" height="106pt"
 viewBox="0.00 0.00 110.00 106.00" xmlns="http://www.w3.org/2000/svg" xmlns:xlink="http://www.w3.org/1999/xlink">
<g id="graph1" class="graph" transform="scale(1 1) rotate(0) translate(4 102)">
<title>G</title>
<polygon fill="white" stroke="white" points="-4,5 -4,-102 107,-102 107,5 -4,5"/>
<!-- Node1 -->
<g id="node1" class="node"><title>Node1</title>
<polygon fill="#bfbfbf" stroke="black" points="1.5,-0.5 1.5,-21.5 60.5,-21.5 60.5,-0.5 1.5,-0.5"/>
<text text-anchor="middle" x="31" y="-8.5" font-family="Helvetica,sans-Serif" font-size="10.00">Hash::_ht</text>
</g>
<!-- Node2 -->
<g id="node2" class="node"><title>Node2</title>
<a xlink:href="../../df/d01/struct_hash_elem.html" target="_top" xlink:title="HashElem">
<polygon fill="white" stroke="black" points="0,-74.5 0,-95.5 62,-95.5 62,-74.5 0,-74.5"/>
<text text-anchor="middle" x="31" y="-82.5" font-family="Helvetica,sans-Serif" font-size="10.00">HashElem</text>
</a>
</g>
<!-- Node2&#45;&gt;Node1 -->
<g id="edge2" class="edge"><title>Node2&#45;&gt;Node1</title>
<path fill="none" stroke="#9a32cd" stroke-dasharray="5,2" d="M31,-64.2771C31,-50.3872 31,-32.675 31,-21.5827"/>
<polygon fill="#9a32cd" stroke="#9a32cd" points="27.5001,-64.3976 31,-74.3976 34.5001,-64.3976 27.5001,-64.3976"/>
<text text-anchor="middle" x="44.5" y="-44.5" font-family="Helvetica,sans-Serif" font-size="10.00"> chain</text>
</g>
<!-- Node2&#45;&gt;Node2 -->
<g id="edge4" class="edge"><title>Node2&#45;&gt;Node2</title>
<path fill="none" stroke="#9a32cd" stroke-dasharray="5,2" d="M72.1528,-91.0702C76.9088,-89.9458 80,-87.9224 80,-85 80,-80.3242 72.0865,-77.9498 62.102,-77.8767"/>
<polygon fill="#9a32cd" stroke="#9a32cd" points="71.6828,-87.6002 62.102,-92.1233 72.4123,-94.5621 71.6828,-87.6002"/>
<text text-anchor="middle" x="91" y="-89" font-family="Helvetica,sans-Serif" font-size="10.00"> prev</text>
<text text-anchor="middle" x="91" y="-76" font-family="Helvetica,sans-Serif" font-size="10.00">next</text>
</g>
</g>
</svg>
