<?xml version="1.0" encoding="UTF-8" standalone="no"?>
<!DOCTYPE svg PUBLIC "-//W3C//DTD SVG 1.1//EN"
 "http://www.w3.org/Graphics/SVG/1.1/DTD/svg11.dtd">
<!-- Generated by graphviz version 2.26.3 (20100126.1600)
 -->
<!-- Title: G Pages: 1 -->
<svg width="460pt" height="110pt"
 viewBox="0.00 0.00 460.00 110.00" xmlns="http://www.w3.org/2000/svg" xmlns:xlink="http://www.w3.org/1999/xlink">
<g id="graph1" class="graph" transform="scale(1 1) rotate(0) translate(4 106)">
<title>G</title>
<polygon fill="white" stroke="white" points="-4,5 -4,-106 457,-106 457,5 -4,5"/>
<!-- Node1 -->
<g id="node1" class="node"><title>Node1</title>
<polygon fill="#bfbfbf" stroke="black" points="356.5,-40.5 356.5,-61.5 451.5,-61.5 451.5,-40.5 356.5,-40.5"/>
<text text-anchor="middle" x="404" y="-48.5" font-family="Helvetica,sans-Serif" font-size="10.00">sqlite3_index_info</text>
</g>
<!-- Node2 -->
<g id="node2" class="node"><title>Node2</title>
<a xlink:href="../../df/d55/structsqlite3__index__info_1_1sqlite3__index__orderby.html" target="_top" xlink:title="sqlite3_index_info::sqlite3_index_orderby">
<polygon fill="white" stroke="black" points="21.5,-80.5 21.5,-101.5 216.5,-101.5 216.5,-80.5 21.5,-80.5"/>
<text text-anchor="middle" x="119" y="-88.5" font-family="Helvetica,sans-Serif" font-size="10.00">sqlite3_index_info::sqlite3_index_orderby</text>
</a>
</g>
<!-- Node2&#45;&gt;Node1 -->
<g id="edge2" class="edge"><title>Node2&#45;&gt;Node1</title>
<path fill="none" stroke="#9a32cd" stroke-dasharray="5,2" d="M227.118,-82.8349C262.603,-79.3068 302.13,-74.4667 338,-68 347.432,-66.2995 357.503,-63.9732 366.864,-61.5874"/>
<polygon fill="#9a32cd" stroke="#9a32cd" points="226.351,-79.3928 216.735,-83.8416 227.027,-86.3601 226.351,-79.3928"/>
<text text-anchor="middle" x="297" y="-83" font-family="Helvetica,sans-Serif" font-size="10.00"> aOrderBy</text>
</g>
<!-- Node3 -->
<g id="node4" class="node"><title>Node3</title>
<a xlink:href="../../d9/d5a/structsqlite3__index__info_1_1sqlite3__index__constraint__usage.html" target="_top" xlink:title="sqlite3_index_info::sqlite3_index_constraint_usage">
<polygon fill="white" stroke="black" points="0.5,-40.5 0.5,-61.5 237.5,-61.5 237.5,-40.5 0.5,-40.5"/>
<text text-anchor="middle" x="119" y="-48.5" font-family="Helvetica,sans-Serif" font-size="10.00">sqlite3_index_info::sqlite3_index_constraint_usage</text>
</a>
</g>
<!-- Node3&#45;&gt;Node1 -->
<g id="edge4" class="edge"><title>Node3&#45;&gt;Node1</title>
<path fill="none" stroke="#9a32cd" stroke-dasharray="5,2" d="M248.111,-51C286.716,-51 326.642,-51 356.423,-51"/>
<polygon fill="#9a32cd" stroke="#9a32cd" points="247.802,-47.5001 237.802,-51 247.802,-54.5001 247.802,-47.5001"/>
<text text-anchor="middle" x="297" y="-55" font-family="Helvetica,sans-Serif" font-size="10.00"> aConstraintUsage</text>
</g>
<!-- Node4 -->
<g id="node6" class="node"><title>Node4</title>
<a xlink:href="../../d5/d0f/structsqlite3__index__info_1_1sqlite3__index__constraint.html" target="_top" xlink:title="sqlite3_index_info::sqlite3_index_constraint">
<polygon fill="white" stroke="black" points="16,-0.5 16,-21.5 222,-21.5 222,-0.5 16,-0.5"/>
<text text-anchor="middle" x="119" y="-8.5" font-family="Helvetica,sans-Serif" font-size="10.00">sqlite3_index_info::sqlite3_index_constraint</text>
</a>
</g>
<!-- Node4&#45;&gt;Node1 -->
<g id="edge6" class="edge"><title>Node4&#45;&gt;Node1</title>
<path fill="none" stroke="#9a32cd" stroke-dasharray="5,2" d="M232.227,-19.6793C266.369,-23.159 303.842,-27.842 338,-34 347.432,-35.7005 357.503,-38.0268 366.864,-40.4126"/>
<polygon fill="#9a32cd" stroke="#9a32cd" points="232.517,-16.191 222.22,-18.6838 231.824,-23.1567 232.517,-16.191"/>
<text text-anchor="middle" x="297" y="-38" font-family="Helvetica,sans-Serif" font-size="10.00"> aConstraint</text>
</g>
</g>
</svg>
