<?xml version="1.0" encoding="UTF-8" standalone="no"?>
<!DOCTYPE svg PUBLIC "-//W3C//DTD SVG 1.1//EN"
 "http://www.w3.org/Graphics/SVG/1.1/DTD/svg11.dtd">
<!-- Generated by graphviz version 2.26.3 (20100126.1600)
 -->
<!-- Title: G Pages: 1 -->
<svg width="230pt" height="186pt"
 viewBox="0.00 0.00 230.00 186.00" xmlns="http://www.w3.org/2000/svg" xmlns:xlink="http://www.w3.org/1999/xlink">
<g id="graph1" class="graph" transform="scale(1 1) rotate(0) translate(4 182)">
<title>G</title>
<polygon fill="white" stroke="white" points="-4,5 -4,-182 227,-182 227,5 -4,5"/>
<!-- Node1 -->
<g id="node1" class="node"><title>Node1</title>
<polygon fill="#bfbfbf" stroke="black" points="42,-0.5 42,-21.5 112,-21.5 112,-0.5 42,-0.5"/>
<text text-anchor="middle" x="77" y="-8.5" font-family="Helvetica,sans-Serif" font-size="10.00">MemJournal</text>
</g>
<!-- Node2 -->
<g id="node2" class="node"><title>Node2</title>
<a xlink:href="../../d1/d82/struct_file_point.html" target="_top" xlink:title="FilePoint">
<polygon fill="white" stroke="black" points="49.5,-84.5 49.5,-105.5 104.5,-105.5 104.5,-84.5 49.5,-84.5"/>
<text text-anchor="middle" x="77" y="-92.5" font-family="Helvetica,sans-Serif" font-size="10.00">FilePoint</text>
</a>
</g>
<!-- Node2&#45;&gt;Node1 -->
<g id="edge2" class="edge"><title>Node2&#45;&gt;Node1</title>
<path fill="none" stroke="#9a32cd" stroke-dasharray="5,2" d="M77,-73.9452C77,-57.2568 77,-34.6387 77,-21.5523"/>
<polygon fill="#9a32cd" stroke="#9a32cd" points="73.5001,-74.3613 77,-84.3613 80.5001,-74.3614 73.5001,-74.3613"/>
<text text-anchor="middle" x="97" y="-57" font-family="Helvetica,sans-Serif" font-size="10.00"> endpoint</text>
<text text-anchor="middle" x="97" y="-44" font-family="Helvetica,sans-Serif" font-size="10.00">readpoint</text>
</g>
<!-- Node3 -->
<g id="node4" class="node"><title>Node3</title>
<a xlink:href="../../de/d53/struct_file_chunk.html" target="_top" xlink:title="FileChunk">
<polygon fill="white" stroke="black" points="-0.5,-156.5 -0.5,-177.5 60.5,-177.5 60.5,-156.5 -0.5,-156.5"/>
<text text-anchor="middle" x="30" y="-164.5" font-family="Helvetica,sans-Serif" font-size="10.00">FileChunk</text>
</a>
</g>
<!-- Node3&#45;&gt;Node1 -->
<g id="edge8" class="edge"><title>Node3&#45;&gt;Node1</title>
<path fill="none" stroke="#9a32cd" stroke-dasharray="5,2" d="M19.7778,-146.96C12.4708,-129.836 5.19251,-104.749 13,-84 22.9722,-57.4984 47.4184,-34.3417 63.0468,-21.553"/>
<polygon fill="#9a32cd" stroke="#9a32cd" points="16.8128,-148.886 24.1965,-156.484 23.1627,-145.94 16.8128,-148.886"/>
<text text-anchor="middle" x="27" y="-92.5" font-family="Helvetica,sans-Serif" font-size="10.00"> pFirst</text>
</g>
<!-- Node3&#45;&gt;Node2 -->
<g id="edge4" class="edge"><title>Node3&#45;&gt;Node2</title>
<path fill="none" stroke="#9a32cd" stroke-dasharray="5,2" d="M42.5269,-147.81C51.3389,-134.311 62.8054,-116.745 70.0365,-105.667"/>
<polygon fill="#9a32cd" stroke="#9a32cd" points="39.4704,-146.089 36.935,-156.376 45.3321,-149.916 39.4704,-146.089"/>
<text text-anchor="middle" x="76.5" y="-128.5" font-family="Helvetica,sans-Serif" font-size="10.00"> pChunk</text>
</g>
<!-- Node3&#45;&gt;Node3 -->
<g id="edge6" class="edge"><title>Node3&#45;&gt;Node3</title>
<path fill="none" stroke="#9a32cd" stroke-dasharray="5,2" d="M70.8705,-172.617C75.2121,-171.529 78,-169.656 78,-167 78,-162.641 70.4922,-160.393 60.9315,-160.257"/>
<polygon fill="#9a32cd" stroke="#9a32cd" points="70.4738,-169.14 60.9315,-173.743 71.262,-176.095 70.4738,-169.14"/>
<text text-anchor="middle" x="93" y="-164.5" font-family="Helvetica,sans-Serif" font-size="10.00"> pNext</text>
</g>
<!-- Node4 -->
<g id="node8" class="node"><title>Node4</title>
<a xlink:href="../../d9/df3/structsqlite3__io__methods.html" target="_top" xlink:title="sqlite3_io_methods">
<polygon fill="white" stroke="black" points="121.5,-84.5 121.5,-105.5 222.5,-105.5 222.5,-84.5 121.5,-84.5"/>
<text text-anchor="middle" x="172" y="-92.5" font-family="Helvetica,sans-Serif" font-size="10.00">sqlite3_io_methods</text>
</a>
</g>
<!-- Node4&#45;&gt;Node1 -->
<g id="edge10" class="edge"><title>Node4&#45;&gt;Node1</title>
<path fill="none" stroke="#9a32cd" stroke-dasharray="5,2" d="M156.636,-76.2742C147.002,-65.1039 133.984,-51.0014 121,-40 113.043,-33.2577 103.447,-26.7695 95.2501,-21.646"/>
<polygon fill="#9a32cd" stroke="#9a32cd" points="154.159,-78.7656 163.287,-84.1447 159.506,-74.2475 154.159,-78.7656"/>
<text text-anchor="middle" x="167.5" y="-50.5" font-family="Helvetica,sans-Serif" font-size="10.00"> pMethod</text>
</g>
</g>
</svg>
