<?xml version="1.0" encoding="UTF-8" standalone="no"?>
<!DOCTYPE svg PUBLIC "-//W3C//DTD SVG 1.1//EN"
 "http://www.w3.org/Graphics/SVG/1.1/DTD/svg11.dtd">
<!-- Generated by graphviz version 2.26.3 (20100126.1600)
 -->
<!-- Title: G Pages: 1 -->
<svg width="136pt" height="146pt"
 viewBox="0.00 0.00 136.00 146.00" xmlns="http://www.w3.org/2000/svg" xmlns:xlink="http://www.w3.org/1999/xlink">
<g id="graph1" class="graph" transform="scale(1 1) rotate(0) translate(4 142)">
<title>G</title>
<polygon fill="white" stroke="white" points="-4,5 -4,-142 133,-142 133,5 -4,5"/>
<!-- Node1 -->
<g id="node1" class="node"><title>Node1</title>
<polygon fill="#bfbfbf" stroke="black" points="0,-116.5 0,-137.5 128,-137.5 128,-116.5 0,-116.5"/>
<text text-anchor="middle" x="64" y="-124.5" font-family="Helvetica,sans-Serif" font-size="10.00">src/db/sqlite3/sqlite3ext.h</text>
</g>
<!-- Node2 -->
<g id="node3" class="node"><title>Node2</title>
<a xlink:href="../../de/dd3/sqlite3_8h.html" target="_top" xlink:title="sqlite3.h">
<polygon fill="white" stroke="black" points="37.5,-58.5 37.5,-79.5 90.5,-79.5 90.5,-58.5 37.5,-58.5"/>
<text text-anchor="middle" x="64" y="-66.5" font-family="Helvetica,sans-Serif" font-size="10.00">sqlite3.h</text>
</a>
</g>
<!-- Node1&#45;&gt;Node2 -->
<g id="edge2" class="edge"><title>Node1&#45;&gt;Node2</title>
<path fill="none" stroke="midnightblue" d="M64,-116.362C64,-108.922 64,-98.7427 64,-89.7276"/>
<polygon fill="midnightblue" stroke="midnightblue" points="67.5001,-89.5706 64,-79.5707 60.5001,-89.5707 67.5001,-89.5706"/>
</g>
<!-- Node3 -->
<g id="node5" class="node"><title>Node3</title>
<polygon fill="white" stroke="#bfbfbf" points="38,-0.5 38,-21.5 90,-21.5 90,-0.5 38,-0.5"/>
<text text-anchor="middle" x="64" y="-8.5" font-family="Helvetica,sans-Serif" font-size="10.00">stdarg.h</text>
</g>
<!-- Node2&#45;&gt;Node3 -->
<g id="edge4" class="edge"><title>Node2&#45;&gt;Node3</title>
<path fill="none" stroke="midnightblue" d="M64,-58.3619C64,-50.9219 64,-40.7427 64,-31.7276"/>
<polygon fill="midnightblue" stroke="midnightblue" points="67.5001,-31.5706 64,-21.5707 60.5001,-31.5707 67.5001,-31.5706"/>
</g>
</g>
</svg>
