<?xml version="1.0" encoding="UTF-8" standalone="no"?>
<!DOCTYPE svg PUBLIC "-//W3C//DTD SVG 1.1//EN"
 "http://www.w3.org/Graphics/SVG/1.1/DTD/svg11.dtd">
<!-- Generated by graphviz version 2.26.3 (20100126.1600)
 -->
<!-- Title: G Pages: 1 -->
<svg width="127pt" height="178pt"
 viewBox="0.00 0.00 127.00 178.00" xmlns="http://www.w3.org/2000/svg" xmlns:xlink="http://www.w3.org/1999/xlink">
<g id="graph1" class="graph" transform="scale(1 1) rotate(0) translate(4 174)">
<title>G</title>
<polygon fill="white" stroke="white" points="-4,5 -4,-174 124,-174 124,5 -4,5"/>
<!-- Node1 -->
<g id="node1" class="node"><title>Node1</title>
<polygon fill="#bfbfbf" stroke="black" points="3.5,-0.5 3.5,-21.5 80.5,-21.5 80.5,-0.5 3.5,-0.5"/>
<text text-anchor="middle" x="42" y="-8.5" font-family="Helvetica,sans-Serif" font-size="10.00">FuncDefHash</text>
</g>
<!-- Node2 -->
<g id="node2" class="node"><title>Node2</title>
<a xlink:href="../../df/d38/struct_func_def.html" target="_top" xlink:title="FuncDef">
<polygon fill="white" stroke="black" points="15,-74.5 15,-95.5 69,-95.5 69,-74.5 15,-74.5"/>
<text text-anchor="middle" x="42" y="-82.5" font-family="Helvetica,sans-Serif" font-size="10.00">FuncDef</text>
</a>
</g>
<!-- Node2&#45;&gt;Node1 -->
<g id="edge2" class="edge"><title>Node2&#45;&gt;Node1</title>
<path fill="none" stroke="#9a32cd" stroke-dasharray="5,2" d="M42,-64.2771C42,-50.3872 42,-32.675 42,-21.5827"/>
<polygon fill="#9a32cd" stroke="#9a32cd" points="38.5001,-64.3976 42,-74.3976 45.5001,-64.3976 38.5001,-64.3976"/>
<text text-anchor="middle" x="46.5" y="-44.5" font-family="Helvetica,sans-Serif" font-size="10.00"> a</text>
</g>
<!-- Node2&#45;&gt;Node2 -->
<g id="edge6" class="edge"><title>Node2&#45;&gt;Node2</title>
<path fill="none" stroke="#9a32cd" stroke-dasharray="5,2" d="M79.5105,-91.1412C84.0382,-90.0321 87,-87.985 87,-85 87,-80.1016 79.0239,-77.7289 69.2408,-77.882"/>
<polygon fill="#9a32cd" stroke="#9a32cd" points="78.8644,-87.6868 69.2408,-92.118 79.5273,-94.6553 78.8644,-87.6868"/>
<text text-anchor="middle" x="103" y="-89" font-family="Helvetica,sans-Serif" font-size="10.00"> pHash</text>
<text text-anchor="middle" x="103" y="-76" font-family="Helvetica,sans-Serif" font-size="10.00">pNext</text>
</g>
<!-- Node3 -->
<g id="node4" class="node"><title>Node3</title>
<a xlink:href="../../d5/da4/struct_func_destructor.html" target="_top" xlink:title="FuncDestructor">
<polygon fill="white" stroke="black" points="0,-148.5 0,-169.5 84,-169.5 84,-148.5 0,-148.5"/>
<text text-anchor="middle" x="42" y="-156.5" font-family="Helvetica,sans-Serif" font-size="10.00">FuncDestructor</text>
</a>
</g>
<!-- Node3&#45;&gt;Node2 -->
<g id="edge4" class="edge"><title>Node3&#45;&gt;Node2</title>
<path fill="none" stroke="#9a32cd" stroke-dasharray="5,2" d="M42,-138.277C42,-124.387 42,-106.675 42,-95.5827"/>
<polygon fill="#9a32cd" stroke="#9a32cd" points="38.5001,-138.398 42,-148.398 45.5001,-138.398 38.5001,-138.398"/>
<text text-anchor="middle" x="69.5" y="-120.5" font-family="Helvetica,sans-Serif" font-size="10.00"> pDestructor</text>
</g>
</g>
</svg>
