<?xml version="1.0" encoding="UTF-8" standalone="no"?>
<!DOCTYPE svg PUBLIC "-//W3C//DTD SVG 1.1//EN"
 "http://www.w3.org/Graphics/SVG/1.1/DTD/svg11.dtd">
<!-- Generated by graphviz version 2.26.3 (20100126.1600)
 -->
<!-- Title: G Pages: 1 -->
<!--zoomable 146 -->
<svg id="main" version="1.1" xmlns="http://www.w3.org/2000/svg" xmlns:xlink="http://www.w3.org/1999/xlink" xml:space="preserve" onload="init(evt)">
        <defs>
                <circle id="rim" cx="0" cy="0" r="7"/>
                <circle id="rim2" cx="0" cy="0" r="3.5"/>
                <g id="zoomPlus">
                        <use xlink:href="#rim" fill="#404040">
                                <set attributeName="fill" to="#808080" begin="zoomplus.mouseover" end="zoomplus.mouseout"/>
                        </use>
                        <path d="M-4,0h8M0,-4v8" fill="none" stroke="white" stroke-width="1.5" pointer-events="none"/>
                </g>
                <g id="zoomMin">
                        <use xlink:href="#rim" fill="#404040">
                                <set attributeName="fill" to="#808080" begin="zoomminus.mouseover" end="zoomminus.mouseout"/>
                        </use>
                        <path d="M-4,0h8" fill="none" stroke="white" stroke-width="1.5" pointer-events="none"/>
                </g>
                <g id="dirArrow">
                        <path fill="none" stroke="white" stroke-width="1.5" d="M0,-3.0v7 M-2.5,-0.5L0,-3.0L2.5,-0.5"/>
                </g>
               <g id="resetDef">
                       <use xlink:href="#rim2" fill="#404040">
                               <set attributeName="fill" to="#808080" begin="reset.mouseover" end="reset.mouseout"/>
                       </use>
               </g>
        </defs>

<script type="text/javascript">
var viewWidth = 910;
var viewHeight = 146;
var sectionId = 'dynsection-0';
</script>
<script xlink:href="../../svgpan.js"/>
<svg id="graph" class="graph">
<g id="viewport">
<title>G</title>
<polygon fill="white" stroke="white" points="-4,5 -4,-142 907,-142 907,5 -4,5"/>
<!-- Node1 -->
<g id="node1" class="node"><title>Node1</title>
<polygon fill="#bfbfbf" stroke="black" points="441.5,-116.5 441.5,-137.5 516.5,-137.5 516.5,-116.5 441.5,-116.5"/>
<text text-anchor="middle" x="479" y="-124.5" font-family="Helvetica,sans-Serif" font-size="10.00">src/index.cpp</text>
</g>
<!-- Node2 -->
<g id="node3" class="node"><title>Node2</title>
<a xlink:href="../../d1/d6d/ioformat_8h.html" target="_top" xlink:title="api/ioformat.h">
<polygon fill="white" stroke="black" points="78,-58.5 78,-79.5 154,-79.5 154,-58.5 78,-58.5"/>
<text text-anchor="middle" x="116" y="-66.5" font-family="Helvetica,sans-Serif" font-size="10.00">api/ioformat.h</text>
</a>
</g>
<!-- Node1&#45;&gt;Node2 -->
<g id="edge2" class="edge"><title>Node1&#45;&gt;Node2</title>
<path fill="none" stroke="midnightblue" d="M441.062,-121.995C382.362,-114.087 266.06,-97.7657 168,-80 166.723,-79.7687 165.43,-79.5296 164.125,-79.2842"/>
<polygon fill="midnightblue" stroke="midnightblue" points="164.49,-75.7895 154.005,-77.3073 163.148,-82.6596 164.49,-75.7895"/>
</g>
<!-- Node3 -->
<g id="node5" class="node"><title>Node3</title>
<polygon fill="white" stroke="#bfbfbf" points="0,-0.5 0,-21.5 44,-21.5 44,-0.5 0,-0.5"/>
<text text-anchor="middle" x="22" y="-8.5" font-family="Helvetica,sans-Serif" font-size="10.00">vector</text>
</g>
<!-- Node1&#45;&gt;Node3 -->
<g id="edge18" class="edge"><title>Node1&#45;&gt;Node3</title>
<path fill="none" stroke="midnightblue" d="M441.456,-124.481C346.223,-117.841 100.543,-99.0575 69,-80 50.4786,-68.8099 37.575,-47.204 30.036,-31.137"/>
<polygon fill="midnightblue" stroke="midnightblue" points="33.0577,-29.3103 25.8514,-21.5437 26.6415,-32.109 33.0577,-29.3103"/>
</g>
<!-- Node6 -->
<g id="node11" class="node"><title>Node6</title>
<polygon fill="white" stroke="#bfbfbf" points="172,-0.5 172,-21.5 212,-21.5 212,-0.5 172,-0.5"/>
<text text-anchor="middle" x="192" y="-8.5" font-family="Helvetica,sans-Serif" font-size="10.00">utility</text>
</g>
<!-- Node1&#45;&gt;Node6 -->
<g id="edge28" class="edge"><title>Node1&#45;&gt;Node6</title>
<path fill="none" stroke="midnightblue" d="M441.408,-125.993C373.307,-123.337 233.552,-113.805 201,-80 188.93,-67.4655 187.594,-47.1923 188.733,-31.8569"/>
<polygon fill="midnightblue" stroke="midnightblue" points="192.23,-32.0756 189.882,-21.7443 185.275,-31.2851 192.23,-32.0756"/>
</g>
<!-- Node7 -->
<g id="node13" class="node"><title>Node7</title>
<a xlink:href="../../dc/d93/stem_8h.html" target="_top" xlink:title="backend/stemming/porter/stem.h">
<polygon fill="white" stroke="black" points="210,-58.5 210,-79.5 370,-79.5 370,-58.5 210,-58.5"/>
<text text-anchor="middle" x="290" y="-66.5" font-family="Helvetica,sans-Serif" font-size="10.00">backend/stemming/porter/stem.h</text>
</a>
</g>
<!-- Node1&#45;&gt;Node7 -->
<g id="edge12" class="edge"><title>Node1&#45;&gt;Node7</title>
<path fill="none" stroke="midnightblue" d="M444.774,-116.497C413.695,-106.959 367.688,-92.8408 333.91,-82.475"/>
<polygon fill="midnightblue" stroke="midnightblue" points="334.877,-79.1109 324.291,-79.5231 332.824,-85.8029 334.877,-79.1109"/>
</g>
<!-- Node8 -->
<g id="node15" class="node"><title>Node8</title>
<polygon fill="white" stroke="#bfbfbf" points="388,-58.5 388,-79.5 434,-79.5 434,-58.5 388,-58.5"/>
<text text-anchor="middle" x="411" y="-66.5" font-family="Helvetica,sans-Serif" font-size="10.00">stdio.h</text>
</g>
<!-- Node1&#45;&gt;Node8 -->
<g id="edge14" class="edge"><title>Node1&#45;&gt;Node8</title>
<path fill="none" stroke="midnightblue" d="M466.528,-116.362C456.655,-107.941 442.667,-96.0105 431.202,-86.2308"/>
<polygon fill="midnightblue" stroke="midnightblue" points="433.273,-83.3972 423.393,-79.5707 428.73,-88.7231 433.273,-83.3972"/>
</g>
<!-- Node9 -->
<g id="node17" class="node"><title>Node9</title>
<polygon fill="white" stroke="#bfbfbf" points="452,-58.5 452,-79.5 506,-79.5 506,-58.5 452,-58.5"/>
<text text-anchor="middle" x="479" y="-66.5" font-family="Helvetica,sans-Serif" font-size="10.00">iostream</text>
</g>
<!-- Node1&#45;&gt;Node9 -->
<g id="edge16" class="edge"><title>Node1&#45;&gt;Node9</title>
<path fill="none" stroke="midnightblue" d="M479,-116.362C479,-108.922 479,-98.7427 479,-89.7276"/>
<polygon fill="midnightblue" stroke="midnightblue" points="482.5,-89.5706 479,-79.5707 475.5,-89.5707 482.5,-89.5706"/>
</g>
<!-- Node10 -->
<g id="node20" class="node"><title>Node10</title>
<polygon fill="white" stroke="#bfbfbf" points="524,-58.5 524,-79.5 570,-79.5 570,-58.5 524,-58.5"/>
<text text-anchor="middle" x="547" y="-66.5" font-family="Helvetica,sans-Serif" font-size="10.00">cstring</text>
</g>
<!-- Node1&#45;&gt;Node10 -->
<g id="edge20" class="edge"><title>Node1&#45;&gt;Node10</title>
<path fill="none" stroke="midnightblue" d="M491.472,-116.362C501.345,-107.941 515.333,-96.0105 526.798,-86.2308"/>
<polygon fill="midnightblue" stroke="midnightblue" points="529.27,-88.7231 534.607,-79.5707 524.727,-83.3972 529.27,-88.7231"/>
</g>
<!-- Node11 -->
<g id="node22" class="node"><title>Node11</title>
<polygon fill="white" stroke="#bfbfbf" points="588,-58.5 588,-79.5 636,-79.5 636,-58.5 588,-58.5"/>
<text text-anchor="middle" x="612" y="-66.5" font-family="Helvetica,sans-Serif" font-size="10.00">stdlib.h</text>
</g>
<!-- Node1&#45;&gt;Node11 -->
<g id="edge22" class="edge"><title>Node1&#45;&gt;Node11</title>
<path fill="none" stroke="midnightblue" d="M503.085,-116.497C524.139,-107.315 554.927,-93.8889 578.402,-83.6516"/>
<polygon fill="midnightblue" stroke="midnightblue" points="579.877,-86.8268 587.644,-79.6212 577.079,-80.4104 579.877,-86.8268"/>
</g>
<!-- Node12 -->
<g id="node24" class="node"><title>Node12</title>
<polygon fill="white" stroke="#bfbfbf" points="653.5,-58.5 653.5,-79.5 702.5,-79.5 702.5,-58.5 653.5,-58.5"/>
<text text-anchor="middle" x="678" y="-66.5" font-family="Helvetica,sans-Serif" font-size="10.00">ctype.h</text>
</g>
<!-- Node1&#45;&gt;Node12 -->
<g id="edge24" class="edge"><title>Node1&#45;&gt;Node12</title>
<path fill="none" stroke="midnightblue" d="M516.724,-116.849C548.355,-108.22 594.928,-95.2414 643.447,-80.4029"/>
<polygon fill="midnightblue" stroke="midnightblue" points="644.644,-83.6966 653.173,-77.4111 642.586,-77.006 644.644,-83.6966"/>
</g>
<!-- Node13 -->
<g id="node26" class="node"><title>Node13</title>
<polygon fill="white" stroke="#bfbfbf" points="720,-58.5 720,-79.5 770,-79.5 770,-58.5 720,-58.5"/>
<text text-anchor="middle" x="745" y="-66.5" font-family="Helvetica,sans-Serif" font-size="10.00">fstream</text>
</g>
<!-- Node1&#45;&gt;Node13 -->
<g id="edge26" class="edge"><title>Node1&#45;&gt;Node13</title>
<path fill="none" stroke="midnightblue" d="M516.669,-120.72C560.834,-113.061 636.375,-99.0406 709.948,-80.0738"/>
<polygon fill="midnightblue" stroke="midnightblue" points="711.052,-83.4029 719.843,-77.4893 709.283,-76.6301 711.052,-83.4029"/>
</g>
<!-- Node14 -->
<g id="node29" class="node"><title>Node14</title>
<polygon fill="white" stroke="#bfbfbf" points="788,-58.5 788,-79.5 902,-79.5 902,-58.5 788,-58.5"/>
<text text-anchor="middle" x="845" y="-66.5" font-family="Helvetica,sans-Serif" font-size="10.00">boost/lexical_cast.hpp</text>
</g>
<!-- Node1&#45;&gt;Node14 -->
<g id="edge30" class="edge"><title>Node1&#45;&gt;Node14</title>
<path fill="none" stroke="midnightblue" d="M516.905,-121.183C572.003,-112.7 677.706,-96.3274 777.791,-80.1852"/>
<polygon fill="midnightblue" stroke="midnightblue" points="778.454,-83.6235 787.768,-78.5737 777.338,-76.713 778.454,-83.6235"/>
</g>
<!-- Node2&#45;&gt;Node3 -->
<g id="edge4" class="edge"><title>Node2&#45;&gt;Node3</title>
<path fill="none" stroke="midnightblue" d="M98.759,-58.3619C84.4484,-49.532 63.885,-36.844 47.6432,-26.8224"/>
<polygon fill="midnightblue" stroke="midnightblue" points="49.48,-23.8431 39.1317,-21.5707 45.8042,-29.8004 49.48,-23.8431"/>
</g>
<!-- Node4 -->
<g id="node7" class="node"><title>Node4</title>
<polygon fill="white" stroke="#bfbfbf" points="61.5,-0.5 61.5,-21.5 102.5,-21.5 102.5,-0.5 61.5,-0.5"/>
<text text-anchor="middle" x="82" y="-8.5" font-family="Helvetica,sans-Serif" font-size="10.00">string</text>
</g>
<!-- Node2&#45;&gt;Node4 -->
<g id="edge6" class="edge"><title>Node2&#45;&gt;Node4</title>
<path fill="none" stroke="midnightblue" d="M109.764,-58.3619C105.163,-50.5131 98.7748,-39.6159 93.2861,-30.2527"/>
<polygon fill="midnightblue" stroke="midnightblue" points="96.2733,-28.4276 88.1966,-21.5707 90.2344,-31.9677 96.2733,-28.4276"/>
</g>
<!-- Node5 -->
<g id="node9" class="node"><title>Node5</title>
<polygon fill="white" stroke="#bfbfbf" points="119.5,-0.5 119.5,-21.5 154.5,-21.5 154.5,-0.5 119.5,-0.5"/>
<text text-anchor="middle" x="137" y="-8.5" font-family="Helvetica,sans-Serif" font-size="10.00">map</text>
</g>
<!-- Node2&#45;&gt;Node5 -->
<g id="edge8" class="edge"><title>Node2&#45;&gt;Node5</title>
<path fill="none" stroke="midnightblue" d="M119.852,-58.3619C122.605,-50.7584 126.394,-40.294 129.71,-31.1349"/>
<polygon fill="midnightblue" stroke="midnightblue" points="133.059,-32.1649 133.173,-21.5707 126.477,-29.7818 133.059,-32.1649"/>
</g>
<!-- Node2&#45;&gt;Node6 -->
<g id="edge10" class="edge"><title>Node2&#45;&gt;Node6</title>
<path fill="none" stroke="midnightblue" d="M129.94,-58.3619C141.188,-49.7773 157.216,-37.5459 170.165,-27.6636"/>
<polygon fill="midnightblue" stroke="midnightblue" points="172.323,-30.4198 178.149,-21.5707 168.076,-24.8551 172.323,-30.4198"/>
</g>
</g>
</svg>
        <g id="navigator" transform="translate(0 0)" fill="#404254">
                <rect fill="#f2f5e9" fill-opacity="0.5" stroke="#606060" stroke-width=".5" x="0" y="0" width="60" height="60"/>
                <use id="zoomplus" xlink:href="#zoomPlus" x="17" y="9" onmousedown="handleZoom(evt,'in')"/>
                <use id="zoomminus" xlink:href="#zoomMin" x="42" y="9" onmousedown="handleZoom(evt,'out')"/>
                <use id="reset" xlink:href="#resetDef" x="30" y="36" onmousedown="handleReset()"/>
                <g id="arrowUp" xlink:href="#dirArrow" transform="translate(30 24)" onmousedown="handlePan(0,-1)">
                  <use xlink:href="#rim" fill="#404040">
                        <set attributeName="fill" to="#808080" begin="arrowUp.mouseover" end="arrowUp.mouseout"/>
                  </use>
                  <path fill="none" stroke="white" stroke-width="1.5" d="M0,-3.0v7 M-2.5,-0.5L0,-3.0L2.5,-0.5"/>
                </g>
                <g id="arrowRight" xlink:href="#dirArrow" transform="rotate(90) translate(36 -43)" onmousedown="handlePan(1,0)">
                  <use xlink:href="#rim" fill="#404040">
                        <set attributeName="fill" to="#808080" begin="arrowRight.mouseover" end="arrowRight.mouseout"/>
                  </use>
                  <path fill="none" stroke="white" stroke-width="1.5" d="M0,-3.0v7 M-2.5,-0.5L0,-3.0L2.5,-0.5"/>
                </g>
                <g id="arrowDown" xlink:href="#dirArrow" transform="rotate(180) translate(-30 -48)" onmousedown="handlePan(0,1)">
                  <use xlink:href="#rim" fill="#404040">
                        <set attributeName="fill" to="#808080" begin="arrowDown.mouseover" end="arrowDown.mouseout"/>
                  </use>
                  <path fill="none" stroke="white" stroke-width="1.5" d="M0,-3.0v7 M-2.5,-0.5L0,-3.0L2.5,-0.5"/>
                </g>
                <g id="arrowLeft" xlink:href="#dirArrow" transform="rotate(270) translate(-36 17)" onmousedown="handlePan(-1,0)">
                  <use xlink:href="#rim" fill="#404040">
                        <set attributeName="fill" to="#808080" begin="arrowLeft.mouseover" end="arrowLeft.mouseout"/>
                  </use>
                  <path fill="none" stroke="white" stroke-width="1.5" d="M0,-3.0v7 M-2.5,-0.5L0,-3.0L2.5,-0.5"/>
                </g>
        </g>
</svg>
