<?xml version="1.0" encoding="UTF-8" standalone="no"?>
<!DOCTYPE svg PUBLIC "-//W3C//DTD SVG 1.1//EN"
 "http://www.w3.org/Graphics/SVG/1.1/DTD/svg11.dtd">
<!-- Generated by graphviz version 2.26.3 (20100126.1600)
 -->
<!-- Title: G Pages: 1 -->
<svg width="311pt" height="186pt"
 viewBox="0.00 0.00 311.00 186.00" xmlns="http://www.w3.org/2000/svg" xmlns:xlink="http://www.w3.org/1999/xlink">
<g id="graph1" class="graph" transform="scale(1 1) rotate(0) translate(4 182)">
<title>G</title>
<polygon fill="white" stroke="white" points="-4,5 -4,-182 308,-182 308,5 -4,5"/>
<!-- Node1 -->
<g id="node1" class="node"><title>Node1</title>
<polygon fill="#bfbfbf" stroke="black" points="114,-0.5 114,-21.5 148,-21.5 148,-0.5 114,-0.5"/>
<text text-anchor="middle" x="131" y="-8.5" font-family="Helvetica,sans-Serif" font-size="10.00">Wal</text>
</g>
<!-- Node2 -->
<g id="node2" class="node"><title>Node2</title>
<a xlink:href="../../db/db0/structsqlite3__file.html" target="_top" xlink:title="sqlite3_file">
<polygon fill="white" stroke="black" points="18.5,-84.5 18.5,-105.5 81.5,-105.5 81.5,-84.5 18.5,-84.5"/>
<text text-anchor="middle" x="50" y="-92.5" font-family="Helvetica,sans-Serif" font-size="10.00">sqlite3_file</text>
</a>
</g>
<!-- Node2&#45;&gt;Node1 -->
<g id="edge2" class="edge"><title>Node2&#45;&gt;Node1</title>
<path fill="none" stroke="#9a32cd" stroke-dasharray="5,2" d="M62.962,-76.0418C70.9797,-64.9584 81.8446,-51.0257 93,-40 99.7287,-33.3494 108,-26.8712 115.106,-21.7307"/>
<polygon fill="#9a32cd" stroke="#9a32cd" points="60.1031,-74.0227 57.1913,-84.2096 65.8202,-78.062 60.1031,-74.0227"/>
<text text-anchor="middle" x="110" y="-57" font-family="Helvetica,sans-Serif" font-size="10.00"> pDbFd</text>
<text text-anchor="middle" x="110" y="-44" font-family="Helvetica,sans-Serif" font-size="10.00">pWalFd</text>
</g>
<!-- Node3 -->
<g id="node4" class="node"><title>Node3</title>
<a xlink:href="../../d9/df3/structsqlite3__io__methods.html" target="_top" xlink:title="sqlite3_io_methods">
<polygon fill="white" stroke="black" points="-0.5,-156.5 -0.5,-177.5 100.5,-177.5 100.5,-156.5 -0.5,-156.5"/>
<text text-anchor="middle" x="50" y="-164.5" font-family="Helvetica,sans-Serif" font-size="10.00">sqlite3_io_methods</text>
</a>
</g>
<!-- Node3&#45;&gt;Node2 -->
<g id="edge4" class="edge"><title>Node3&#45;&gt;Node2</title>
<path fill="none" stroke="#9a32cd" stroke-dasharray="5,2" d="M50,-146.235C50,-132.969 50,-116.319 50,-105.667"/>
<polygon fill="#9a32cd" stroke="#9a32cd" points="46.5001,-146.376 50,-156.376 53.5001,-146.376 46.5001,-146.376"/>
<text text-anchor="middle" x="73" y="-128.5" font-family="Helvetica,sans-Serif" font-size="10.00"> pMethods</text>
</g>
<!-- Node4 -->
<g id="node6" class="node"><title>Node4</title>
<a xlink:href="../../d3/d36/structsqlite3__vfs.html" target="_top" xlink:title="sqlite3_vfs">
<polygon fill="white" stroke="black" points="99,-84.5 99,-105.5 163,-105.5 163,-84.5 99,-84.5"/>
<text text-anchor="middle" x="131" y="-92.5" font-family="Helvetica,sans-Serif" font-size="10.00">sqlite3_vfs</text>
</a>
</g>
<!-- Node4&#45;&gt;Node1 -->
<g id="edge6" class="edge"><title>Node4&#45;&gt;Node1</title>
<path fill="none" stroke="#9a32cd" stroke-dasharray="5,2" d="M131,-73.9452C131,-57.2568 131,-34.6387 131,-21.5523"/>
<polygon fill="#9a32cd" stroke="#9a32cd" points="127.5,-74.3613 131,-84.3613 134.5,-74.3614 127.5,-74.3613"/>
<text text-anchor="middle" x="143" y="-50.5" font-family="Helvetica,sans-Serif" font-size="10.00"> pVfs</text>
</g>
<!-- Node4&#45;&gt;Node4 -->
<g id="edge8" class="edge"><title>Node4&#45;&gt;Node4</title>
<path fill="none" stroke="#9a32cd" stroke-dasharray="5,2" d="M173.222,-100.699C177.945,-99.6244 181,-97.7246 181,-95 181,-90.6406 173.179,-88.3928 163.22,-88.2566"/>
<polygon fill="#9a32cd" stroke="#9a32cd" points="172.803,-97.224 163.22,-101.743 173.53,-104.186 172.803,-97.224"/>
<text text-anchor="middle" x="196" y="-92.5" font-family="Helvetica,sans-Serif" font-size="10.00"> pNext</text>
</g>
<!-- Node5 -->
<g id="node9" class="node"><title>Node5</title>
<a xlink:href="../../d8/de9/struct_wal_index_hdr.html" target="_top" xlink:title="WalIndexHdr">
<polygon fill="white" stroke="black" points="229,-84.5 229,-105.5 303,-105.5 303,-84.5 229,-84.5"/>
<text text-anchor="middle" x="266" y="-92.5" font-family="Helvetica,sans-Serif" font-size="10.00">WalIndexHdr</text>
</a>
</g>
<!-- Node5&#45;&gt;Node1 -->
<g id="edge10" class="edge"><title>Node5&#45;&gt;Node1</title>
<path fill="none" stroke="#9a32cd" stroke-dasharray="5,2" d="M240.323,-79.0233C213.202,-62.1481 171.215,-36.0228 147.959,-21.5523"/>
<polygon fill="#9a32cd" stroke="#9a32cd" points="238.563,-82.05 248.902,-84.3613 242.261,-76.1066 238.563,-82.05"/>
<text text-anchor="middle" x="226.5" y="-50.5" font-family="Helvetica,sans-Serif" font-size="10.00"> hdr</text>
</g>
</g>
</svg>
