<?xml version="1.0" encoding="UTF-8" standalone="no"?>
<!DOCTYPE svg PUBLIC "-//W3C//DTD SVG 1.1//EN"
 "http://www.w3.org/Graphics/SVG/1.1/DTD/svg11.dtd">
<!-- Generated by graphviz version 2.26.3 (20100126.1600)
 -->
<!-- Title: G Pages: 1 -->
<svg width="373pt" height="267pt"
 viewBox="0.00 0.00 373.00 266.50" xmlns="http://www.w3.org/2000/svg" xmlns:xlink="http://www.w3.org/1999/xlink">
<g id="graph1" class="graph" transform="scale(1 1) rotate(0) translate(4 262.5)">
<title>G</title>
<polygon fill="white" stroke="white" points="-4,5 -4,-262.5 370,-262.5 370,5 -4,5"/>
<!-- Node1 -->
<g id="node1" class="node"><title>Node1</title>
<polygon fill="#bfbfbf" stroke="black" points="126,-91 126,-112 206,-112 206,-91 126,-91"/>
<text text-anchor="middle" x="166" y="-99" font-family="Helvetica,sans-Serif" font-size="10.00">PCacheGlobal</text>
</g>
<!-- Node2 -->
<g id="node2" class="node"><title>Node2</title>
<a xlink:href="../../d5/dfb/struct_p_group.html" target="_top" xlink:title="PGroup">
<polygon fill="white" stroke="black" points="260,-165 260,-186 310,-186 310,-165 260,-165"/>
<text text-anchor="middle" x="285" y="-173" font-family="Helvetica,sans-Serif" font-size="10.00">PGroup</text>
</a>
</g>
<!-- Node2&#45;&gt;Node1 -->
<g id="edge2" class="edge"><title>Node2&#45;&gt;Node1</title>
<path fill="none" stroke="#9a32cd" stroke-dasharray="5,2" d="M250.227,-162.659C235.599,-156.979 220.481,-150.658 214,-146.5 199.002,-136.877 184.459,-122.272 175.385,-112.33"/>
<polygon fill="#9a32cd" stroke="#9a32cd" points="249.082,-165.969 259.673,-166.27 251.582,-159.43 249.082,-165.969"/>
<text text-anchor="middle" x="222.5" y="-137" font-family="Helvetica,sans-Serif" font-size="10.00"> grp</text>
</g>
<!-- Node5 -->
<g id="node9" class="node"><title>Node5</title>
<a xlink:href="../../d7/df0/struct_p_cache1.html" target="_top" xlink:title="PCache1">
<polygon fill="white" stroke="black" points="308.5,-91 308.5,-112 365.5,-112 365.5,-91 308.5,-91"/>
<text text-anchor="middle" x="337" y="-99" font-family="Helvetica,sans-Serif" font-size="10.00">PCache1</text>
</a>
</g>
<!-- Node2&#45;&gt;Node5 -->
<g id="edge12" class="edge"><title>Node2&#45;&gt;Node5</title>
<path fill="none" stroke="#9a32cd" stroke-dasharray="5,2" d="M298.415,-156.409C308.329,-142.301 321.46,-123.614 329.563,-112.083"/>
<polygon fill="#9a32cd" stroke="#9a32cd" points="295.336,-154.703 292.45,-164.898 301.064,-158.728 295.336,-154.703"/>
<text text-anchor="middle" x="331.5" y="-137" font-family="Helvetica,sans-Serif" font-size="10.00"> pGroup</text>
</g>
<!-- Node3 -->
<g id="node4" class="node"><title>Node3</title>
<a xlink:href="../../da/d32/struct_pg_hdr1.html" target="_top" xlink:title="PgHdr1">
<polygon fill="white" stroke="black" points="236,-9 236,-30 286,-30 286,-9 236,-9"/>
<text text-anchor="middle" x="261" y="-17" font-family="Helvetica,sans-Serif" font-size="10.00">PgHdr1</text>
</a>
</g>
<!-- Node3&#45;&gt;Node2 -->
<g id="edge4" class="edge"><title>Node3&#45;&gt;Node2</title>
<path fill="none" stroke="#9a32cd" stroke-dasharray="5,2" d="M255.895,-40.0989C251.915,-59.5413 247.982,-89.3768 254,-114.5 258.538,-133.446 269.984,-153.152 277.625,-164.869"/>
<polygon fill="#9a32cd" stroke="#9a32cd" points="259.339,-40.7378 258.109,-30.2146 252.508,-39.208 259.339,-40.7378"/>
<text text-anchor="middle" x="277" y="-105.5" font-family="Helvetica,sans-Serif" font-size="10.00"> pLruHead</text>
<text text-anchor="middle" x="277" y="-92.5" font-family="Helvetica,sans-Serif" font-size="10.00">pLruTail</text>
</g>
<!-- Node3&#45;&gt;Node3 -->
<g id="edge8" class="edge"><title>Node3&#45;&gt;Node3</title>
<path fill="none" stroke="#9a32cd" stroke-dasharray="5,2" d="M296.446,-26.7247C300.996,-25.4693 304,-23.061 304,-19.5 304,-13.6562 295.91,-10.917 286.176,-11.2822"/>
<polygon fill="#9a32cd" stroke="#9a32cd" points="295.792,-23.2714 286.176,-27.7178 296.466,-30.239 295.792,-23.2714"/>
<text text-anchor="middle" x="325.5" y="-30" font-family="Helvetica,sans-Serif" font-size="10.00"> pLruNext</text>
<text text-anchor="middle" x="325.5" y="-17" font-family="Helvetica,sans-Serif" font-size="10.00">pLruPrev</text>
<text text-anchor="middle" x="325.5" y="-4" font-family="Helvetica,sans-Serif" font-size="10.00">pNext</text>
</g>
<!-- Node3&#45;&gt;Node5 -->
<g id="edge14" class="edge"><title>Node3&#45;&gt;Node5</title>
<path fill="none" stroke="#9a32cd" stroke-dasharray="5,2" d="M290.823,-35.3682C299.734,-41.1455 308.987,-48.3014 316,-56.5 324.742,-66.7203 330.628,-81.1948 333.892,-90.9435"/>
<polygon fill="#9a32cd" stroke="#9a32cd" points="292.481,-32.28 282.121,-30.0628 288.837,-38.2568 292.481,-32.28"/>
<text text-anchor="middle" x="343.5" y="-61" font-family="Helvetica,sans-Serif" font-size="10.00"> apHash</text>
</g>
<!-- Node4 -->
<g id="node6" class="node"><title>Node4</title>
<a xlink:href="../../d8/d72/structsqlite3__pcache__page.html" target="_top" xlink:title="sqlite3_pcache_page">
<polygon fill="white" stroke="black" points="0,-91 0,-112 108,-112 108,-91 0,-91"/>
<text text-anchor="middle" x="54" y="-99" font-family="Helvetica,sans-Serif" font-size="10.00">sqlite3_pcache_page</text>
</a>
</g>
<!-- Node4&#45;&gt;Node3 -->
<g id="edge6" class="edge"><title>Node4&#45;&gt;Node3</title>
<path fill="none" stroke="#9a32cd" stroke-dasharray="5,2" d="M90.1408,-87.1833C131.843,-70.6637 199.336,-43.9271 235.76,-29.4984"/>
<polygon fill="#9a32cd" stroke="#9a32cd" points="88.6459,-84.0108 80.6379,-90.9478 91.224,-90.5188 88.6459,-84.0108"/>
<text text-anchor="middle" x="175.5" y="-61" font-family="Helvetica,sans-Serif" font-size="10.00"> page</text>
</g>
<!-- Node5&#45;&gt;Node3 -->
<g id="edge10" class="edge"><title>Node5&#45;&gt;Node3</title>
<path fill="none" stroke="#9a32cd" stroke-dasharray="5,2" d="M299.526,-86.7461C291.959,-82.4134 284.614,-77.0367 279,-70.5 269.089,-58.9608 264.514,-41.6029 262.49,-30.4114"/>
<polygon fill="#9a32cd" stroke="#9a32cd" points="297.932,-89.8622 308.42,-91.3596 301.155,-83.6483 297.932,-89.8622"/>
<text text-anchor="middle" x="297.5" y="-61" font-family="Helvetica,sans-Serif" font-size="10.00"> pCache</text>
</g>
<!-- Node6 -->
<g id="node13" class="node"><title>Node6</title>
<a xlink:href="../../d5/d3c/structsqlite3__mutex.html" target="_top" xlink:title="sqlite3_mutex">
<polygon fill="white" stroke="black" points="101.5,-237 101.5,-258 178.5,-258 178.5,-237 101.5,-237"/>
<text text-anchor="middle" x="140" y="-245" font-family="Helvetica,sans-Serif" font-size="10.00">sqlite3_mutex</text>
</a>
</g>
<!-- Node6&#45;&gt;Node1 -->
<g id="edge18" class="edge"><title>Node6&#45;&gt;Node1</title>
<path fill="none" stroke="#9a32cd" stroke-dasharray="5,2" d="M117.693,-230.028C99.6391,-213.622 78.8935,-188.133 90,-164.5 101.226,-140.613 126.448,-122.667 144.765,-112.158"/>
<polygon fill="#9a32cd" stroke="#9a32cd" points="115.809,-233.024 125.675,-236.887 120.372,-227.715 115.809,-233.024"/>
<text text-anchor="middle" x="105.5" y="-173" font-family="Helvetica,sans-Serif" font-size="10.00"> mutex</text>
</g>
<!-- Node6&#45;&gt;Node2 -->
<g id="edge16" class="edge"><title>Node6&#45;&gt;Node2</title>
<path fill="none" stroke="#9a32cd" stroke-dasharray="5,2" d="M170.685,-232.263C198.557,-218.424 238.956,-198.363 263.517,-186.167"/>
<polygon fill="#9a32cd" stroke="#9a32cd" points="168.795,-229.294 161.395,-236.876 171.908,-235.563 168.795,-229.294"/>
<text text-anchor="middle" x="240.5" y="-209" font-family="Helvetica,sans-Serif" font-size="10.00"> mutex</text>
</g>
<!-- Node7 -->
<g id="node16" class="node"><title>Node7</title>
<a xlink:href="../../d0/d56/struct_pg_freeslot.html" target="_top" xlink:title="PgFreeslot">
<polygon fill="white" stroke="black" points="130,-165 130,-186 194,-186 194,-165 130,-165"/>
<text text-anchor="middle" x="162" y="-173" font-family="Helvetica,sans-Serif" font-size="10.00">PgFreeslot</text>
</a>
</g>
<!-- Node7&#45;&gt;Node1 -->
<g id="edge20" class="edge"><title>Node7&#45;&gt;Node1</title>
<path fill="none" stroke="#9a32cd" stroke-dasharray="5,2" d="M162.176,-154.737C162.317,-147.675 162.566,-139.74 163,-132.5 163.408,-125.699 164.141,-118.083 164.78,-112.102"/>
<polygon fill="#9a32cd" stroke="#9a32cd" points="158.674,-154.839 162.031,-164.888 165.674,-154.939 158.674,-154.839"/>
<text text-anchor="middle" x="177" y="-137" font-family="Helvetica,sans-Serif" font-size="10.00"> pFree</text>
</g>
<!-- Node7&#45;&gt;Node7 -->
<g id="edge22" class="edge"><title>Node7&#45;&gt;Node7</title>
<path fill="none" stroke="#9a32cd" stroke-dasharray="5,2" d="M204.222,-181.199C208.945,-180.124 212,-178.225 212,-175.5 212,-171.141 204.179,-168.893 194.22,-168.757"/>
<polygon fill="#9a32cd" stroke="#9a32cd" points="203.803,-177.724 194.22,-182.243 204.53,-184.686 203.803,-177.724"/>
<text text-anchor="middle" x="227" y="-173" font-family="Helvetica,sans-Serif" font-size="10.00"> pNext</text>
</g>
</g>
</svg>
