<?xml version="1.0" encoding="UTF-8" standalone="no"?>
<!DOCTYPE svg PUBLIC "-//W3C//DTD SVG 1.1//EN"
 "http://www.w3.org/Graphics/SVG/1.1/DTD/svg11.dtd">
<!-- Generated by graphviz version 2.26.3 (20100126.1600)
 -->
<!-- Title: G Pages: 1 -->
<svg width="274pt" height="106pt"
 viewBox="0.00 0.00 274.00 106.00" xmlns="http://www.w3.org/2000/svg" xmlns:xlink="http://www.w3.org/1999/xlink">
<g id="graph1" class="graph" transform="scale(1 1) rotate(0) translate(4 102)">
<title>G</title>
<polygon fill="white" stroke="white" points="-4,5 -4,-102 271,-102 271,5 -4,5"/>
<!-- Node1 -->
<g id="node1" class="node"><title>Node1</title>
<polygon fill="#bfbfbf" stroke="black" points="0,-2.5 0,-23.5 110,-23.5 110,-2.5 0,-2.5"/>
<text text-anchor="middle" x="55" y="-10.5" font-family="Helvetica,sans-Serif" font-size="10.00">xml_document_struct</text>
</g>
<!-- Node2 -->
<g id="node2" class="node"><title>Node2</title>
<a xlink:href="../../d3/dae/structxml__allocator.html" target="_top" xlink:title="xml_allocator">
<polygon fill="white" stroke="black" points="77,-76.5 77,-97.5 151,-97.5 151,-76.5 77,-76.5"/>
<text text-anchor="middle" x="114" y="-84.5" font-family="Helvetica,sans-Serif" font-size="10.00">xml_allocator</text>
</a>
</g>
<!-- Node2&#45;&gt;Node1 -->
<g id="edge2" class="edge"><title>Node2&#45;&gt;Node1</title>
<path fill="none" stroke="midnightblue" d="M99.099,-68.3106C87.8145,-54.1571 72.7192,-35.2241 63.4376,-23.5827"/>
<polygon fill="midnightblue" stroke="midnightblue" points="96.576,-70.7605 105.547,-76.3976 102.049,-66.3967 96.576,-70.7605"/>
</g>
<!-- Node3 -->
<g id="node4" class="node"><title>Node3</title>
<a xlink:href="../../d7/dd1/structxml__memory__page.html" target="_top" xlink:title="xml_memory_page">
<polygon fill="white" stroke="black" points="127.5,-2.5 127.5,-23.5 226.5,-23.5 226.5,-2.5 127.5,-2.5"/>
<text text-anchor="middle" x="177" y="-10.5" font-family="Helvetica,sans-Serif" font-size="10.00">xml_memory_page</text>
</a>
</g>
<!-- Node2&#45;&gt;Node3 -->
<g id="edge8" class="edge"><title>Node2&#45;&gt;Node3</title>
<path fill="none" stroke="#9a32cd" stroke-dasharray="5,2" d="M107.648,-66.3219C106.544,-58.7882 106.855,-50.5263 111,-44 116.905,-34.703 126.419,-28.1447 136.407,-23.5375"/>
<polygon fill="#9a32cd" stroke="#9a32cd" points="104.27,-67.2533 109.898,-76.2301 111.096,-65.7033 104.27,-67.2533"/>
<text text-anchor="middle" x="131" y="-48.5" font-family="Helvetica,sans-Serif" font-size="10.00"> allocator</text>
</g>
<!-- Node3&#45;&gt;Node2 -->
<g id="edge4" class="edge"><title>Node3&#45;&gt;Node2</title>
<path fill="none" stroke="#9a32cd" stroke-dasharray="5,2" d="M169.832,-32.9013C166.213,-41.2274 161.25,-50.6542 155,-58 148.898,-65.1718 140.648,-71.4537 133.148,-76.3203"/>
<polygon fill="#9a32cd" stroke="#9a32cd" points="173.126,-34.0904 173.576,-23.5051 166.623,-31.4995 173.126,-34.0904"/>
<text text-anchor="middle" x="176.5" y="-48.5" font-family="Helvetica,sans-Serif" font-size="10.00"> _root</text>
</g>
<!-- Node3&#45;&gt;Node3 -->
<g id="edge6" class="edge"><title>Node3&#45;&gt;Node3</title>
<path fill="none" stroke="#9a32cd" stroke-dasharray="5,2" d="M236.592,-18.3646C241.176,-17.1771 244,-15.3889 244,-13 244,-9.17773 236.769,-6.89333 226.672,-6.1468"/>
<polygon fill="#9a32cd" stroke="#9a32cd" points="236.042,-14.9079 226.672,-19.8532 237.081,-21.8304 236.042,-14.9079"/>
<text text-anchor="middle" x="255" y="-17" font-family="Helvetica,sans-Serif" font-size="10.00"> prev</text>
<text text-anchor="middle" x="255" y="-4" font-family="Helvetica,sans-Serif" font-size="10.00">next</text>
</g>
</g>
</svg>
