<?xml version="1.0" encoding="UTF-8" standalone="no"?>
<!DOCTYPE svg PUBLIC "-//W3C//DTD SVG 1.1//EN"
 "http://www.w3.org/Graphics/SVG/1.1/DTD/svg11.dtd">
<!-- Generated by graphviz version 2.26.3 (20100126.1600)
 -->
<!-- Title: G Pages: 1 -->
<svg width="316pt" height="88pt"
 viewBox="0.00 0.00 316.00 88.00" xmlns="http://www.w3.org/2000/svg" xmlns:xlink="http://www.w3.org/1999/xlink">
<g id="graph1" class="graph" transform="scale(1 1) rotate(0) translate(4 84)">
<title>G</title>
<polygon fill="white" stroke="white" points="-4,5 -4,-84 313,-84 313,5 -4,5"/>
<!-- Node1 -->
<g id="node1" class="node"><title>Node1</title>
<polygon fill="#bfbfbf" stroke="black" points="67,-58.5 67,-79.5 243,-79.5 243,-58.5 67,-58.5"/>
<text text-anchor="middle" x="155" y="-66.5" font-family="Helvetica,sans-Serif" font-size="10.00">src/backend/stemming/porter/stem.c</text>
</g>
<!-- Node2 -->
<g id="node3" class="node"><title>Node2</title>
<polygon fill="white" stroke="#bfbfbf" points="0,-0.5 0,-21.5 48,-21.5 48,-0.5 0,-0.5"/>
<text text-anchor="middle" x="24" y="-8.5" font-family="Helvetica,sans-Serif" font-size="10.00">stdlib.h</text>
</g>
<!-- Node1&#45;&gt;Node2 -->
<g id="edge2" class="edge"><title>Node1&#45;&gt;Node2</title>
<path fill="none" stroke="midnightblue" d="M131.277,-58.4966C110.632,-49.3562 80.4839,-36.0082 57.4011,-25.7883"/>
<polygon fill="midnightblue" stroke="midnightblue" points="58.5501,-22.4694 47.9893,-21.6212 55.7162,-28.8701 58.5501,-22.4694"/>
</g>
<!-- Node3 -->
<g id="node5" class="node"><title>Node3</title>
<polygon fill="white" stroke="#bfbfbf" points="65.5,-0.5 65.5,-21.5 114.5,-21.5 114.5,-0.5 65.5,-0.5"/>
<text text-anchor="middle" x="90" y="-8.5" font-family="Helvetica,sans-Serif" font-size="10.00">string.h</text>
</g>
<!-- Node1&#45;&gt;Node3 -->
<g id="edge4" class="edge"><title>Node1&#45;&gt;Node3</title>
<path fill="none" stroke="midnightblue" d="M143.078,-58.3619C133.641,-49.9408 120.27,-38.0105 109.31,-28.2308"/>
<polygon fill="midnightblue" stroke="midnightblue" points="111.638,-25.6171 101.846,-21.5707 106.978,-30.8401 111.638,-25.6171"/>
</g>
<!-- Node4 -->
<g id="node7" class="node"><title>Node4</title>
<a xlink:href="../../dc/d93/stem_8h.html" target="_top" xlink:title="stem.h">
<polygon fill="white" stroke="black" points="131.5,-0.5 131.5,-21.5 178.5,-21.5 178.5,-0.5 131.5,-0.5"/>
<text text-anchor="middle" x="155" y="-8.5" font-family="Helvetica,sans-Serif" font-size="10.00">stem.h</text>
</a>
</g>
<!-- Node1&#45;&gt;Node4 -->
<g id="edge6" class="edge"><title>Node1&#45;&gt;Node4</title>
<path fill="none" stroke="midnightblue" d="M155,-58.3619C155,-50.9219 155,-40.7427 155,-31.7276"/>
<polygon fill="midnightblue" stroke="midnightblue" points="158.5,-31.5706 155,-21.5707 151.5,-31.5707 158.5,-31.5706"/>
</g>
<!-- Node5 -->
<g id="node9" class="node"><title>Node5</title>
<polygon fill="white" stroke="#bfbfbf" points="196,-0.5 196,-21.5 242,-21.5 242,-0.5 196,-0.5"/>
<text text-anchor="middle" x="219" y="-8.5" font-family="Helvetica,sans-Serif" font-size="10.00">stdio.h</text>
</g>
<!-- Node1&#45;&gt;Node5 -->
<g id="edge8" class="edge"><title>Node1&#45;&gt;Node5</title>
<path fill="none" stroke="midnightblue" d="M166.739,-58.3619C175.941,-50.0226 188.94,-38.2418 199.672,-28.5162"/>
<polygon fill="midnightblue" stroke="midnightblue" points="202.276,-30.8793 207.336,-21.5707 197.576,-25.6924 202.276,-30.8793"/>
</g>
<!-- Node6 -->
<g id="node11" class="node"><title>Node6</title>
<polygon fill="white" stroke="#bfbfbf" points="259.5,-0.5 259.5,-21.5 308.5,-21.5 308.5,-0.5 259.5,-0.5"/>
<text text-anchor="middle" x="284" y="-8.5" font-family="Helvetica,sans-Serif" font-size="10.00">ctype.h</text>
</g>
<!-- Node1&#45;&gt;Node6 -->
<g id="edge10" class="edge"><title>Node1&#45;&gt;Node6</title>
<path fill="none" stroke="midnightblue" d="M178.361,-58.4966C198.691,-49.3562 228.378,-36.0082 251.109,-25.7883"/>
<polygon fill="midnightblue" stroke="midnightblue" points="252.692,-28.9142 260.377,-21.6212 249.821,-22.5298 252.692,-28.9142"/>
</g>
</g>
</svg>
