<?xml version="1.0" encoding="UTF-8" standalone="no"?>
<!DOCTYPE svg PUBLIC "-//W3C//DTD SVG 1.1//EN"
 "http://www.w3.org/Graphics/SVG/1.1/DTD/svg11.dtd">
<!-- Generated by graphviz version 2.26.3 (20100126.1600)
 -->
<!-- Title: G Pages: 1 -->
<svg width="365pt" height="178pt"
 viewBox="0.00 0.00 365.00 178.00" xmlns="http://www.w3.org/2000/svg" xmlns:xlink="http://www.w3.org/1999/xlink">
<g id="graph1" class="graph" transform="scale(1 1) rotate(0) translate(4 174)">
<title>G</title>
<polygon fill="white" stroke="white" points="-4,5 -4,-174 362,-174 362,5 -4,5"/>
<!-- Node1 -->
<g id="node1" class="node"><title>Node1</title>
<polygon fill="#bfbfbf" stroke="black" points="-0.5,-148.5 -0.5,-169.5 54.5,-169.5 54.5,-148.5 -0.5,-148.5"/>
<text text-anchor="middle" x="27" y="-156.5" font-family="Helvetica,sans-Serif" font-size="10.00">unixShm</text>
</g>
<!-- Node1&#45;&gt;Node1 -->
<g id="edge2" class="edge"><title>Node1&#45;&gt;Node1</title>
<path fill="none" stroke="#9a32cd" stroke-dasharray="5,2" d="M64.7152,-164.77C69.1273,-163.708 72,-161.785 72,-159 72,-154.43 64.2638,-152.18 54.6842,-152.252"/>
<polygon fill="#9a32cd" stroke="#9a32cd" points="64.297,-161.294 54.6842,-165.748 64.9768,-168.261 64.297,-161.294"/>
<text text-anchor="middle" x="87" y="-156.5" font-family="Helvetica,sans-Serif" font-size="10.00"> pNext</text>
</g>
<!-- Node2 -->
<g id="node3" class="node"><title>Node2</title>
<a xlink:href="../../d4/db1/structunix_shm_node.html" target="_top" xlink:title="unixShmNode">
<polygon fill="white" stroke="black" points="39,-76.5 39,-97.5 117,-97.5 117,-76.5 39,-76.5"/>
<text text-anchor="middle" x="78" y="-84.5" font-family="Helvetica,sans-Serif" font-size="10.00">unixShmNode</text>
</a>
</g>
<!-- Node1&#45;&gt;Node2 -->
<g id="edge8" class="edge"><title>Node1&#45;&gt;Node2</title>
<path fill="none" stroke="#9a32cd" stroke-dasharray="5,2" d="M20.8366,-138.438C19.7551,-130.918 20.0318,-122.635 24,-116 28.861,-107.872 36.8688,-101.89 45.2478,-97.545"/>
<polygon fill="#9a32cd" stroke="#9a32cd" points="17.4436,-139.305 23.0263,-148.309 24.2775,-137.789 17.4436,-139.305"/>
<text text-anchor="middle" x="38" y="-120.5" font-family="Helvetica,sans-Serif" font-size="10.00"> pFirst</text>
</g>
<!-- Node2&#45;&gt;Node1 -->
<g id="edge4" class="edge"><title>Node2&#45;&gt;Node1</title>
<path fill="none" stroke="#9a32cd" stroke-dasharray="5,2" d="M69.4014,-106.954C65.7513,-114.482 61.1466,-122.929 56,-130 51.1397,-136.678 44.7297,-143.258 39.1723,-148.458"/>
<polygon fill="#9a32cd" stroke="#9a32cd" points="72.6215,-108.329 73.6151,-97.7807 66.2604,-105.407 72.6215,-108.329"/>
<text text-anchor="middle" x="90" y="-120.5" font-family="Helvetica,sans-Serif" font-size="10.00"> pShmNode</text>
</g>
<!-- Node4 -->
<g id="node8" class="node"><title>Node4</title>
<a xlink:href="../../d0/d86/structunix_inode_info.html" target="_top" xlink:title="unixInodeInfo">
<polygon fill="white" stroke="black" points="135.5,-2.5 135.5,-23.5 210.5,-23.5 210.5,-2.5 135.5,-2.5"/>
<text text-anchor="middle" x="173" y="-10.5" font-family="Helvetica,sans-Serif" font-size="10.00">unixInodeInfo</text>
</a>
</g>
<!-- Node2&#45;&gt;Node4 -->
<g id="edge20" class="edge"><title>Node2&#45;&gt;Node4</title>
<path fill="none" stroke="#9a32cd" stroke-dasharray="5,2" d="M66.3431,-67.5015C63.2206,-59.5925 61.9405,-50.751 67,-44 75.3652,-32.8379 108.463,-24.35 135.477,-19.1022"/>
<polygon fill="#9a32cd" stroke="#9a32cd" points="63.2074,-69.0564 70.7634,-76.4832 69.488,-65.9654 63.2074,-69.0564"/>
<text text-anchor="middle" x="93" y="-48.5" font-family="Helvetica,sans-Serif" font-size="10.00"> pShmNode</text>
</g>
<!-- Node3 -->
<g id="node5" class="node"><title>Node3</title>
<a xlink:href="../../d5/d3c/structsqlite3__mutex.html" target="_top" xlink:title="sqlite3_mutex">
<polygon fill="white" stroke="black" points="119.5,-148.5 119.5,-169.5 196.5,-169.5 196.5,-148.5 119.5,-148.5"/>
<text text-anchor="middle" x="158" y="-156.5" font-family="Helvetica,sans-Serif" font-size="10.00">sqlite3_mutex</text>
</a>
</g>
<!-- Node3&#45;&gt;Node2 -->
<g id="edge6" class="edge"><title>Node3&#45;&gt;Node2</title>
<path fill="none" stroke="#9a32cd" stroke-dasharray="5,2" d="M143.525,-140.692C136.784,-132.694 128.407,-123.459 120,-116 112.444,-109.296 103.288,-102.812 95.4567,-97.6816"/>
<polygon fill="#9a32cd" stroke="#9a32cd" points="140.842,-142.939 149.89,-148.452 146.254,-138.5 140.842,-142.939"/>
<text text-anchor="middle" x="148.5" y="-120.5" font-family="Helvetica,sans-Serif" font-size="10.00"> mutex</text>
</g>
<!-- Node4&#45;&gt;Node2 -->
<g id="edge10" class="edge"><title>Node4&#45;&gt;Node2</title>
<path fill="none" stroke="#9a32cd" stroke-dasharray="5,2" d="M154.879,-30.5942C145.643,-39.2244 134.051,-49.5526 123,-58 114.434,-64.5473 104.392,-71.1155 95.9696,-76.3413"/>
<polygon fill="#9a32cd" stroke="#9a32cd" points="157.472,-32.9591 162.318,-23.5372 152.654,-27.881 157.472,-32.9591"/>
<text text-anchor="middle" x="154.5" y="-48.5" font-family="Helvetica,sans-Serif" font-size="10.00"> pInode</text>
</g>
<!-- Node4&#45;&gt;Node4 -->
<g id="edge16" class="edge"><title>Node4&#45;&gt;Node4</title>
<path fill="none" stroke="#9a32cd" stroke-dasharray="5,2" d="M220.771,-18.6966C225.204,-17.522 228,-15.6232 228,-13 228,-8.69531 220.472,-6.34119 210.532,-5.93762"/>
<polygon fill="#9a32cd" stroke="#9a32cd" points="219.981,-15.2709 210.532,-20.0624 220.907,-22.2094 219.981,-15.2709"/>
<text text-anchor="middle" x="242.5" y="-17" font-family="Helvetica,sans-Serif" font-size="10.00"> pPrev</text>
<text text-anchor="middle" x="242.5" y="-4" font-family="Helvetica,sans-Serif" font-size="10.00">pNext</text>
</g>
<!-- Node5 -->
<g id="node10" class="node"><title>Node5</title>
<a xlink:href="../../dd/d77/struct_unix_unused_fd.html" target="_top" xlink:title="UnixUnusedFd">
<polygon fill="white" stroke="black" points="151,-76.5 151,-97.5 233,-97.5 233,-76.5 151,-76.5"/>
<text text-anchor="middle" x="192" y="-84.5" font-family="Helvetica,sans-Serif" font-size="10.00">UnixUnusedFd</text>
</a>
</g>
<!-- Node5&#45;&gt;Node4 -->
<g id="edge12" class="edge"><title>Node5&#45;&gt;Node4</title>
<path fill="none" stroke="#9a32cd" stroke-dasharray="5,2" d="M186.785,-66.6886C183.203,-52.7386 178.593,-34.7848 175.717,-23.5827"/>
<polygon fill="#9a32cd" stroke="#9a32cd" points="183.401,-67.5822 189.278,-76.3976 190.181,-65.8413 183.401,-67.5822"/>
<text text-anchor="middle" x="205.5" y="-48.5" font-family="Helvetica,sans-Serif" font-size="10.00"> pUnused</text>
</g>
<!-- Node5&#45;&gt;Node5 -->
<g id="edge14" class="edge"><title>Node5&#45;&gt;Node5</title>
<path fill="none" stroke="#9a32cd" stroke-dasharray="5,2" d="M243.258,-92.3938C248.006,-91.2808 251,-89.4829 251,-87 251,-83.0273 243.336,-80.8082 233.083,-80.3427"/>
<polygon fill="#9a32cd" stroke="#9a32cd" points="242.576,-88.9515 233.083,-93.6573 243.438,-95.8982 242.576,-88.9515"/>
<text text-anchor="middle" x="266" y="-84.5" font-family="Helvetica,sans-Serif" font-size="10.00"> pNext</text>
</g>
<!-- Node6 -->
<g id="node14" class="node"><title>Node6</title>
<a xlink:href="../../d2/d56/structunix_file_id.html" target="_top" xlink:title="unixFileId">
<polygon fill="white" stroke="black" points="298.5,-76.5 298.5,-97.5 357.5,-97.5 357.5,-76.5 298.5,-76.5"/>
<text text-anchor="middle" x="328" y="-84.5" font-family="Helvetica,sans-Serif" font-size="10.00">unixFileId</text>
</a>
</g>
<!-- Node6&#45;&gt;Node4 -->
<g id="edge18" class="edge"><title>Node6&#45;&gt;Node4</title>
<path fill="none" stroke="#9a32cd" stroke-dasharray="5,2" d="M296.565,-71.9922C266.438,-57.6093 221.736,-36.2674 195.167,-23.5827"/>
<polygon fill="#9a32cd" stroke="#9a32cd" points="295.26,-75.2477 305.792,-76.3976 298.276,-68.9307 295.26,-75.2477"/>
<text text-anchor="middle" x="276.5" y="-48.5" font-family="Helvetica,sans-Serif" font-size="10.00"> fileId</text>
</g>
</g>
</svg>
