<?xml version="1.0" encoding="UTF-8" standalone="no"?>
<!DOCTYPE svg PUBLIC "-//W3C//DTD SVG 1.1//EN"
 "http://www.w3.org/Graphics/SVG/1.1/DTD/svg11.dtd">
<!-- Generated by graphviz version 2.26.3 (20100126.1600)
 -->
<!-- Title: G Pages: 1 -->
<svg width="258pt" height="267pt"
 viewBox="0.00 0.00 258.00 266.50" xmlns="http://www.w3.org/2000/svg" xmlns:xlink="http://www.w3.org/1999/xlink">
<g id="graph1" class="graph" transform="scale(1 1) rotate(0) translate(4 262.5)">
<title>G</title>
<polygon fill="white" stroke="white" points="-4,5 -4,-262.5 255,-262.5 255,5 -4,5"/>
<!-- Node1 -->
<g id="node1" class="node"><title>Node1</title>
<polygon fill="#bfbfbf" stroke="black" points="168,-165 168,-186 218,-186 218,-165 168,-165"/>
<text text-anchor="middle" x="193" y="-173" font-family="Helvetica,sans-Serif" font-size="10.00">PGroup</text>
</g>
<!-- Node4 -->
<g id="node7" class="node"><title>Node4</title>
<a xlink:href="../../d7/df0/struct_p_cache1.html" target="_top" xlink:title="PCache1">
<polygon fill="white" stroke="black" points="125.5,-91 125.5,-112 182.5,-112 182.5,-91 125.5,-91"/>
<text text-anchor="middle" x="154" y="-99" font-family="Helvetica,sans-Serif" font-size="10.00">PCache1</text>
</a>
</g>
<!-- Node1&#45;&gt;Node4 -->
<g id="edge10" class="edge"><title>Node1&#45;&gt;Node4</title>
<path fill="none" stroke="#9a32cd" stroke-dasharray="5,2" d="M176.105,-157.113C173.5,-153.735 171.011,-150.125 169,-146.5 162.927,-135.554 158.778,-121.743 156.409,-112.327"/>
<polygon fill="#9a32cd" stroke="#9a32cd" points="173.522,-159.481 182.617,-164.915 178.896,-154.995 173.522,-159.481"/>
<text text-anchor="middle" x="186.5" y="-137" font-family="Helvetica,sans-Serif" font-size="10.00"> pGroup</text>
</g>
<!-- Node2 -->
<g id="node2" class="node"><title>Node2</title>
<a xlink:href="../../da/d32/struct_pg_hdr1.html" target="_top" xlink:title="PgHdr1">
<polygon fill="white" stroke="black" points="109,-9 109,-30 159,-30 159,-9 109,-9"/>
<text text-anchor="middle" x="134" y="-17" font-family="Helvetica,sans-Serif" font-size="10.00">PgHdr1</text>
</a>
</g>
<!-- Node2&#45;&gt;Node1 -->
<g id="edge2" class="edge"><title>Node2&#45;&gt;Node1</title>
<path fill="none" stroke="#9a32cd" stroke-dasharray="5,2" d="M164.913,-35.4519C173.19,-41.0791 181.387,-48.13 187,-56.5 195.333,-68.9267 209.817,-114.763 204,-146.5 202.854,-152.75 200.428,-159.4 198.145,-164.753"/>
<polygon fill="#9a32cd" stroke="#9a32cd" points="166.697,-32.44 156.363,-30.1075 162.987,-38.3758 166.697,-32.44"/>
<text text-anchor="middle" x="227" y="-105.5" font-family="Helvetica,sans-Serif" font-size="10.00"> pLruHead</text>
<text text-anchor="middle" x="227" y="-92.5" font-family="Helvetica,sans-Serif" font-size="10.00">pLruTail</text>
</g>
<!-- Node2&#45;&gt;Node2 -->
<g id="edge6" class="edge"><title>Node2&#45;&gt;Node2</title>
<path fill="none" stroke="#9a32cd" stroke-dasharray="5,2" d="M169.446,-26.7247C173.996,-25.4693 177,-23.061 177,-19.5 177,-13.6562 168.91,-10.917 159.176,-11.2822"/>
<polygon fill="#9a32cd" stroke="#9a32cd" points="168.792,-23.2714 159.176,-27.7178 169.466,-30.239 168.792,-23.2714"/>
<text text-anchor="middle" x="198.5" y="-30" font-family="Helvetica,sans-Serif" font-size="10.00"> pLruNext</text>
<text text-anchor="middle" x="198.5" y="-17" font-family="Helvetica,sans-Serif" font-size="10.00">pLruPrev</text>
<text text-anchor="middle" x="198.5" y="-4" font-family="Helvetica,sans-Serif" font-size="10.00">pNext</text>
</g>
<!-- Node2&#45;&gt;Node4 -->
<g id="edge12" class="edge"><title>Node2&#45;&gt;Node4</title>
<path fill="none" stroke="#9a32cd" stroke-dasharray="5,2" d="M139.073,-40.3008C142.998,-56.39 148.271,-78.0113 151.385,-90.7799"/>
<polygon fill="#9a32cd" stroke="#9a32cd" points="142.385,-39.1085 136.615,-30.2227 135.585,-40.7673 142.385,-39.1085"/>
<text text-anchor="middle" x="164.5" y="-61" font-family="Helvetica,sans-Serif" font-size="10.00"> apHash</text>
</g>
<!-- Node3 -->
<g id="node4" class="node"><title>Node3</title>
<a xlink:href="../../d8/d72/structsqlite3__pcache__page.html" target="_top" xlink:title="sqlite3_pcache_page">
<polygon fill="white" stroke="black" points="0,-91 0,-112 108,-112 108,-91 0,-91"/>
<text text-anchor="middle" x="54" y="-99" font-family="Helvetica,sans-Serif" font-size="10.00">sqlite3_pcache_page</text>
</a>
</g>
<!-- Node3&#45;&gt;Node2 -->
<g id="edge4" class="edge"><title>Node3&#45;&gt;Node2</title>
<path fill="none" stroke="#9a32cd" stroke-dasharray="5,2" d="M59.5655,-81.1021C62.5607,-72.807 66.9188,-63.5387 73,-56.5 82.7981,-45.1591 96.9615,-36.273 109.175,-30.0547"/>
<polygon fill="#9a32cd" stroke="#9a32cd" points="56.1617,-80.2573 56.4734,-90.8476 62.8339,-82.3744 56.1617,-80.2573"/>
<text text-anchor="middle" x="85.5" y="-61" font-family="Helvetica,sans-Serif" font-size="10.00"> page</text>
</g>
<!-- Node4&#45;&gt;Node2 -->
<g id="edge8" class="edge"><title>Node4&#45;&gt;Node2</title>
<path fill="none" stroke="#9a32cd" stroke-dasharray="5,2" d="M118.456,-85.288C113.055,-81.2408 108.218,-76.3446 105,-70.5 97.2372,-56.4029 110.103,-40.28 121.092,-30.0017"/>
<polygon fill="#9a32cd" stroke="#9a32cd" points="116.956,-88.485 127.257,-90.9631 120.749,-82.6022 116.956,-88.485"/>
<text text-anchor="middle" x="123.5" y="-61" font-family="Helvetica,sans-Serif" font-size="10.00"> pCache</text>
</g>
<!-- Node5 -->
<g id="node11" class="node"><title>Node5</title>
<a xlink:href="../../d5/d3c/structsqlite3__mutex.html" target="_top" xlink:title="sqlite3_mutex">
<polygon fill="white" stroke="black" points="154.5,-237 154.5,-258 231.5,-258 231.5,-237 154.5,-237"/>
<text text-anchor="middle" x="193" y="-245" font-family="Helvetica,sans-Serif" font-size="10.00">sqlite3_mutex</text>
</a>
</g>
<!-- Node5&#45;&gt;Node1 -->
<g id="edge14" class="edge"><title>Node5&#45;&gt;Node1</title>
<path fill="none" stroke="#9a32cd" stroke-dasharray="5,2" d="M193,-226.735C193,-213.469 193,-196.819 193,-186.167"/>
<polygon fill="#9a32cd" stroke="#9a32cd" points="189.5,-226.876 193,-236.876 196.5,-226.876 189.5,-226.876"/>
<text text-anchor="middle" x="208.5" y="-209" font-family="Helvetica,sans-Serif" font-size="10.00"> mutex</text>
</g>
</g>
</svg>
