<?xml version="1.0" encoding="UTF-8" standalone="no"?>
<!DOCTYPE svg PUBLIC "-//W3C//DTD SVG 1.1//EN"
 "http://www.w3.org/Graphics/SVG/1.1/DTD/svg11.dtd">
<!-- Generated by graphviz version 2.26.3 (20100126.1600)
 -->
<!-- Title: G Pages: 1 -->
<!--zoomable 88 -->
<svg id="main" version="1.1" xmlns="http://www.w3.org/2000/svg" xmlns:xlink="http://www.w3.org/1999/xlink" xml:space="preserve" onload="init(evt)">
        <defs>
                <circle id="rim" cx="0" cy="0" r="7"/>
                <circle id="rim2" cx="0" cy="0" r="3.5"/>
                <g id="zoomPlus">
                        <use xlink:href="#rim" fill="#404040">
                                <set attributeName="fill" to="#808080" begin="zoomplus.mouseover" end="zoomplus.mouseout"/>
                        </use>
                        <path d="M-4,0h8M0,-4v8" fill="none" stroke="white" stroke-width="1.5" pointer-events="none"/>
                </g>
                <g id="zoomMin">
                        <use xlink:href="#rim" fill="#404040">
                                <set attributeName="fill" to="#808080" begin="zoomminus.mouseover" end="zoomminus.mouseout"/>
                        </use>
                        <path d="M-4,0h8" fill="none" stroke="white" stroke-width="1.5" pointer-events="none"/>
                </g>
                <g id="dirArrow">
                        <path fill="none" stroke="white" stroke-width="1.5" d="M0,-3.0v7 M-2.5,-0.5L0,-3.0L2.5,-0.5"/>
                </g>
               <g id="resetDef">
                       <use xlink:href="#rim2" fill="#404040">
                               <set attributeName="fill" to="#808080" begin="reset.mouseover" end="reset.mouseout"/>
                       </use>
               </g>
        </defs>

<script type="text/javascript">
var viewWidth = 848;
var viewHeight = 88;
var sectionId = 'dynsection-0';
</script>
<script xlink:href="../../svgpan.js"/>
<svg id="graph" class="graph">
<g id="viewport">
<title>G</title>
<polygon fill="white" stroke="white" points="-4,5 -4,-84 845,-84 845,5 -4,5"/>
<!-- Node1 -->
<g id="node1" class="node"><title>Node1</title>
<polygon fill="#bfbfbf" stroke="black" points="346.5,-58.5 346.5,-79.5 539.5,-79.5 539.5,-58.5 346.5,-58.5"/>
<text text-anchor="middle" x="443" y="-66.5" font-family="Helvetica,sans-Serif" font-size="10.00">src/parsers/xml/pugixml/src/pugixml.cpp</text>
</g>
<!-- Node2 -->
<g id="node3" class="node"><title>Node2</title>
<polygon fill="white" stroke="#bfbfbf" points="-0.5,-0.5 -0.5,-21.5 68.5,-21.5 68.5,-0.5 -0.5,-0.5"/>
<text text-anchor="middle" x="34" y="-8.5" font-family="Helvetica,sans-Serif" font-size="10.00">pugixml.hpp</text>
</g>
<!-- Node1&#45;&gt;Node2 -->
<g id="edge2" class="edge"><title>Node1&#45;&gt;Node2</title>
<path fill="none" stroke="midnightblue" d="M346.162,-59.8397C274.546,-52.3017 174.512,-40.1773 78.5254,-22.1335"/>
<polygon fill="midnightblue" stroke="midnightblue" points="79.1298,-18.6857 68.6516,-20.2534 77.8204,-25.5622 79.1298,-18.6857"/>
</g>
<!-- Node3 -->
<g id="node5" class="node"><title>Node3</title>
<polygon fill="white" stroke="#bfbfbf" points="86,-0.5 86,-21.5 134,-21.5 134,-0.5 86,-0.5"/>
<text text-anchor="middle" x="110" y="-8.5" font-family="Helvetica,sans-Serif" font-size="10.00">stdlib.h</text>
</g>
<!-- Node1&#45;&gt;Node3 -->
<g id="edge4" class="edge"><title>Node1&#45;&gt;Node3</title>
<path fill="none" stroke="midnightblue" d="M349.973,-58.4822C292.889,-51.0765 218.251,-39.6934 144.011,-21.9478"/>
<polygon fill="midnightblue" stroke="midnightblue" points="144.559,-18.4792 134.016,-19.5189 142.906,-25.2813 144.559,-18.4792"/>
</g>
<!-- Node4 -->
<g id="node7" class="node"><title>Node4</title>
<polygon fill="white" stroke="#bfbfbf" points="152,-0.5 152,-21.5 198,-21.5 198,-0.5 152,-0.5"/>
<text text-anchor="middle" x="175" y="-8.5" font-family="Helvetica,sans-Serif" font-size="10.00">stdio.h</text>
</g>
<!-- Node1&#45;&gt;Node4 -->
<g id="edge6" class="edge"><title>Node1&#45;&gt;Node4</title>
<path fill="none" stroke="midnightblue" d="M378.101,-58.4999C332.808,-50.6163 270.847,-38.7271 208.34,-22.1225"/>
<polygon fill="midnightblue" stroke="midnightblue" points="208.873,-18.6411 198.306,-19.417 207.05,-25.3998 208.873,-18.6411"/>
</g>
<!-- Node5 -->
<g id="node9" class="node"><title>Node5</title>
<polygon fill="white" stroke="#bfbfbf" points="215.5,-0.5 215.5,-21.5 264.5,-21.5 264.5,-0.5 215.5,-0.5"/>
<text text-anchor="middle" x="240" y="-8.5" font-family="Helvetica,sans-Serif" font-size="10.00">string.h</text>
</g>
<!-- Node1&#45;&gt;Node5 -->
<g id="edge8" class="edge"><title>Node1&#45;&gt;Node5</title>
<path fill="none" stroke="midnightblue" d="M402.642,-58.4758C370.249,-49.8869 323.395,-37.1483 274.603,-22.4029"/>
<polygon fill="midnightblue" stroke="midnightblue" points="275.408,-18.9895 264.822,-19.4277 273.37,-25.6865 275.408,-18.9895"/>
</g>
<!-- Node6 -->
<g id="node11" class="node"><title>Node6</title>
<polygon fill="white" stroke="#bfbfbf" points="282,-0.5 282,-21.5 334,-21.5 334,-0.5 282,-0.5"/>
<text text-anchor="middle" x="308" y="-8.5" font-family="Helvetica,sans-Serif" font-size="10.00">assert.h</text>
</g>
<!-- Node1&#45;&gt;Node6 -->
<g id="edge10" class="edge"><title>Node1&#45;&gt;Node6</title>
<path fill="none" stroke="midnightblue" d="M418.553,-58.4966C397.182,-49.3154 365.931,-35.8889 342.103,-25.6516"/>
<polygon fill="midnightblue" stroke="midnightblue" points="343.291,-22.3529 332.722,-21.6212 340.528,-28.7845 343.291,-22.3529"/>
</g>
<!-- Node7 -->
<g id="node13" class="node"><title>Node7</title>
<polygon fill="white" stroke="#bfbfbf" points="351.5,-0.5 351.5,-21.5 402.5,-21.5 402.5,-0.5 351.5,-0.5"/>
<text text-anchor="middle" x="377" y="-8.5" font-family="Helvetica,sans-Serif" font-size="10.00">wchar.h</text>
</g>
<!-- Node1&#45;&gt;Node7 -->
<g id="edge12" class="edge"><title>Node1&#45;&gt;Node7</title>
<path fill="none" stroke="midnightblue" d="M430.895,-58.3619C421.312,-49.9408 407.736,-38.0105 396.607,-28.2308"/>
<polygon fill="midnightblue" stroke="midnightblue" points="398.851,-25.5427 389.029,-21.5707 394.23,-30.8009 398.851,-25.5427"/>
</g>
<!-- Node8 -->
<g id="node15" class="node"><title>Node8</title>
<polygon fill="white" stroke="#bfbfbf" points="419.5,-0.5 419.5,-21.5 466.5,-21.5 466.5,-0.5 419.5,-0.5"/>
<text text-anchor="middle" x="443" y="-8.5" font-family="Helvetica,sans-Serif" font-size="10.00">math.h</text>
</g>
<!-- Node1&#45;&gt;Node8 -->
<g id="edge14" class="edge"><title>Node1&#45;&gt;Node8</title>
<path fill="none" stroke="midnightblue" d="M443,-58.3619C443,-50.9219 443,-40.7427 443,-31.7276"/>
<polygon fill="midnightblue" stroke="midnightblue" points="446.5,-31.5706 443,-21.5707 439.5,-31.5707 446.5,-31.5706"/>
</g>
<!-- Node9 -->
<g id="node17" class="node"><title>Node9</title>
<polygon fill="white" stroke="#bfbfbf" points="484,-0.5 484,-21.5 528,-21.5 528,-0.5 484,-0.5"/>
<text text-anchor="middle" x="506" y="-8.5" font-family="Helvetica,sans-Serif" font-size="10.00">float.h</text>
</g>
<!-- Node1&#45;&gt;Node9 -->
<g id="edge16" class="edge"><title>Node1&#45;&gt;Node9</title>
<path fill="none" stroke="midnightblue" d="M454.555,-58.3619C463.613,-50.0226 476.41,-38.2418 486.974,-28.5162"/>
<polygon fill="midnightblue" stroke="midnightblue" points="489.532,-30.9187 494.518,-21.5707 484.79,-25.7688 489.532,-30.9187"/>
</g>
<!-- Node10 -->
<g id="node19" class="node"><title>Node10</title>
<polygon fill="white" stroke="#bfbfbf" points="545.5,-0.5 545.5,-21.5 594.5,-21.5 594.5,-0.5 545.5,-0.5"/>
<text text-anchor="middle" x="570" y="-8.5" font-family="Helvetica,sans-Serif" font-size="10.00">istream</text>
</g>
<!-- Node1&#45;&gt;Node10 -->
<g id="edge18" class="edge"><title>Node1&#45;&gt;Node10</title>
<path fill="none" stroke="midnightblue" d="M465.999,-58.4966C486.013,-49.3562 515.241,-36.0082 537.619,-25.7883"/>
<polygon fill="midnightblue" stroke="midnightblue" points="539.101,-28.9592 546.743,-21.6212 536.193,-22.5918 539.101,-28.9592"/>
</g>
<!-- Node11 -->
<g id="node21" class="node"><title>Node11</title>
<polygon fill="white" stroke="#bfbfbf" points="612,-0.5 612,-21.5 664,-21.5 664,-0.5 612,-0.5"/>
<text text-anchor="middle" x="638" y="-8.5" font-family="Helvetica,sans-Serif" font-size="10.00">ostream</text>
</g>
<!-- Node1&#45;&gt;Node11 -->
<g id="edge20" class="edge"><title>Node1&#45;&gt;Node11</title>
<path fill="none" stroke="midnightblue" d="M479.597,-58.4616C509.973,-49.6677 554.548,-36.6543 601.835,-22.3219"/>
<polygon fill="midnightblue" stroke="midnightblue" points="603.093,-25.5979 611.643,-19.3419 601.058,-18.9002 603.093,-25.5979"/>
</g>
<!-- Node12 -->
<g id="node23" class="node"><title>Node12</title>
<polygon fill="white" stroke="#bfbfbf" points="681.5,-0.5 681.5,-21.5 722.5,-21.5 722.5,-0.5 681.5,-0.5"/>
<text text-anchor="middle" x="702" y="-8.5" font-family="Helvetica,sans-Serif" font-size="10.00">string</text>
</g>
<!-- Node1&#45;&gt;Node12 -->
<g id="edge22" class="edge"><title>Node1&#45;&gt;Node12</title>
<path fill="none" stroke="midnightblue" d="M508.617,-58.49C552.556,-50.7877 611.754,-39.1342 671.284,-22.2133"/>
<polygon fill="midnightblue" stroke="midnightblue" points="672.593,-25.4784 681.227,-19.3381 670.648,-18.7539 672.593,-25.4784"/>
</g>
<!-- Node13 -->
<g id="node25" class="node"><title>Node13</title>
<polygon fill="white" stroke="#bfbfbf" points="739.5,-0.5 739.5,-21.5 774.5,-21.5 774.5,-0.5 739.5,-0.5"/>
<text text-anchor="middle" x="757" y="-8.5" font-family="Helvetica,sans-Serif" font-size="10.00">new</text>
</g>
<!-- Node1&#45;&gt;Node13 -->
<g id="edge24" class="edge"><title>Node1&#45;&gt;Node13</title>
<path fill="none" stroke="midnightblue" d="M539.612,-59.0723C593.485,-52.1647 661.708,-41.1472 729.33,-22.0274"/>
<polygon fill="midnightblue" stroke="midnightblue" points="730.665,-25.2849 739.301,-19.1472 728.722,-18.5599 730.665,-25.2849"/>
</g>
<!-- Node14 -->
<g id="node27" class="node"><title>Node14</title>
<polygon fill="white" stroke="#bfbfbf" points="791.5,-0.5 791.5,-21.5 840.5,-21.5 840.5,-0.5 791.5,-0.5"/>
<text text-anchor="middle" x="816" y="-8.5" font-family="Helvetica,sans-Serif" font-size="10.00">stdint.h</text>
</g>
<!-- Node1&#45;&gt;Node14 -->
<g id="edge26" class="edge"><title>Node1&#45;&gt;Node14</title>
<path fill="none" stroke="midnightblue" d="M539.861,-60.4103C605.825,-53.4406 695.135,-41.818 781.325,-22.1019"/>
<polygon fill="midnightblue" stroke="midnightblue" points="782.328,-25.4619 791.274,-19.7861 780.741,-18.6442 782.328,-25.4619"/>
</g>
</g>
</svg>
        <g id="navigator" transform="translate(0 0)" fill="#404254">
                <rect fill="#f2f5e9" fill-opacity="0.5" stroke="#606060" stroke-width=".5" x="0" y="0" width="60" height="60"/>
                <use id="zoomplus" xlink:href="#zoomPlus" x="17" y="9" onmousedown="handleZoom(evt,'in')"/>
                <use id="zoomminus" xlink:href="#zoomMin" x="42" y="9" onmousedown="handleZoom(evt,'out')"/>
                <use id="reset" xlink:href="#resetDef" x="30" y="36" onmousedown="handleReset()"/>
                <g id="arrowUp" xlink:href="#dirArrow" transform="translate(30 24)" onmousedown="handlePan(0,-1)">
                  <use xlink:href="#rim" fill="#404040">
                        <set attributeName="fill" to="#808080" begin="arrowUp.mouseover" end="arrowUp.mouseout"/>
                  </use>
                  <path fill="none" stroke="white" stroke-width="1.5" d="M0,-3.0v7 M-2.5,-0.5L0,-3.0L2.5,-0.5"/>
                </g>
                <g id="arrowRight" xlink:href="#dirArrow" transform="rotate(90) translate(36 -43)" onmousedown="handlePan(1,0)">
                  <use xlink:href="#rim" fill="#404040">
                        <set attributeName="fill" to="#808080" begin="arrowRight.mouseover" end="arrowRight.mouseout"/>
                  </use>
                  <path fill="none" stroke="white" stroke-width="1.5" d="M0,-3.0v7 M-2.5,-0.5L0,-3.0L2.5,-0.5"/>
                </g>
                <g id="arrowDown" xlink:href="#dirArrow" transform="rotate(180) translate(-30 -48)" onmousedown="handlePan(0,1)">
                  <use xlink:href="#rim" fill="#404040">
                        <set attributeName="fill" to="#808080" begin="arrowDown.mouseover" end="arrowDown.mouseout"/>
                  </use>
                  <path fill="none" stroke="white" stroke-width="1.5" d="M0,-3.0v7 M-2.5,-0.5L0,-3.0L2.5,-0.5"/>
                </g>
                <g id="arrowLeft" xlink:href="#dirArrow" transform="rotate(270) translate(-36 17)" onmousedown="handlePan(-1,0)">
                  <use xlink:href="#rim" fill="#404040">
                        <set attributeName="fill" to="#808080" begin="arrowLeft.mouseover" end="arrowLeft.mouseout"/>
                  </use>
                  <path fill="none" stroke="white" stroke-width="1.5" d="M0,-3.0v7 M-2.5,-0.5L0,-3.0L2.5,-0.5"/>
                </g>
        </g>
</svg>
