<?xml version="1.0" encoding="UTF-8" standalone="no"?>
<!DOCTYPE svg PUBLIC "-//W3C//DTD SVG 1.1//EN"
 "http://www.w3.org/Graphics/SVG/1.1/DTD/svg11.dtd">
<!-- Generated by graphviz version 2.26.3 (20100126.1600)
 -->
<!-- Title: G Pages: 1 -->
<svg width="198pt" height="262pt"
 viewBox="0.00 0.00 198.00 262.00" xmlns="http://www.w3.org/2000/svg" xmlns:xlink="http://www.w3.org/1999/xlink">
<g id="graph1" class="graph" transform="scale(1 1) rotate(0) translate(4 258)">
<title>G</title>
<polygon fill="white" stroke="white" points="-4,5 -4,-258 195,-258 195,5 -4,5"/>
<!-- Node1 -->
<g id="node1" class="node"><title>Node1</title>
<polygon fill="#bfbfbf" stroke="black" points="30,-0.5 30,-21.5 124,-21.5 124,-0.5 30,-0.5"/>
<text text-anchor="middle" x="77" y="-8.5" font-family="Helvetica,sans-Serif" font-size="10.00">xpath_stack_data</text>
</g>
<!-- Node2 -->
<g id="node2" class="node"><title>Node2</title>
<a xlink:href="../../d0/d13/structxpath__memory__block.html" target="_top" xlink:title="xpath_memory_block">
<polygon fill="white" stroke="black" points="0,-232.5 0,-253.5 110,-253.5 110,-232.5 0,-232.5"/>
<text text-anchor="middle" x="55" y="-240.5" font-family="Helvetica,sans-Serif" font-size="10.00">xpath_memory_block</text>
</a>
</g>
<!-- Node2&#45;&gt;Node1 -->
<g id="edge2" class="edge"><title>Node2&#45;&gt;Node1</title>
<path fill="none" stroke="#9a32cd" stroke-dasharray="5,2" d="M52.4316,-222.089C51.1161,-210.33 49.656,-195.37 49,-182 48.5209,-172.234 48.6672,-169.772 49,-160 49.6671,-140.41 49.0532,-135.378 52,-116 57.3244,-80.9863 68.4135,-40.4413 73.8532,-21.6168"/>
<polygon fill="#9a32cd" stroke="#9a32cd" points="48.9791,-222.7 53.6177,-232.225 55.9317,-221.886 48.9791,-222.7"/>
<text text-anchor="middle" x="68" y="-126.5" font-family="Helvetica,sans-Serif" font-size="10.00"> blocks</text>
</g>
<!-- Node2&#45;&gt;Node2 -->
<g id="edge4" class="edge"><title>Node2&#45;&gt;Node2</title>
<path fill="none" stroke="#9a32cd" stroke-dasharray="5,2" d="M120.001,-248.066C124.952,-246.941 128,-245.252 128,-243 128,-239.484 120.574,-237.342 110.073,-236.573"/>
<polygon fill="#9a32cd" stroke="#9a32cd" points="119.505,-244.601 110.073,-249.427 120.456,-251.536 119.505,-244.601"/>
<text text-anchor="middle" x="139" y="-240.5" font-family="Helvetica,sans-Serif" font-size="10.00"> next</text>
</g>
<!-- Node4 -->
<g id="node7" class="node"><title>Node4</title>
<a xlink:href="../../d9/d51/classxpath__allocator.html" target="_top" xlink:title="xpath_allocator">
<polygon fill="white" stroke="black" points="57.5,-160.5 57.5,-181.5 140.5,-181.5 140.5,-160.5 57.5,-160.5"/>
<text text-anchor="middle" x="99" y="-168.5" font-family="Helvetica,sans-Serif" font-size="10.00">xpath_allocator</text>
</a>
</g>
<!-- Node2&#45;&gt;Node4 -->
<g id="edge10" class="edge"><title>Node2&#45;&gt;Node4</title>
<path fill="none" stroke="#9a32cd" stroke-dasharray="5,2" d="M66.7273,-223.81C74.9769,-210.311 85.7115,-192.745 92.481,-181.667"/>
<polygon fill="#9a32cd" stroke="#9a32cd" points="63.7204,-222.018 61.4924,-232.376 69.6934,-225.668 63.7204,-222.018"/>
<text text-anchor="middle" x="92.5" y="-204.5" font-family="Helvetica,sans-Serif" font-size="10.00"> _root</text>
</g>
<!-- Node3 -->
<g id="node5" class="node"><title>Node3</title>
<a xlink:href="../../dc/d7f/structxpath__stack.html" target="_top" xlink:title="xpath_stack">
<polygon fill="white" stroke="black" points="120,-74.5 120,-95.5 190,-95.5 190,-74.5 120,-74.5"/>
<text text-anchor="middle" x="155" y="-82.5" font-family="Helvetica,sans-Serif" font-size="10.00">xpath_stack</text>
</a>
</g>
<!-- Node3&#45;&gt;Node1 -->
<g id="edge6" class="edge"><title>Node3&#45;&gt;Node1</title>
<path fill="none" stroke="#9a32cd" stroke-dasharray="5,2" d="M136.555,-67.5006C121.518,-53.2346 100.773,-33.5536 88.1548,-21.5827"/>
<polygon fill="#9a32cd" stroke="#9a32cd" points="134.161,-70.0541 143.825,-74.3976 138.979,-64.9758 134.161,-70.0541"/>
<text text-anchor="middle" x="134" y="-44.5" font-family="Helvetica,sans-Serif" font-size="10.00"> stack</text>
</g>
<!-- Node4&#45;&gt;Node1 -->
<g id="edge12" class="edge"><title>Node4&#45;&gt;Node1</title>
<path fill="none" stroke="#9a32cd" stroke-dasharray="5,2" d="M94.876,-150.189C92.0915,-135.619 88.4847,-115.675 86,-98 82.1529,-70.6328 79.227,-38.2057 77.8569,-21.7456"/>
<polygon fill="#9a32cd" stroke="#9a32cd" points="91.4695,-151.007 96.8128,-160.156 98.341,-149.672 91.4695,-151.007"/>
<text text-anchor="middle" x="98.5" y="-89" font-family="Helvetica,sans-Serif" font-size="10.00"> temp</text>
<text text-anchor="middle" x="98.5" y="-76" font-family="Helvetica,sans-Serif" font-size="10.00">result</text>
</g>
<!-- Node4&#45;&gt;Node3 -->
<g id="edge8" class="edge"><title>Node4&#45;&gt;Node3</title>
<path fill="none" stroke="#9a32cd" stroke-dasharray="5,2" d="M111.557,-151.717C122.836,-134.395 138.979,-109.603 148.077,-95.6315"/>
<polygon fill="#9a32cd" stroke="#9a32cd" points="108.39,-150.165 105.867,-160.455 114.256,-153.985 108.39,-150.165"/>
<text text-anchor="middle" x="145.5" y="-133" font-family="Helvetica,sans-Serif" font-size="10.00"> temp</text>
<text text-anchor="middle" x="145.5" y="-120" font-family="Helvetica,sans-Serif" font-size="10.00">result</text>
</g>
</g>
</svg>
