<?xml version="1.0" encoding="UTF-8" standalone="no"?>
<!DOCTYPE svg PUBLIC "-//W3C//DTD SVG 1.1//EN"
 "http://www.w3.org/Graphics/SVG/1.1/DTD/svg11.dtd">
<!-- Generated by graphviz version 2.26.3 (20100126.1600)
 -->
<!-- Title: G Pages: 1 -->
<svg width="122pt" height="102pt"
 viewBox="0.00 0.00 122.00 102.00" xmlns="http://www.w3.org/2000/svg" xmlns:xlink="http://www.w3.org/1999/xlink">
<g id="graph1" class="graph" transform="scale(1 1) rotate(0) translate(4 98)">
<title>G</title>
<polygon fill="white" stroke="white" points="-4,5 -4,-98 119,-98 119,5 -4,5"/>
<!-- Node1 -->
<g id="node1" class="node"><title>Node1</title>
<polygon fill="#bfbfbf" stroke="black" points="0,-0.5 0,-21.5 86,-21.5 86,-0.5 0,-0.5"/>
<text text-anchor="middle" x="43" y="-8.5" font-family="Helvetica,sans-Serif" font-size="10.00">PagerSavepoint</text>
</g>
<!-- Node2 -->
<g id="node2" class="node"><title>Node2</title>
<a xlink:href="../../d1/d89/struct_bitvec.html" target="_top" xlink:title="Bitvec">
<polygon fill="white" stroke="black" points="21,-72.5 21,-93.5 65,-93.5 65,-72.5 21,-72.5"/>
<text text-anchor="middle" x="43" y="-80.5" font-family="Helvetica,sans-Serif" font-size="10.00">Bitvec</text>
</a>
</g>
<!-- Node2&#45;&gt;Node1 -->
<g id="edge2" class="edge"><title>Node2&#45;&gt;Node1</title>
<path fill="none" stroke="#9a32cd" stroke-dasharray="5,2" d="M43,-62.2348C43,-48.969 43,-32.3188 43,-21.6674"/>
<polygon fill="#9a32cd" stroke="#9a32cd" points="39.5001,-62.3761 43,-72.3762 46.5001,-62.3762 39.5001,-62.3761"/>
<text text-anchor="middle" x="73.5" y="-44.5" font-family="Helvetica,sans-Serif" font-size="10.00"> pInSavepoint</text>
</g>
<!-- Node2&#45;&gt;Node2 -->
<g id="edge4" class="edge"><title>Node2&#45;&gt;Node2</title>
<path fill="none" stroke="#9a32cd" stroke-dasharray="5,2" d="M75.4045,-89.0415C79.9533,-88.056 83,-86.0421 83,-83 83,-78.0078 74.7952,-75.7847 65.2124,-76.3307"/>
<polygon fill="#9a32cd" stroke="#9a32cd" points="74.9783,-85.5611 65.2124,-89.6693 75.4086,-92.5478 74.9783,-85.5611"/>
<text text-anchor="middle" x="98.5" y="-80.5" font-family="Helvetica,sans-Serif" font-size="10.00"> apSub</text>
</g>
</g>
</svg>
