<?xml version="1.0" encoding="UTF-8" standalone="no"?>
<!DOCTYPE svg PUBLIC "-//W3C//DTD SVG 1.1//EN"
 "http://www.w3.org/Graphics/SVG/1.1/DTD/svg11.dtd">
<!-- Generated by graphviz version 2.26.3 (20100126.1600)
 -->
<!-- Title: G Pages: 1 -->
<svg width="146pt" height="106pt"
 viewBox="0.00 0.00 146.00 106.00" xmlns="http://www.w3.org/2000/svg" xmlns:xlink="http://www.w3.org/1999/xlink">
<g id="graph1" class="graph" transform="scale(1 1) rotate(0) translate(4 102)">
<title>G</title>
<polygon fill="white" stroke="white" points="-4,5 -4,-102 143,-102 143,5 -4,5"/>
<!-- Node1 -->
<g id="node1" class="node"><title>Node1</title>
<polygon fill="#bfbfbf" stroke="black" points="12,-76.5 12,-97.5 86,-97.5 86,-76.5 12,-76.5"/>
<text text-anchor="middle" x="49" y="-84.5" font-family="Helvetica,sans-Serif" font-size="10.00">xml_allocator</text>
</g>
<!-- Node2 -->
<g id="node2" class="node"><title>Node2</title>
<a xlink:href="../../d7/dd1/structxml__memory__page.html" target="_top" xlink:title="xml_memory_page">
<polygon fill="white" stroke="black" points="-0.5,-2.5 -0.5,-23.5 98.5,-23.5 98.5,-2.5 -0.5,-2.5"/>
<text text-anchor="middle" x="49" y="-10.5" font-family="Helvetica,sans-Serif" font-size="10.00">xml_memory_page</text>
</a>
</g>
<!-- Node1&#45;&gt;Node2 -->
<g id="edge6" class="edge"><title>Node1&#45;&gt;Node2</title>
<path fill="none" stroke="#9a32cd" stroke-dasharray="5,2" d="M23.3693,-69.6825C19.9784,-66.229 16.9919,-62.317 15,-58 12.3931,-52.3502 12.4869,-49.6921 15,-44 18.6134,-35.8156 25.5729,-28.859 32.259,-23.6223"/>
<polygon fill="#9a32cd" stroke="#9a32cd" points="21.3635,-72.5761 31.209,-76.4896 25.9529,-67.2905 21.3635,-72.5761"/>
<text text-anchor="middle" x="35" y="-48.5" font-family="Helvetica,sans-Serif" font-size="10.00"> allocator</text>
</g>
<!-- Node2&#45;&gt;Node1 -->
<g id="edge2" class="edge"><title>Node2&#45;&gt;Node1</title>
<path fill="none" stroke="#9a32cd" stroke-dasharray="5,2" d="M56.8984,-33.2682C59.0063,-40.9762 60.364,-49.8603 59,-58 57.9438,-64.3029 55.6805,-71.0689 53.5739,-76.4789"/>
<polygon fill="#9a32cd" stroke="#9a32cd" points="60.1904,-32.0748 53.7441,-23.6668 53.5401,-34.2596 60.1904,-32.0748"/>
<text text-anchor="middle" x="71.5" y="-48.5" font-family="Helvetica,sans-Serif" font-size="10.00"> _root</text>
</g>
<!-- Node2&#45;&gt;Node2 -->
<g id="edge4" class="edge"><title>Node2&#45;&gt;Node2</title>
<path fill="none" stroke="#9a32cd" stroke-dasharray="5,2" d="M108.592,-18.3646C113.176,-17.1771 116,-15.3889 116,-13 116,-9.17773 108.769,-6.89333 98.6718,-6.1468"/>
<polygon fill="#9a32cd" stroke="#9a32cd" points="108.042,-14.9079 98.6718,-19.8532 109.081,-21.8304 108.042,-14.9079"/>
<text text-anchor="middle" x="127" y="-17" font-family="Helvetica,sans-Serif" font-size="10.00"> prev</text>
<text text-anchor="middle" x="127" y="-4" font-family="Helvetica,sans-Serif" font-size="10.00">next</text>
</g>
</g>
</svg>
