<?xml version="1.0" encoding="UTF-8" standalone="no"?>
<!DOCTYPE svg PUBLIC "-//W3C//DTD SVG 1.1//EN"
 "http://www.w3.org/Graphics/SVG/1.1/DTD/svg11.dtd">
<!-- Generated by graphviz version 2.26.3 (20100126.1600)
 -->
<!-- Title: G Pages: 1 -->
<svg width="190pt" height="146pt"
 viewBox="0.00 0.00 190.00 146.00" xmlns="http://www.w3.org/2000/svg" xmlns:xlink="http://www.w3.org/1999/xlink">
<g id="graph1" class="graph" transform="scale(1 1) rotate(0) translate(4 142)">
<title>G</title>
<polygon fill="white" stroke="white" points="-4,5 -4,-142 187,-142 187,5 -4,5"/>
<!-- Node1 -->
<g id="node1" class="node"><title>Node1</title>
<polygon fill="#bfbfbf" stroke="black" points="0,-116.5 0,-137.5 182,-137.5 182,-116.5 0,-116.5"/>
<text text-anchor="middle" x="91" y="-124.5" font-family="Helvetica,sans-Serif" font-size="10.00">src/parsers/json/cpp&#45;json/json/value.h</text>
</g>
<!-- Node2 -->
<g id="node3" class="node"><title>Node2</title>
<a xlink:href="../../d4/d05/json_8h.html" target="_top" xlink:title="src/parsers/json/cpp&#45;json/json.h">
<polygon fill="white" stroke="black" points="13.5,-58.5 13.5,-79.5 168.5,-79.5 168.5,-58.5 13.5,-58.5"/>
<text text-anchor="middle" x="91" y="-66.5" font-family="Helvetica,sans-Serif" font-size="10.00">src/parsers/json/cpp&#45;json/json.h</text>
</a>
</g>
<!-- Node1&#45;&gt;Node2 -->
<g id="edge2" class="edge"><title>Node1&#45;&gt;Node2</title>
<path fill="none" stroke="midnightblue" d="M91,-106.191C91,-97.1684 91,-86.9941 91,-79.5707"/>
<polygon fill="midnightblue" stroke="midnightblue" points="87.5001,-106.362 91,-116.362 94.5001,-106.362 87.5001,-106.362"/>
</g>
<!-- Node3 -->
<g id="node5" class="node"><title>Node3</title>
<a xlink:href="../../d2/d50/ioformat_8cpp.html" target="_top" xlink:title="src/api/ioformat.cpp">
<polygon fill="white" stroke="black" points="39.5,-0.5 39.5,-21.5 142.5,-21.5 142.5,-0.5 39.5,-0.5"/>
<text text-anchor="middle" x="91" y="-8.5" font-family="Helvetica,sans-Serif" font-size="10.00">src/api/ioformat.cpp</text>
</a>
</g>
<!-- Node2&#45;&gt;Node3 -->
<g id="edge4" class="edge"><title>Node2&#45;&gt;Node3</title>
<path fill="none" stroke="midnightblue" d="M91,-48.1906C91,-39.1684 91,-28.9941 91,-21.5707"/>
<polygon fill="midnightblue" stroke="midnightblue" points="87.5001,-48.3619 91,-58.3619 94.5001,-48.3619 87.5001,-48.3619"/>
</g>
</g>
</svg>
